999
dxflib 3.17.0.0
  0
SECTION
  2
HEADER
  9
$ACADVER
  1
AC1015
  9
$HANDSEED
  5
FFFF
  9
$DIMADEC
 70
0
  9
$DIMASZ
 40
0.18
  9
$DIMAUNIT
 70
0
  9
$DIMAZIN
 70
0
  9
$DIMDEC
 70
4
  9
$DIMDSEP
 70
46
  9
$DIMEXE
 40
0.18
  9
$DIMEXO
 40
0.0625
  9
$DIMGAP
 40
0.09
  9
$DIMLUNIT
 70
2
  9
$DIMSCALE
 40
1.0
  9
$DIMTSZ
 40
0.0
  9
$DIMTXT
 40
0.18
  9
$DIMZIN
 70
0
  9
$DWGCODEPAGE
  3
ANSI_1252
  9
$EXTMAX
 10
1000.0
 20
1000.0
 30
0.0
  9
$EXTMIN
 10
0.0
 20
0.0
 30
0.0
  9
$FILLMODE
 70
0
  9
$INSUNITS
 70
0
  9
$LTSCALE
 40
1.0
  9
$MAXACTVP
 70
32
  9
$MEASUREMENT
 70
1
  9
$PDMODE
 70
0
  9
$PDSIZE
 40
0
  9
$SPLFRAME
 70
1
  0
ENDSEC
  0
SECTION
  2
TABLES
  0
TABLE
  2
VPORT
  5
8
100
AcDbSymbolTable
 70
1
  0
VPORT
  5
30
100
AcDbSymbolTableRecord
100
AcDbViewportTableRecord
  2
*Active
 70
0
 10
0.0
 20
0.0
 11
1.0
 21
1.0
 12
286.3055555555554861
 22
148.5
 13
0.0
 23
0.0
 14
10.0
 24
10.0
 15
10.0
 25
10.0
 16
0.0
 26
0.0
 36
1.0
 17
0.0
 27
0.0
 37
0.0
 40
297.0
 41
1.92798353909465
 42
50.0
 43
0.0
 44
0.0
 50
0.0
 51
0.0
 71
0
 72
100
 73
1
 74
3
 75
1
 76
1
 77
0
 78
0
281
0
 65
1
110
0.0
120
0.0
130
0.0
111
1.0
121
0.0
131
0.0
112
0.0
122
1.0
132
0.0
 79
0
146
0.0
  0
ENDTAB
  0
TABLE
  2
LTYPE
  5
5
100
AcDbSymbolTable
 70
41
  0
LTYPE
  5
16
100
AcDbSymbolTableRecord
100
AcDbLinetypeTableRecord
  2
Continuous
 70
0
  3
Solid line
 72
65
 73
0
 40
0.0
  0
LTYPE
  5
31
100
AcDbSymbolTableRecord
100
AcDbLinetypeTableRecord
  2
ACAD_ISO07W100
 70
0
  3
ISO dot . . . . . . . . . . . . . . . . . . . . 
 72
65
 73
2
 40
3.0
 49
0.0
 74
0
 49
-3.0
 74
0
  0
LTYPE
  5
32
100
AcDbSymbolTableRecord
100
AcDbLinetypeTableRecord
  2
HIDDENX2
 70
0
  3
Hidden (2x) ____ ____ ____ ____ ____ ____ ____ 
 72
65
 73
2
 40
19.0499999999999972
 49
12.6999999999999993
 74
0
 49
-6.3499999999999996
 74
0
  0
LTYPE
  5
33
100
AcDbSymbolTableRecord
100
AcDbLinetypeTableRecord
  2
ACAD_ISO14W100
 70
0
  3
ISO dash triple-dot __ . . . __ . . . __ . . . _
 72
65
 73
8
 40
24.0
 49
12.0
 74
0
 49
-3.0
 74
0
 49
0.0
 74
0
 49
-3.0
 74
0
 49
0.0
 74
0
 49
-3.0
 74
0
 49
0.0
 74
0
 49
-3.0
 74
0
  0
LTYPE
  5
15
100
AcDbSymbolTableRecord
100
AcDbLinetypeTableRecord
  2
BYLAYER
 70
0
  3

 72
65
 73
0
 40
0.0
  0
LTYPE
  5
34
100
AcDbSymbolTableRecord
100
AcDbLinetypeTableRecord
  2
DASHEDX2
 70
0
  3
Dashed (2x) ____  ____  ____  ____  ____  ___
 72
65
 73
2
 40
38.0999999999999943
 49
25.3999999999999986
 74
0
 49
-12.6999999999999993
 74
0
  0
LTYPE
  5
35
100
AcDbSymbolTableRecord
100
AcDbLinetypeTableRecord
  2
ACAD_ISO06W100
 70
0
  3
ISO long-dash triple-dot ____ ... ____ ... ____
 72
65
 73
8
 40
36.0
 49
24.0
 74
0
 49
-3.0
 74
0
 49
0.0
 74
0
 49
-3.0
 74
0
 49
0.0
 74
0
 49
-3.0
 74
0
 49
0.0
 74
0
 49
-3.0
 74
0
  0
LTYPE
  5
36
100
AcDbSymbolTableRecord
100
AcDbLinetypeTableRecord
  2
BORDER
 70
0
  3
Border __ __ . __ __ . __ __ . __ __ . __ __ .
 72
65
 73
6
 40
44.4499999999999957
 49
12.6999999999999993
 74
0
 49
-6.3499999999999996
 74
0
 49
12.6999999999999993
 74
0
 49
-6.3499999999999996
 74
0
 49
0.0
 74
0
 49
-6.3499999999999996
 74
0
  0
LTYPE
  5
37
100
AcDbSymbolTableRecord
100
AcDbLinetypeTableRecord
  2
CENTER2
 70
0
  3
Center (.5x) ___ _ ___ _ ___ _ ___ _ ___ _ ___
 72
65
 73
4
 40
28.5750000000000028
 49
19.0500000000000007
 74
0
 49
-3.1749999999999998
 74
0
 49
3.1749999999999998
 74
0
 49
-3.1749999999999998
 74
0
  0
LTYPE
  5
38
100
AcDbSymbolTableRecord
100
AcDbLinetypeTableRecord
  2
ACAD_ISO13W100
 70
0
  3
ISO double-dash double-dot __ __ . . __ __ . . _
 72
65
 73
8
 40
36.0
 49
12.0
 74
0
 49
-3.0
 74
0
 49
12.0
 74
0
 49
-3.0
 74
0
 49
0.0
 74
0
 49
-3.0
 74
0
 49
0.0
 74
0
 49
-3.0
 74
0
  0
LTYPE
  5
39
100
AcDbSymbolTableRecord
100
AcDbLinetypeTableRecord
  2
DASHDOT
 70
0
  3
Dash dot __ . __ . __ . __ . __ . __ . __ . __
 72
65
 73
4
 40
25.3999999999999986
 49
12.6999999999999993
 74
0
 49
-6.3499999999999996
 74
0
 49
0.0
 74
0
 49
-6.3499999999999996
 74
0
  0
LTYPE
  5
3A
100
AcDbSymbolTableRecord
100
AcDbLinetypeTableRecord
  2
ACAD_ISO05W100
 70
0
  3
ISO long-dash double-dot ____ .. ____ .. ____ . 
 72
65
 73
6
 40
33.0
 49
24.0
 74
0
 49
-3.0
 74
0
 49
0.0
 74
0
 49
-3.0
 74
0
 49
0.0
 74
0
 49
-3.0
 74
0
  0
LTYPE
  5
3B
100
AcDbSymbolTableRecord
100
AcDbLinetypeTableRecord
  2
DIVIDEX2
 70
0
  3
Divide (2x) ________  .  .  ________  .  .  _
 72
65
 73
6
 40
63.5
 49
25.3999999999999986
 74
0
 49
-12.6999999999999993
 74
0
 49
0.0
 74
0
 49
-12.6999999999999993
 74
0
 49
0.0
 74
0
 49
-12.6999999999999993
 74
0
  0
LTYPE
  5
3C
100
AcDbSymbolTableRecord
100
AcDbLinetypeTableRecord
  2
HIDDEN
 70
0
  3
Hidden __ __ __ __ __ __ __ __ __ __ __ __ __ __
 72
65
 73
2
 40
9.5249999999999986
 49
6.3499999999999996
 74
0
 49
-3.1749999999999998
 74
0
  0
LTYPE
  5
3D
100
AcDbSymbolTableRecord
100
AcDbLinetypeTableRecord
  2
ACAD_ISO12W100
 70
0
  3
ISO dash double-dot __ . . __ . . __ . . __ . . 
 72
65
 73
6
 40
21.0
 49
12.0
 74
0
 49
-3.0
 74
0
 49
0.0
 74
0
 49
-3.0
 74
0
 49
0.0
 74
0
 49
-3.0
 74
0
  0
LTYPE
  5
3E
100
AcDbSymbolTableRecord
100
AcDbLinetypeTableRecord
  2
ACAD_ISO04W100
 70
0
  3
ISO long-dash dot ____ . ____ . ____ . ____ . _
 72
65
 73
4
 40
30.0
 49
24.0
 74
0
 49
-3.0
 74
0
 49
0.0
 74
0
 49
-3.0
 74
0
  0
LTYPE
  5
3F
100
AcDbSymbolTableRecord
100
AcDbLinetypeTableRecord
  2
DOT2
 70
0
  3
Dot (.5x) ........................................
 72
65
 73
2
 40
3.1749999999999998
 49
0.0
 74
0
 49
-3.1749999999999998
 74
0
  0
LTYPE
  5
40
100
AcDbSymbolTableRecord
100
AcDbLinetypeTableRecord
  2
PHANTOM
 70
0
  3
Phantom ______  __  __  ______  __  __  ______ 
 72
65
 73
6
 40
63.5000000000000071
 49
31.75
 74
0
 49
-6.3499999999999996
 74
0
 49
6.3499999999999996
 74
0
 49
-6.3499999999999996
 74
0
 49
6.3499999999999996
 74
0
 49
-6.3499999999999996
 74
0
  0
LTYPE
  5
41
100
AcDbSymbolTableRecord
100
AcDbLinetypeTableRecord
  2
DASHDOTX2
 70
0
  3
Dash dot (2x) ____  .  ____  .  ____  .  ___
 72
65
 73
4
 40
50.7999999999999972
 49
25.3999999999999986
 74
0
 49
-12.6999999999999993
 74
0
 49
0.0
 74
0
 49
-12.6999999999999993
 74
0
  0
LTYPE
  5
42
100
AcDbSymbolTableRecord
100
AcDbLinetypeTableRecord
  2
DASHDOT2
 70
0
  3
Dash dot (.5x) _._._._._._._._._._._._._._._.
 72
65
 73
4
 40
12.6999999999999993
 49
6.3499999999999996
 74
0
 49
-3.1749999999999998
 74
0
 49
0.0
 74
0
 49
-3.1749999999999998
 74
0
  0
LTYPE
  5
43
100
AcDbSymbolTableRecord
100
AcDbLinetypeTableRecord
  2
ACAD_ISO11W100
 70
0
  3
ISO double-dash dot __ __ . __ __ . __ __ . __ _
 72
65
 73
6
 40
33.0
 49
12.0
 74
0
 49
-3.0
 74
0
 49
12.0
 74
0
 49
-3.0
 74
0
 49
0.0
 74
0
 49
-3.0
 74
0
  0
LTYPE
  5
44
100
AcDbSymbolTableRecord
100
AcDbLinetypeTableRecord
  2
ACAD_ISO03W100
 70
0
  3
ISO dash space __    __    __    __    __    __
 72
65
 73
2
 40
30.0
 49
12.0
 74
0
 49
-18.0
 74
0
  0
LTYPE
  5
45
100
AcDbSymbolTableRecord
100
AcDbLinetypeTableRecord
  2
BORDER2
 70
0
  3
Border (.5x) __.__.__.__.__.__.__.__.__.__.__.
 72
65
 73
6
 40
22.2249999999999979
 49
6.3499999999999996
 74
0
 49
-3.1749999999999998
 74
0
 49
6.3499999999999996
 74
0
 49
-3.1749999999999998
 74
0
 49
0.0
 74
0
 49
-3.1749999999999998
 74
0
  0
LTYPE
  5
46
100
AcDbSymbolTableRecord
100
AcDbLinetypeTableRecord
  2
ACAD_ISO10W100
 70
0
  3
ISO dash dot __ . __ . __ . __ . __ . __ . __ . 
 72
65
 73
4
 40
18.0
 49
12.0
 74
0
 49
-3.0
 74
0
 49
0.0
 74
0
 49
-3.0
 74
0
  0
LTYPE
  5
47
100
AcDbSymbolTableRecord
100
AcDbLinetypeTableRecord
  2
DIVIDE2
 70
0
  3
Divide (.5x) __..__..__..__..__..__..__..__.._
 72
65
 73
6
 40
15.875
 49
6.3499999999999996
 74
0
 49
-3.1749999999999998
 74
0
 49
0.0
 74
0
 49
-3.1749999999999998
 74
0
 49
0.0
 74
0
 49
-3.1749999999999998
 74
0
  0
LTYPE
  5
48
100
AcDbSymbolTableRecord
100
AcDbLinetypeTableRecord
  2
ACAD_ISO02W100
 70
0
  3
ISO dash __ __ __ __ __ __ __ __ __ __ __ __ __
 72
65
 73
2
 40
15.0
 49
12.0
 74
0
 49
-3.0
 74
0
  0
LTYPE
  5
49
100
AcDbSymbolTableRecord
100
AcDbLinetypeTableRecord
  2
PHANTOMX2
 70
0
  3
Phantom (2x) ____________    ____    ____   _
 72
65
 73
6
 40
127.0000000000000142
 49
63.5
 74
0
 49
-12.6999999999999993
 74
0
 49
12.6999999999999993
 74
0
 49
-12.6999999999999993
 74
0
 49
12.6999999999999993
 74
0
 49
-12.6999999999999993
 74
0
  0
LTYPE
  5
4A
100
AcDbSymbolTableRecord
100
AcDbLinetypeTableRecord
  2
DOTX2
 70
0
  3
Dot (2x) .  .  .  .  .  .  .  .  .  .  .  .  .  .
 72
65
 73
2
 40
12.6999999999999993
 49
0.0
 74
0
 49
-12.6999999999999993
 74
0
  0
LTYPE
  5
4B
100
AcDbSymbolTableRecord
100
AcDbLinetypeTableRecord
  2
HIDDEN2
 70
0
  3
Hidden (.5x) _ _ _ _ _ _ _ _ _ _ _ _ _ _ _ _ _ 
 72
65
 73
2
 40
4.7624999999999993
 49
3.1749999999999998
 74
0
 49
-1.5874999999999999
 74
0
  0
LTYPE
  5
4C
100
AcDbSymbolTableRecord
100
AcDbLinetypeTableRecord
  2
CENTERX2
 70
0
  3
Center (2x) ________  __  ________  __  _____
 72
65
 73
4
 40
101.6000000000000085
 49
63.5
 74
0
 49
-12.6999999999999993
 74
0
 49
12.6999999999999993
 74
0
 49
-12.6999999999999993
 74
0
  0
LTYPE
  5
14
100
AcDbSymbolTableRecord
100
AcDbLinetypeTableRecord
  2
BYBLOCK
 70
0
  3

 72
65
 73
0
 40
0.0
  0
LTYPE
  5
4D
100
AcDbSymbolTableRecord
100
AcDbLinetypeTableRecord
  2
ACAD_ISO09W100
 70
0
  3
ISO long-dash double-short-dash ____ __ __ ____
 72
65
 73
6
 40
45.0
 49
24.0
 74
0
 49
-3.0
 74
0
 49
6.0
 74
0
 49
-3.0
 74
0
 49
6.0
 74
0
 49
-3.0
 74
0
  0
LTYPE
  5
4E
100
AcDbSymbolTableRecord
100
AcDbLinetypeTableRecord
  2
DOT
 70
0
  3
Dot . . . . . . . . . . . . . . . . . . . . . . . .
 72
65
 73
2
 40
6.3499999999999996
 49
0.0
 74
0
 49
-6.3499999999999996
 74
0
  0
LTYPE
  5
4F
100
AcDbSymbolTableRecord
100
AcDbLinetypeTableRecord
  2
BORDERX2
 70
0
  3
Border (2x) ____  ____  .  ____  ____  .  ___
 72
65
 73
6
 40
88.8999999999999915
 49
25.3999999999999986
 74
0
 49
-12.6999999999999993
 74
0
 49
25.3999999999999986
 74
0
 49
-12.6999999999999993
 74
0
 49
0.0
 74
0
 49
-12.6999999999999993
 74
0
  0
LTYPE
  5
50
100
AcDbSymbolTableRecord
100
AcDbLinetypeTableRecord
  2
CENTER
 70
0
  3
Center ____ _ ____ _ ____ _ ____ _ ____ _ ____
 72
65
 73
4
 40
50.8000000000000043
 49
31.75
 74
0
 49
-6.3499999999999996
 74
0
 49
6.3499999999999996
 74
0
 49
-6.3499999999999996
 74
0
  0
LTYPE
  5
51
100
AcDbSymbolTableRecord
100
AcDbLinetypeTableRecord
  2
DIVIDE
 70
0
  3
Divide ____ . . ____ . . ____ . . ____ . . ____
 72
65
 73
6
 40
31.75
 49
12.6999999999999993
 74
0
 49
-6.3499999999999996
 74
0
 49
0.0
 74
0
 49
-6.3499999999999996
 74
0
 49
0.0
 74
0
 49
-6.3499999999999996
 74
0
  0
LTYPE
  5
52
100
AcDbSymbolTableRecord
100
AcDbLinetypeTableRecord
  2
ACAD_ISO08W100
 70
0
  3
ISO long-dash short-dash ____ __ ____ __ ____ _
 72
65
 73
4
 40
36.0
 49
24.0
 74
0
 49
-3.0
 74
0
 49
6.0
 74
0
 49
-3.0
 74
0
  0
LTYPE
  5
53
100
AcDbSymbolTableRecord
100
AcDbLinetypeTableRecord
  2
DASHED
 70
0
  3
Dashed __ __ __ __ __ __ __ __ __ __ __ __ __ _
 72
65
 73
2
 40
19.0499999999999972
 49
12.6999999999999993
 74
0
 49
-6.3499999999999996
 74
0
  0
LTYPE
  5
54
100
AcDbSymbolTableRecord
100
AcDbLinetypeTableRecord
  2
PHANTOM2
 70
0
  3
Phantom (.5x) ___ _ _ ___ _ _ ___ _ _ ___ _ _
 72
65
 73
6
 40
31.7500000000000036
 49
15.875
 74
0
 49
-3.1749999999999998
 74
0
 49
3.1749999999999998
 74
0
 49
-3.1749999999999998
 74
0
 49
3.1749999999999998
 74
0
 49
-3.1749999999999998
 74
0
  0
LTYPE
  5
55
100
AcDbSymbolTableRecord
100
AcDbLinetypeTableRecord
  2
DASHED2
 70
0
  3
Dashed (.5x) _ _ _ _ _ _ _ _ _ _ _ _ _ _ _ _ _ 
 72
65
 73
2
 40
9.5249999999999986
 49
6.3499999999999996
 74
0
 49
-3.1749999999999998
 74
0
  0
LTYPE
  5
56
100
AcDbSymbolTableRecord
100
AcDbLinetypeTableRecord
  2
ACAD_ISO15W100
 70
0
  3
ISO double-dash triple-dot __ __ . . . __ __ . .
 72
65
 73
10
 40
39.0
 49
12.0
 74
0
 49
-3.0
 74
0
 49
12.0
 74
0
 49
-3.0
 74
0
 49
0.0
 74
0
 49
-3.0
 74
0
 49
0.0
 74
0
 49
-3.0
 74
0
 49
0.0
 74
0
 49
-3.0
 74
0
  0
ENDTAB
  0
TABLE
  2
LAYER
  5
2
100
AcDbSymbolTable
 70
1
  0
LAYER
  5
10
100
AcDbSymbolTableRecord
100
AcDbLayerTableRecord
  2
0
 70
0
 62
7
420
16777215
  6
Continuous
370
5
390
F
  0
ENDTAB
  0
TABLE
  2
STYLE
  5
3
100
AcDbSymbolTable
 70
1
  0
STYLE
  5
57
100
AcDbSymbolTableRecord
100
AcDbTextStyleTableRecord
  2
Standard
 70
0
 40
0.0
 41
1.0
 50
0.0
 71
0
 42
2.5
  3

  4

1001
ACAD
1000
txt
1071
0
  0
ENDTAB
  0
TABLE
  2
VIEW
  5
6
100
AcDbSymbolTable
 70
0
  0
ENDTAB
  0
TABLE
  2
UCS
  5
7
100
AcDbSymbolTable
 70
0
  0
ENDTAB
  0
TABLE
  2
APPID
  5
9
100
AcDbSymbolTable
 70
1
  0
APPID
  5
12
100
AcDbSymbolTableRecord
100
AcDbRegAppTableRecord
  2
ACAD
 70
0
  0
APPID
  5
58
100
AcDbSymbolTableRecord
100
AcDbRegAppTableRecord
  2
QCAD
 70
0
  0
ENDTAB
  0
TABLE
  2
DIMSTYLE
  5
A
100
AcDbSymbolTable
 70
1
100
AcDbDimStyleTable
 71
0
  0
DIMSTYLE
105
27
100
AcDbSymbolTableRecord
100
AcDbDimStyleTableRecord
  2
Standard
 41
0.18
 42
0.0625
 43
3.75
 44
0.18
 70
0
 73
0
 74
0
 77
1
 78
8
140
0.18
141
2.5
143
0.03937007874016
147
0.09
171
3
172
1
271
2
272
2
274
3
278
44
283
0
284
8
340
57
  0
ENDTAB
  0
TABLE
  2
BLOCK_RECORD
  5
1
100
AcDbSymbolTable
 70
1
  0
BLOCK_RECORD
  5
1F
100
AcDbSymbolTableRecord
100
AcDbBlockTableRecord
  2
*Model_Space
340
22
  0
BLOCK_RECORD
  5
1B
100
AcDbSymbolTableRecord
100
AcDbBlockTableRecord
  2
*Paper_Space
340
1E
  0
BLOCK_RECORD
  5
23
100
AcDbSymbolTableRecord
100
AcDbBlockTableRecord
  2
*Paper_Space0
340
26
  0
ENDTAB
  0
ENDSEC
  0
SECTION
  2
BLOCKS
  0
BLOCK
  5
20
100
AcDbEntity
  8
0
100
AcDbBlockBegin
  2
*Model_Space
 70
0
 10
0.0
 20
0.0
 30
0.0
  3
*Model_Space
  1

  0
ENDBLK
  5
21
100
AcDbEntity
  8
0
100
AcDbBlockEnd
  0
BLOCK
  5
1C
100
AcDbEntity
 67
1
  8
0
100
AcDbBlockBegin
  2
*Paper_Space
 70
0
 10
0.0
 20
0.0
 30
0.0
  3
*Paper_Space
  1

  0
ENDBLK
  5
1D
100
AcDbEntity
 67
1
  8
0
100
AcDbBlockEnd
  0
BLOCK
  5
24
100
AcDbEntity
  8
0
100
AcDbBlockBegin
  2
*Paper_Space0
 70
0
 10
0.0
 20
0.0
 30
0.0
  3
*Paper_Space0
  1

  0
ENDBLK
  5
25
100
AcDbEntity
  8
0
100
AcDbBlockEnd
  0
ENDSEC
  0
SECTION
  2
ENTITIES
  0
LINE
  5
59
100
AcDbEntity
  8
0
 62
0
370
-1
 48
1.0
  6
BYLAYER
100
AcDbLine
 10
245.2450000000000045
 20
76.2801000000000045
 30
0.0
 11
245.4420000000000073
 21
76.2729999999999961
 31
0.0
  0
LINE
  5
5A
100
AcDbEntity
  8
0
 62
0
370
-1
 48
1.0
  6
BYLAYER
100
AcDbLine
 10
245.4420000000000073
 20
76.2729999999999961
 30
0.0
 11
245.6370000000000005
 21
76.2497000000000043
 31
0.0
  0
LINE
  5
5B
100
AcDbEntity
  8
0
 62
0
370
-1
 48
1.0
  6
BYLAYER
100
AcDbLine
 10
245.6370000000000005
 20
76.2497000000000043
 30
0.0
 11
245.828000000000003
 21
76.2108999999999952
 31
0.0
  0
LINE
  5
5C
100
AcDbEntity
  8
0
 62
0
370
-1
 48
1.0
  6
BYLAYER
100
AcDbLine
 10
245.828000000000003
 20
76.2108999999999952
 30
0.0
 11
246.0180000000000007
 21
76.1586999999999961
 31
0.0
  0
LINE
  5
5D
100
AcDbEntity
  8
0
 62
0
370
-1
 48
1.0
  6
BYLAYER
100
AcDbLine
 10
246.0180000000000007
 20
76.1586999999999961
 30
0.0
 11
246.2019999999999982
 21
76.0899000000000001
 31
0.0
  0
LINE
  5
5E
100
AcDbEntity
  8
0
 62
0
370
-1
 48
1.0
  6
BYLAYER
100
AcDbLine
 10
246.2019999999999982
 20
76.0899000000000001
 30
0.0
 11
246.3789999999999907
 21
76.0083999999999946
 31
0.0
  0
LINE
  5
5F
100
AcDbEntity
  8
0
 62
0
370
-1
 48
1.0
  6
BYLAYER
100
AcDbLine
 10
246.3789999999999907
 20
76.0083999999999946
 30
0.0
 11
246.5519999999999925
 21
75.9120999999999952
 31
0.0
  0
LINE
  5
60
100
AcDbEntity
  8
0
 62
0
370
-1
 48
1.0
  6
BYLAYER
100
AcDbLine
 10
246.5519999999999925
 20
75.9120999999999952
 30
0.0
 11
246.7139999999999986
 21
75.8031000000000006
 31
0.0
  0
LINE
  5
61
100
AcDbEntity
  8
0
 62
0
370
-1
 48
1.0
  6
BYLAYER
100
AcDbLine
 10
246.7139999999999986
 20
75.8031000000000006
 30
0.0
 11
246.8689999999999998
 21
75.6817999999999955
 31
0.0
  0
LINE
  5
62
100
AcDbEntity
  8
0
 62
0
370
-1
 48
1.0
  6
BYLAYER
100
AcDbLine
 10
246.8689999999999998
 20
75.6817999999999955
 30
0.0
 11
247.0130000000000052
 21
75.5481000000000051
 31
0.0
  0
LINE
  5
63
100
AcDbEntity
  8
0
 62
0
370
-1
 48
1.0
  6
BYLAYER
100
AcDbLine
 10
247.0130000000000052
 20
75.5481000000000051
 30
0.0
 11
247.1469999999999914
 21
75.4047999999999945
 31
0.0
  0
LINE
  5
64
100
AcDbEntity
  8
0
 62
0
370
-1
 48
1.0
  6
BYLAYER
100
AcDbLine
 10
247.1469999999999914
 20
75.4047999999999945
 30
0.0
 11
247.2680000000000007
 21
75.2506999999999948
 31
0.0
  0
LINE
  5
65
100
AcDbEntity
  8
0
 62
0
370
-1
 48
1.0
  6
BYLAYER
100
AcDbLine
 10
247.2680000000000007
 20
75.2506999999999948
 30
0.0
 11
247.3770000000000095
 21
75.0879999999999939
 31
0.0
  0
LINE
  5
66
100
AcDbEntity
  8
0
 62
0
370
-1
 48
1.0
  6
BYLAYER
100
AcDbLine
 10
247.3770000000000095
 20
75.0879999999999939
 30
0.0
 11
247.4720000000000084
 21
74.9154999999999944
 31
0.0
  0
LINE
  5
67
100
AcDbEntity
  8
0
 62
0
370
-1
 48
1.0
  6
BYLAYER
100
AcDbLine
 10
247.4720000000000084
 20
74.9154999999999944
 30
0.0
 11
247.5550000000000068
 21
74.7377000000000038
 31
0.0
  0
LINE
  5
68
100
AcDbEntity
  8
0
 62
0
370
-1
 48
1.0
  6
BYLAYER
100
AcDbLine
 10
247.5550000000000068
 20
74.7377000000000038
 30
0.0
 11
247.6220000000000141
 21
74.5532000000000039
 31
0.0
  0
LINE
  5
69
100
AcDbEntity
  8
0
 62
0
370
-1
 48
1.0
  6
BYLAYER
100
AcDbLine
 10
247.6220000000000141
 20
74.5532000000000039
 30
0.0
 11
247.6759999999999877
 21
74.3645000000000067
 31
0.0
  0
LINE
  5
6A
100
AcDbEntity
  8
0
 62
0
370
-1
 48
1.0
  6
BYLAYER
100
AcDbLine
 10
247.6759999999999877
 20
74.3645000000000067
 30
0.0
 11
247.7150000000000034
 21
74.1728999999999985
 31
0.0
  0
LINE
  5
6B
100
AcDbEntity
  8
0
 62
0
370
-1
 48
1.0
  6
BYLAYER
100
AcDbLine
 10
247.7150000000000034
 20
74.1728999999999985
 30
0.0
 11
247.7379999999999995
 21
73.977099999999993
 31
0.0
  0
LINE
  5
6C
100
AcDbEntity
  8
0
 62
0
370
-1
 48
1.0
  6
BYLAYER
100
AcDbLine
 10
247.7379999999999995
 20
73.977099999999993
 30
0.0
 11
247.7450000000000045
 21
73.7802999999999969
 31
0.0
  0
LINE
  5
6D
100
AcDbEntity
  8
0
 62
0
370
-1
 48
1.0
  6
BYLAYER
100
AcDbLine
 10
247.7450000000000045
 20
73.7802999999999969
 30
0.0
 11
247.7450000000000045
 21
2.5796899999999998
 31
0.0
  0
LINE
  5
6E
100
AcDbEntity
  8
0
 62
0
370
-1
 48
1.0
  6
BYLAYER
100
AcDbLine
 10
247.7450000000000045
 20
2.5796899999999998
 30
0.0
 11
247.7379999999999995
 21
2.3826299999999998
 31
0.0
  0
LINE
  5
6F
100
AcDbEntity
  8
0
 62
0
370
-1
 48
1.0
  6
BYLAYER
100
AcDbLine
 10
247.7379999999999995
 20
2.3826299999999998
 30
0.0
 11
247.7150000000000034
 21
2.1883300000000001
 31
0.0
  0
LINE
  5
70
100
AcDbEntity
  8
0
 62
0
370
-1
 48
1.0
  6
BYLAYER
100
AcDbLine
 10
247.7150000000000034
 20
2.1883300000000001
 30
0.0
 11
247.6759999999999877
 21
1.99678
 31
0.0
  0
LINE
  5
71
100
AcDbEntity
  8
0
 62
0
370
-1
 48
1.0
  6
BYLAYER
100
AcDbLine
 10
247.6759999999999877
 20
1.99678
 30
0.0
 11
247.6220000000000141
 21
1.80661
 31
0.0
  0
LINE
  5
72
100
AcDbEntity
  8
0
 62
0
370
-1
 48
1.0
  6
BYLAYER
100
AcDbLine
 10
247.6220000000000141
 20
1.80661
 30
0.0
 11
247.5550000000000068
 21
1.6233299999999999
 31
0.0
  0
LINE
  5
73
100
AcDbEntity
  8
0
 62
0
370
-1
 48
1.0
  6
BYLAYER
100
AcDbLine
 10
247.5550000000000068
 20
1.6233299999999999
 30
0.0
 11
247.4720000000000084
 21
1.44556
 31
0.0
  0
LINE
  5
74
100
AcDbEntity
  8
0
 62
0
370
-1
 48
1.0
  6
BYLAYER
100
AcDbLine
 10
247.4720000000000084
 20
1.44556
 30
0.0
 11
247.3770000000000095
 21
1.2733099999999999
 31
0.0
  0
LINE
  5
75
100
AcDbEntity
  8
0
 62
0
370
-1
 48
1.0
  6
BYLAYER
100
AcDbLine
 10
247.3770000000000095
 20
1.2733099999999999
 30
0.0
 11
247.2680000000000007
 21
1.1107
 31
0.0
  0
LINE
  5
76
100
AcDbEntity
  8
0
 62
0
370
-1
 48
1.0
  6
BYLAYER
100
AcDbLine
 10
247.2680000000000007
 20
1.1107
 30
0.0
 11
247.1469999999999914
 21
0.956359
 31
0.0
  0
LINE
  5
77
100
AcDbEntity
  8
0
 62
0
370
-1
 48
1.0
  6
BYLAYER
100
AcDbLine
 10
247.1469999999999914
 20
0.956359
 30
0.0
 11
247.0130000000000052
 21
0.8116640000000001
 31
0.0
  0
LINE
  5
78
100
AcDbEntity
  8
0
 62
0
370
-1
 48
1.0
  6
BYLAYER
100
AcDbLine
 10
247.0130000000000052
 20
0.8116640000000001
 30
0.0
 11
246.8689999999999998
 21
0.677997
 31
0.0
  0
LINE
  5
79
100
AcDbEntity
  8
0
 62
0
370
-1
 48
1.0
  6
BYLAYER
100
AcDbLine
 10
246.8689999999999998
 20
0.677997
 30
0.0
 11
246.7139999999999986
 21
0.556729
 31
0.0
  0
LINE
  5
7A
100
AcDbEntity
  8
0
 62
0
370
-1
 48
1.0
  6
BYLAYER
100
AcDbLine
 10
246.7139999999999986
 20
0.556729
 30
0.0
 11
246.5519999999999925
 21
0.447862
 31
0.0
  0
LINE
  5
7B
100
AcDbEntity
  8
0
 62
0
370
-1
 48
1.0
  6
BYLAYER
100
AcDbLine
 10
246.5519999999999925
 20
0.447862
 30
0.0
 11
246.3789999999999907
 21
0.352778
 31
0.0
  0
LINE
  5
7C
100
AcDbEntity
  8
0
 62
0
370
-1
 48
1.0
  6
BYLAYER
100
AcDbLine
 10
246.3789999999999907
 20
0.352778
 30
0.0
 11
246.2019999999999982
 21
0.270095
 31
0.0
  0
LINE
  5
7D
100
AcDbEntity
  8
0
 62
0
370
-1
 48
1.0
  6
BYLAYER
100
AcDbLine
 10
246.2019999999999982
 20
0.270095
 30
0.0
 11
246.0180000000000007
 21
0.202572
 31
0.0
  0
LINE
  5
7E
100
AcDbEntity
  8
0
 62
0
370
-1
 48
1.0
  6
BYLAYER
100
AcDbLine
 10
246.0180000000000007
 20
0.202572
 30
0.0
 11
245.828000000000003
 21
0.148828
 31
0.0
  0
LINE
  5
7F
100
AcDbEntity
  8
0
 62
0
370
-1
 48
1.0
  6
BYLAYER
100
AcDbLine
 10
245.828000000000003
 20
0.148828
 30
0.0
 11
245.6370000000000005
 21
0.110243
 31
0.0
  0
LINE
  5
80
100
AcDbEntity
  8
0
 62
0
370
-1
 48
1.0
  6
BYLAYER
100
AcDbLine
 10
245.6370000000000005
 20
0.110243
 30
0.0
 11
245.4420000000000073
 21
0.0868165
 31
0.0
  0
LINE
  5
81
100
AcDbEntity
  8
0
 62
0
370
-1
 48
1.0
  6
BYLAYER
100
AcDbLine
 10
245.4420000000000073
 20
0.0868165
 30
0.0
 11
245.2450000000000045
 21
0.0799264
 31
0.0
  0
LINE
  5
82
100
AcDbEntity
  8
0
 62
0
370
-1
 48
1.0
  6
BYLAYER
100
AcDbLine
 10
245.2450000000000045
 20
0.0799264
 30
0.0
 11
2.5948500000000001
 21
0.0799264
 31
0.0
  0
LINE
  5
83
100
AcDbEntity
  8
0
 62
0
370
-1
 48
1.0
  6
BYLAYER
100
AcDbLine
 10
2.5948500000000001
 20
0.0799264
 30
0.0
 11
2.3977900000000001
 21
0.0868165
 31
0.0
  0
LINE
  5
84
100
AcDbEntity
  8
0
 62
0
370
-1
 48
1.0
  6
BYLAYER
100
AcDbLine
 10
2.3977900000000001
 20
0.0868165
 30
0.0
 11
2.2021099999999998
 21
0.110243
 31
0.0
  0
LINE
  5
85
100
AcDbEntity
  8
0
 62
0
370
-1
 48
1.0
  6
BYLAYER
100
AcDbLine
 10
2.2021099999999998
 20
0.110243
 30
0.0
 11
2.0105599999999999
 21
0.148828
 31
0.0
  0
LINE
  5
86
100
AcDbEntity
  8
0
 62
0
370
-1
 48
1.0
  6
BYLAYER
100
AcDbLine
 10
2.0105599999999999
 20
0.148828
 30
0.0
 11
1.8217699999999999
 21
0.202572
 31
0.0
  0
LINE
  5
87
100
AcDbEntity
  8
0
 62
0
370
-1
 48
1.0
  6
BYLAYER
100
AcDbLine
 10
1.8217699999999999
 20
0.202572
 30
0.0
 11
1.6371100000000001
 21
0.270095
 31
0.0
  0
LINE
  5
88
100
AcDbEntity
  8
0
 62
0
370
-1
 48
1.0
  6
BYLAYER
100
AcDbLine
 10
1.6371100000000001
 20
0.270095
 30
0.0
 11
1.4593400000000001
 21
0.352778
 31
0.0
  0
LINE
  5
89
100
AcDbEntity
  8
0
 62
0
370
-1
 48
1.0
  6
BYLAYER
100
AcDbLine
 10
1.4593400000000001
 20
0.352778
 30
0.0
 11
1.2870900000000001
 21
0.447862
 31
0.0
  0
LINE
  5
8A
100
AcDbEntity
  8
0
 62
0
370
-1
 48
1.0
  6
BYLAYER
100
AcDbLine
 10
1.2870900000000001
 20
0.447862
 30
0.0
 11
1.1244799999999999
 21
0.556729
 31
0.0
  0
LINE
  5
8B
100
AcDbEntity
  8
0
 62
0
370
-1
 48
1.0
  6
BYLAYER
100
AcDbLine
 10
1.1244799999999999
 20
0.556729
 30
0.0
 11
0.970139
 21
0.677997
 31
0.0
  0
LINE
  5
8C
100
AcDbEntity
  8
0
 62
0
370
-1
 48
1.0
  6
BYLAYER
100
AcDbLine
 10
0.970139
 20
0.677997
 30
0.0
 11
0.826823
 21
0.8116640000000001
 31
0.0
  0
LINE
  5
8D
100
AcDbEntity
  8
0
 62
0
370
-1
 48
1.0
  6
BYLAYER
100
AcDbLine
 10
0.826823
 20
0.8116640000000001
 30
0.0
 11
0.693152
 21
0.956359
 31
0.0
  0
LINE
  5
8E
100
AcDbEntity
  8
0
 62
0
370
-1
 48
1.0
  6
BYLAYER
100
AcDbLine
 10
0.693152
 20
0.956359
 30
0.0
 11
0.571885
 21
1.1107
 31
0.0
  0
LINE
  5
8F
100
AcDbEntity
  8
0
 62
0
370
-1
 48
1.0
  6
BYLAYER
100
AcDbLine
 10
0.571885
 20
1.1107
 30
0.0
 11
0.463021
 21
1.2733099999999999
 31
0.0
  0
LINE
  5
90
100
AcDbEntity
  8
0
 62
0
370
-1
 48
1.0
  6
BYLAYER
100
AcDbLine
 10
0.463021
 20
1.2733099999999999
 30
0.0
 11
0.366557
 21
1.44556
 31
0.0
  0
LINE
  5
91
100
AcDbEntity
  8
0
 62
0
370
-1
 48
1.0
  6
BYLAYER
100
AcDbLine
 10
0.366557
 20
1.44556
 30
0.0
 11
0.285254
 21
1.6233299999999999
 31
0.0
  0
LINE
  5
92
100
AcDbEntity
  8
0
 62
0
370
-1
 48
1.0
  6
BYLAYER
100
AcDbLine
 10
0.285254
 20
1.6233299999999999
 30
0.0
 11
0.216352
 21
1.80661
 31
0.0
  0
LINE
  5
93
100
AcDbEntity
  8
0
 62
0
370
-1
 48
1.0
  6
BYLAYER
100
AcDbLine
 10
0.216352
 20
1.80661
 30
0.0
 11
0.163987
 21
1.99678
 31
0.0
  0
LINE
  5
94
100
AcDbEntity
  8
0
 62
0
370
-1
 48
1.0
  6
BYLAYER
100
AcDbLine
 10
0.163987
 20
1.99678
 30
0.0
 11
0.125402
 21
2.1883300000000001
 31
0.0
  0
LINE
  5
95
100
AcDbEntity
  8
0
 62
0
370
-1
 48
1.0
  6
BYLAYER
100
AcDbLine
 10
0.125402
 20
2.1883300000000001
 30
0.0
 11
0.101975
 21
2.3826299999999998
 31
0.0
  0
LINE
  5
96
100
AcDbEntity
  8
0
 62
0
370
-1
 48
1.0
  6
BYLAYER
100
AcDbLine
 10
0.101975
 20
2.3826299999999998
 30
0.0
 11
0.0937066
 21
2.5796899999999998
 31
0.0
  0
LINE
  5
97
100
AcDbEntity
  8
0
 62
0
370
-1
 48
1.0
  6
BYLAYER
100
AcDbLine
 10
0.0937066
 20
2.5796899999999998
 30
0.0
 11
0.0950846
 21
73.7802999999999969
 31
0.0
  0
LINE
  5
98
100
AcDbEntity
  8
0
 62
0
370
-1
 48
1.0
  6
BYLAYER
100
AcDbLine
 10
0.0950846
 20
73.7802999999999969
 30
0.0
 11
0.101975
 21
73.977099999999993
 31
0.0
  0
LINE
  5
99
100
AcDbEntity
  8
0
 62
0
370
-1
 48
1.0
  6
BYLAYER
100
AcDbLine
 10
0.101975
 20
73.977099999999993
 30
0.0
 11
0.125402
 21
74.1728999999999985
 31
0.0
  0
LINE
  5
9A
100
AcDbEntity
  8
0
 62
0
370
-1
 48
1.0
  6
BYLAYER
100
AcDbLine
 10
0.125402
 20
74.1728999999999985
 30
0.0
 11
0.163987
 21
74.3645000000000067
 31
0.0
  0
LINE
  5
9B
100
AcDbEntity
  8
0
 62
0
370
-1
 48
1.0
  6
BYLAYER
100
AcDbLine
 10
0.163987
 20
74.3645000000000067
 30
0.0
 11
0.216352
 21
74.5532000000000039
 31
0.0
  0
LINE
  5
9C
100
AcDbEntity
  8
0
 62
0
370
-1
 48
1.0
  6
BYLAYER
100
AcDbLine
 10
0.216352
 20
74.5532000000000039
 30
0.0
 11
0.285254
 21
74.7377000000000038
 31
0.0
  0
LINE
  5
9D
100
AcDbEntity
  8
0
 62
0
370
-1
 48
1.0
  6
BYLAYER
100
AcDbLine
 10
0.285254
 20
74.7377000000000038
 30
0.0
 11
0.366557
 21
74.9154999999999944
 31
0.0
  0
LINE
  5
9E
100
AcDbEntity
  8
0
 62
0
370
-1
 48
1.0
  6
BYLAYER
100
AcDbLine
 10
0.366557
 20
74.9154999999999944
 30
0.0
 11
0.463021
 21
75.0879999999999939
 31
0.0
  0
LINE
  5
9F
100
AcDbEntity
  8
0
 62
0
370
-1
 48
1.0
  6
BYLAYER
100
AcDbLine
 10
0.463021
 20
75.0879999999999939
 30
0.0
 11
0.571885
 21
75.2506999999999948
 31
0.0
  0
LINE
  5
A0
100
AcDbEntity
  8
0
 62
0
370
-1
 48
1.0
  6
BYLAYER
100
AcDbLine
 10
0.571885
 20
75.2506999999999948
 30
0.0
 11
0.693152
 21
75.4047999999999945
 31
0.0
  0
LINE
  5
A1
100
AcDbEntity
  8
0
 62
0
370
-1
 48
1.0
  6
BYLAYER
100
AcDbLine
 10
0.693152
 20
75.4047999999999945
 30
0.0
 11
0.826823
 21
75.5481000000000051
 31
0.0
  0
LINE
  5
A2
100
AcDbEntity
  8
0
 62
0
370
-1
 48
1.0
  6
BYLAYER
100
AcDbLine
 10
0.826823
 20
75.5481000000000051
 30
0.0
 11
0.970139
 21
75.6817999999999955
 31
0.0
  0
LINE
  5
A3
100
AcDbEntity
  8
0
 62
0
370
-1
 48
1.0
  6
BYLAYER
100
AcDbLine
 10
0.970139
 20
75.6817999999999955
 30
0.0
 11
1.1244799999999999
 21
75.8031000000000006
 31
0.0
  0
LINE
  5
A4
100
AcDbEntity
  8
0
 62
0
370
-1
 48
1.0
  6
BYLAYER
100
AcDbLine
 10
1.1244799999999999
 20
75.8031000000000006
 30
0.0
 11
1.2870900000000001
 21
75.9120999999999952
 31
0.0
  0
LINE
  5
A5
100
AcDbEntity
  8
0
 62
0
370
-1
 48
1.0
  6
BYLAYER
100
AcDbLine
 10
1.2870900000000001
 20
75.9120999999999952
 30
0.0
 11
1.4593400000000001
 21
76.0083999999999946
 31
0.0
  0
LINE
  5
A6
100
AcDbEntity
  8
0
 62
0
370
-1
 48
1.0
  6
BYLAYER
100
AcDbLine
 10
1.4593400000000001
 20
76.0083999999999946
 30
0.0
 11
1.6371100000000001
 21
76.0899000000000001
 31
0.0
  0
LINE
  5
A7
100
AcDbEntity
  8
0
 62
0
370
-1
 48
1.0
  6
BYLAYER
100
AcDbLine
 10
1.6371100000000001
 20
76.0899000000000001
 30
0.0
 11
1.8217699999999999
 21
76.1586999999999961
 31
0.0
  0
LINE
  5
A8
100
AcDbEntity
  8
0
 62
0
370
-1
 48
1.0
  6
BYLAYER
100
AcDbLine
 10
1.8217699999999999
 20
76.1586999999999961
 30
0.0
 11
2.0105599999999999
 21
76.2108999999999952
 31
0.0
  0
LINE
  5
A9
100
AcDbEntity
  8
0
 62
0
370
-1
 48
1.0
  6
BYLAYER
100
AcDbLine
 10
2.0105599999999999
 20
76.2108999999999952
 30
0.0
 11
2.2021099999999998
 21
76.2497000000000043
 31
0.0
  0
LINE
  5
AA
100
AcDbEntity
  8
0
 62
0
370
-1
 48
1.0
  6
BYLAYER
100
AcDbLine
 10
2.2021099999999998
 20
76.2497000000000043
 30
0.0
 11
2.3977900000000001
 21
76.2729999999999961
 31
0.0
  0
LINE
  5
AB
100
AcDbEntity
  8
0
 62
0
370
-1
 48
1.0
  6
BYLAYER
100
AcDbLine
 10
2.3977900000000001
 20
76.2729999999999961
 30
0.0
 11
2.5948500000000001
 21
76.281099999999995
 31
0.0
  0
LINE
  5
AC
100
AcDbEntity
  8
0
 62
0
370
-1
 48
1.0
  6
BYLAYER
100
AcDbLine
 10
2.5948500000000001
 20
76.281099999999995
 30
0.0
 11
245.2450000000000045
 21
76.2801000000000045
 31
0.0
  0
LINE
  5
AD
100
AcDbEntity
  8
0
 62
0
370
-1
 48
1.0
  6
BYLAYER
100
AcDbLine
 10
116.1200000000000045
 20
12.5056999999999974
 30
0.0
 11
116.9200000000000159
 21
12.5056999999999974
 31
0.0
  0
LINE
  5
AE
100
AcDbEntity
  8
0
 62
0
370
-1
 48
1.0
  6
BYLAYER
100
AcDbLine
 10
116.9200000000000159
 20
12.5056999999999974
 30
0.0
 11
116.9200000000000159
 21
6.705529999999996
 31
0.0
  0
LINE
  5
AF
100
AcDbEntity
  8
0
 62
0
370
-1
 48
1.0
  6
BYLAYER
100
AcDbLine
 10
116.9200000000000159
 20
6.705529999999996
 30
0.0
 11
116.1200000000000045
 21
6.705529999999996
 31
0.0
  0
LINE
  5
B0
100
AcDbEntity
  8
0
 62
0
370
-1
 48
1.0
  6
BYLAYER
100
AcDbLine
 10
116.1193850000000225
 20
2.605914999999996
 30
0.0
 11
148.3886149999999873
 21
2.605914999999996
 31
0.0
  0
LINE
  5
B1
100
AcDbEntity
  8
0
 62
0
370
-1
 48
1.0
  6
BYLAYER
100
AcDbLine
 10
148.9875000000014893
 20
16.6053150000000009
 30
0.0
 11
132.1874999999999147
 21
16.6053149999999974
 31
0.0
  0
LINE
  5
B2
100
AcDbEntity
  8
0
 62
0
370
-1
 48
1.0
  6
BYLAYER
100
AcDbLine
 10
125.1875000000014779
 20
16.6053149999999974
 30
0.0
 11
116.1193850000000225
 21
16.6053149999999974
 31
0.0
  0
LINE
  5
B3
100
AcDbEntity
  8
0
 62
0
370
-1
 48
1.0
  6
BYLAYER
100
AcDbLine
 10
4.2002800000000002
 20
12.5056999999999992
 30
0.0
 11
5.0009100000000002
 21
12.5056999999999992
 31
0.0
  0
LINE
  5
B4
100
AcDbEntity
  8
0
 62
0
370
-1
 48
1.0
  6
BYLAYER
100
AcDbLine
 10
5.0009100000000002
 20
12.5056999999999992
 30
0.0
 11
5.0009100000000002
 21
6.7055300000000004
 31
0.0
  0
LINE
  5
B5
100
AcDbEntity
  8
0
 62
0
370
-1
 48
1.0
  6
BYLAYER
100
AcDbLine
 10
5.0009100000000002
 20
6.7055300000000004
 30
0.0
 11
4.2002800000000002
 21
6.7055300000000004
 31
0.0
  0
LINE
  5
B6
100
AcDbEntity
  8
0
 62
0
370
-1
 48
1.0
  6
BYLAYER
100
AcDbLine
 10
4.2002949999999997
 20
2.6059149999999995
 30
0.0
 11
22.182314999999992
 21
2.6059149999999924
 31
0.0
  0
LINE
  5
B7
100
AcDbEntity
  8
0
 62
0
370
-1
 48
1.0
  6
BYLAYER
100
AcDbLine
 10
22.1823000000000015
 20
6.705529999999996
 30
0.0
 11
21.3816999999999986
 21
6.705529999999996
 31
0.0
  0
LINE
  5
B8
100
AcDbEntity
  8
0
 62
0
370
-1
 48
1.0
  6
BYLAYER
100
AcDbLine
 10
21.3816999999999986
 20
6.705529999999996
 30
0.0
 11
21.3816999999999986
 21
12.5056999999999974
 31
0.0
  0
LINE
  5
B9
100
AcDbEntity
  8
0
 62
0
370
-1
 48
1.0
  6
BYLAYER
100
AcDbLine
 10
21.3816999999999986
 20
12.5056999999999974
 30
0.0
 11
22.1823000000000015
 21
12.5056999999999974
 31
0.0
  0
LINE
  5
BA
100
AcDbEntity
  8
0
 62
0
370
-1
 48
1.0
  6
BYLAYER
100
AcDbLine
 10
22.182314999999992
 20
16.6053149999999974
 30
0.0
 11
4.2002949999999997
 21
16.6053150000000009
 31
0.0
  0
LINE
  5
BB
100
AcDbEntity
  8
0
 62
0
370
-1
 48
1.0
  6
BYLAYER
100
AcDbLine
 10
25.6314999999999991
 20
12.5056999999999992
 30
0.0
 11
26.4322000000000017
 21
12.5056999999999992
 31
0.0
  0
LINE
  5
BC
100
AcDbEntity
  8
0
 62
0
370
-1
 48
1.0
  6
BYLAYER
100
AcDbLine
 10
26.4322000000000017
 20
12.5056999999999992
 30
0.0
 11
26.4322000000000017
 21
6.7055300000000004
 31
0.0
  0
LINE
  5
BD
100
AcDbEntity
  8
0
 62
0
370
-1
 48
1.0
  6
BYLAYER
100
AcDbLine
 10
26.4322000000000017
 20
6.7055300000000004
 30
0.0
 11
25.6314999999999991
 21
6.7055300000000004
 31
0.0
  0
LINE
  5
BE
100
AcDbEntity
  8
0
 62
0
370
-1
 48
1.0
  6
BYLAYER
100
AcDbLine
 10
25.6315850000000012
 20
2.6059149999999995
 30
0.0
 11
79.3321149999999875
 21
2.605914999999996
 31
0.0
  0
LINE
  5
BF
100
AcDbEntity
  8
0
 62
0
370
-1
 48
1.0
  6
BYLAYER
100
AcDbLine
 10
79.3323000000000036
 20
6.7055300000000004
 30
0.0
 11
79.3321000003109873
 21
6.7055300000000004
 31
0.0
  0
LINE
  5
C0
100
AcDbEntity
  8
0
 62
0
370
-1
 48
1.0
  6
BYLAYER
100
AcDbLine
 10
79.3321000003110157
 20
12.5056999999999992
 30
0.0
 11
79.3323000000000036
 21
12.5056999999999992
 31
0.0
  0
LINE
  5
C1
100
AcDbEntity
  8
0
 62
0
370
-1
 48
1.0
  6
BYLAYER
100
AcDbLine
 10
63.2693500000014808
 20
16.6053150000000009
 30
0.0
 11
25.6315850000000012
 21
16.6053150000000009
 31
0.0
  0
LINE
  5
C2
100
AcDbEntity
  8
0
 62
0
370
-1
 48
1.0
  6
BYLAYER
100
AcDbLine
 10
77.5623000000014713
 20
16.6053150000000009
 30
0.0
 11
70.2693499999999176
 21
16.6053150000000009
 31
0.0
  0
LINE
  5
C3
100
AcDbEntity
  8
0
 62
0
370
-1
 48
1.0
  6
BYLAYER
100
AcDbLine
 10
89.9252000000000038
 20
12.5056999999999992
 30
0.0
 11
90.7259999999999991
 21
12.5056999999999992
 31
0.0
  0
LINE
  5
C4
100
AcDbEntity
  8
0
 62
0
370
-1
 48
1.0
  6
BYLAYER
100
AcDbLine
 10
90.7259999999999991
 20
12.5056999999999992
 30
0.0
 11
90.7259999999999991
 21
6.7055300000000004
 31
0.0
  0
LINE
  5
C5
100
AcDbEntity
  8
0
 62
0
370
-1
 48
1.0
  6
BYLAYER
100
AcDbLine
 10
90.7259999999999991
 20
6.7055300000000004
 30
0.0
 11
89.9252000000000038
 21
6.7055300000000004
 31
0.0
  0
LINE
  5
C6
100
AcDbEntity
  8
0
 62
0
370
-1
 48
1.0
  6
BYLAYER
100
AcDbLine
 10
89.9253850000000057
 20
2.6059149999999995
 30
0.0
 11
105.5256149999999877
 21
2.605914999999996
 31
0.0
  0
LINE
  5
C7
100
AcDbEntity
  8
0
 62
0
370
-1
 48
1.0
  6
BYLAYER
100
AcDbLine
 10
105.5259999999999962
 20
6.7055300000000004
 30
0.0
 11
104.7249999999999943
 21
6.7055300000000004
 31
0.0
  0
LINE
  5
C8
100
AcDbEntity
  8
0
 62
0
370
-1
 48
1.0
  6
BYLAYER
100
AcDbLine
 10
104.7249999999999943
 20
6.7055300000000004
 30
0.0
 11
104.7249999999999943
 21
12.5056999999999992
 31
0.0
  0
LINE
  5
C9
100
AcDbEntity
  8
0
 62
0
370
-1
 48
1.0
  6
BYLAYER
100
AcDbLine
 10
104.7249999999999943
 20
12.5056999999999992
 30
0.0
 11
105.5259999999999962
 21
12.5056999999999992
 31
0.0
  0
LINE
  5
CA
100
AcDbEntity
  8
0
 62
0
370
-1
 48
1.0
  6
BYLAYER
100
AcDbLine
 10
105.5256149999999877
 20
16.6053150000000009
 30
0.0
 11
89.9253850000000057
 21
16.6053150000000009
 31
0.0
  0
LINE
  5
CB
100
AcDbEntity
  8
0
 62
0
370
-1
 48
1.0
  6
BYLAYER
100
AcDbLine
 10
168.5060000000000002
 20
12.5056999999999992
 30
0.0
 11
169.3069999999999879
 21
12.5056999999999992
 31
0.0
  0
LINE
  5
CC
100
AcDbEntity
  8
0
 62
0
370
-1
 48
1.0
  6
BYLAYER
100
AcDbLine
 10
169.3069999999999879
 20
12.5056999999999992
 30
0.0
 11
169.3069999999999879
 21
6.7055300000000004
 31
0.0
  0
LINE
  5
CD
100
AcDbEntity
  8
0
 62
0
370
-1
 48
1.0
  6
BYLAYER
100
AcDbLine
 10
169.3069999999999879
 20
6.7055300000000004
 30
0.0
 11
168.5060000000000002
 21
6.7055300000000004
 31
0.0
  0
LINE
  5
CE
100
AcDbEntity
  8
0
 62
0
370
-1
 48
1.0
  6
BYLAYER
100
AcDbLine
 10
168.5063849999999945
 20
2.6059149999999995
 30
0.0
 11
184.1076149999999814
 21
2.605914999999996
 31
0.0
  0
LINE
  5
CF
100
AcDbEntity
  8
0
 62
0
370
-1
 48
1.0
  6
BYLAYER
100
AcDbLine
 10
184.1069999999999993
 20
3.6049699999999998
 30
0.0
 11
184.1069999999999993
 21
3.7682391580423671
 31
0.0
  0
LINE
  5
D0
100
AcDbEntity
  8
0
 62
0
370
-1
 48
1.0
  6
BYLAYER
100
AcDbLine
 10
246.0200000000000102
 20
6.7055299999999995
 30
0.0
 11
245.2189999999999941
 21
6.7055299999999995
 31
0.0
  0
LINE
  5
D1
100
AcDbEntity
  8
0
 62
0
370
-1
 48
1.0
  6
BYLAYER
100
AcDbLine
 10
245.2189999999999941
 20
6.7055299999999995
 30
0.0
 11
245.2189999999999941
 21
12.5056999999999992
 31
0.0
  0
LINE
  5
D2
100
AcDbEntity
  8
0
 62
0
370
-1
 48
1.0
  6
BYLAYER
100
AcDbLine
 10
245.2189999999999941
 20
12.5056999999999992
 30
0.0
 11
246.0200000000000102
 21
12.5056999999999992
 31
0.0
  0
LINE
  5
D3
100
AcDbEntity
  8
0
 62
0
370
-1
 48
1.0
  6
BYLAYER
100
AcDbLine
 10
177.5625000000015064
 20
16.6053150000000009
 30
0.0
 11
168.5063849999999945
 21
16.6053150000000009
 31
0.0
  0
LINE
  5
D4
100
AcDbEntity
  8
0
 62
0
370
-1
 48
1.0
  6
BYLAYER
100
AcDbLine
 10
187.5560000000000116
 20
12.5056999999999992
 30
0.0
 11
188.3569999999999993
 21
12.5056999999999992
 31
0.0
  0
LINE
  5
D5
100
AcDbEntity
  8
0
 62
0
370
-1
 48
1.0
  6
BYLAYER
100
AcDbLine
 10
188.3569999999999993
 20
12.5056999999999992
 30
0.0
 11
188.3569999999999993
 21
6.7055300000000004
 31
0.0
  0
LINE
  5
D6
100
AcDbEntity
  8
0
 62
0
370
-1
 48
1.0
  6
BYLAYER
100
AcDbLine
 10
188.3569999999999993
 20
6.7055300000000004
 30
0.0
 11
187.5560000000000116
 21
6.7055300000000004
 31
0.0
  0
LINE
  5
D7
100
AcDbEntity
  8
0
 62
0
370
-1
 48
1.0
  6
BYLAYER
100
AcDbLine
 10
187.5563850000000059
 20
2.6059149999999995
 30
0.0
 11
246.0196149999999875
 21
2.605914999999996
 31
0.0
  0
LINE
  5
D8
100
AcDbEntity
  8
0
 62
0
370
-1
 48
1.0
  6
BYLAYER
100
AcDbLine
 10
246.0196149999999875
 20
16.6053150000000009
 30
0.0
 11
187.5563850000000059
 21
16.6053150000000009
 31
0.0
  0
LINE
  5
D9
100
AcDbEntity
  8
0
 62
0
370
-1
 48
1.0
  6
BYLAYER
100
AcDbLine
 10
208.9879999999999995
 20
31.5557000000000016
 30
0.0
 11
209.7880000000000109
 21
31.5557000000000016
 31
0.0
  0
LINE
  5
DA
100
AcDbEntity
  8
0
 62
0
370
-1
 48
1.0
  6
BYLAYER
100
AcDbLine
 10
209.7880000000000109
 20
31.5557000000000016
 30
0.0
 11
209.7880000000000109
 21
25.7555000000000014
 31
0.0
  0
LINE
  5
DB
100
AcDbEntity
  8
0
 62
0
370
-1
 48
1.0
  6
BYLAYER
100
AcDbLine
 10
209.7880000000000109
 20
25.7555000000000014
 30
0.0
 11
208.9879999999999995
 21
25.7555000000000014
 31
0.0
  0
LINE
  5
DC
100
AcDbEntity
  8
0
 62
0
370
-1
 48
1.0
  6
BYLAYER
100
AcDbLine
 10
208.9873850000000175
 20
21.655899999999999
 30
0.0
 11
246.0196149999999875
 21
21.6558999999999955
 31
0.0
  0
LINE
  5
DD
100
AcDbEntity
  8
0
 62
0
370
-1
 48
1.0
  6
BYLAYER
100
AcDbLine
 10
210.9125000000015007
 20
35.6552999999999969
 30
0.0
 11
208.9873850000000175
 21
35.6552999999999969
 31
0.0
  0
LINE
  5
DE
100
AcDbEntity
  8
0
 62
0
370
-1
 48
1.0
  6
BYLAYER
100
AcDbLine
 10
246.0196149999999875
 20
35.6552999999999969
 30
0.0
 11
241.712499999999892
 21
35.6552999999999969
 31
0.0
  0
LINE
  5
DF
100
AcDbEntity
  8
0
 62
0
370
-1
 48
1.0
  6
BYLAYER
100
AcDbLine
 10
234.7125000000014552
 20
35.6552999999999969
 30
0.0
 11
217.9124999999999091
 21
35.6552999999999969
 31
0.0
  0
LINE
  5
E0
100
AcDbEntity
  8
0
 62
0
370
-1
 48
1.0
  6
BYLAYER
100
AcDbLine
 10
246.0200000000000102
 20
25.7555000000000014
 30
0.0
 11
245.2189999999999941
 21
25.7555000000000014
 31
0.0
  0
LINE
  5
E1
100
AcDbEntity
  8
0
 62
0
370
-1
 48
1.0
  6
BYLAYER
100
AcDbLine
 10
245.2189999999999941
 20
25.7555000000000014
 30
0.0
 11
245.2189999999999941
 21
31.5557000000000016
 31
0.0
  0
LINE
  5
E2
100
AcDbEntity
  8
0
 62
0
370
-1
 48
1.0
  6
BYLAYER
100
AcDbLine
 10
245.2189999999999941
 20
31.5557000000000016
 30
0.0
 11
246.0200000000000102
 21
31.5557000000000016
 31
0.0
  0
LINE
  5
E3
100
AcDbEntity
  8
0
 62
0
370
-1
 48
1.0
  6
BYLAYER
100
AcDbLine
 10
39.918990000000008
 20
73.7553000000000054
 30
0.0
 11
39.9189750000000103
 21
69.6556000000000068
 31
0.0
  0
LINE
  5
E4
100
AcDbEntity
  8
0
 62
0
370
-1
 48
1.0
  6
BYLAYER
100
AcDbLine
 10
39.918990000000008
 20
59.755900000000004
 30
0.0
 11
39.9189750000000103
 21
63.8556000000000026
 31
0.0
  0
LINE
  5
E5
100
AcDbEntity
  8
0
 62
0
370
-1
 48
1.0
  6
BYLAYER
100
AcDbLine
 10
1.8190650000000019
 20
59.755900000000004
 30
0.0
 11
1.8190500000000043
 21
63.8556000000000026
 31
0.0
  0
LINE
  5
E6
100
AcDbEntity
  8
0
 62
0
370
-1
 48
1.0
  6
BYLAYER
100
AcDbLine
 10
20.8689900000000002
 20
73.7553000000000054
 30
0.0
 11
20.8689750000000025
 21
69.6556000000000068
 31
0.0
  0
LINE
  5
E7
100
AcDbEntity
  8
0
 62
0
370
-1
 48
1.0
  6
BYLAYER
100
AcDbLine
 10
20.8689900000000002
 20
59.755900000000004
 30
0.0
 11
20.8689750000000025
 21
63.8556000000000026
 31
0.0
  0
LINE
  5
E8
100
AcDbEntity
  8
0
 62
0
370
-1
 48
1.0
  6
BYLAYER
100
AcDbLine
 10
1.8190650000000019
 20
73.7553000000000054
 30
0.0
 11
1.8190500000000043
 21
69.6556000000000068
 31
0.0
  0
LINE
  5
E9
100
AcDbEntity
  8
0
 62
0
370
-1
 48
1.0
  6
BYLAYER
100
AcDbLine
 10
63.7314899999999938
 20
54.7053000000000011
 30
0.0
 11
63.7314749999999961
 21
50.6056000000000026
 31
0.0
  0
LINE
  5
EA
100
AcDbEntity
  8
0
 62
0
370
-1
 48
1.0
  6
BYLAYER
100
AcDbLine
 10
63.7314899999999938
 20
40.7058999999999997
 30
0.0
 11
63.7314749999999961
 21
44.8055999999999983
 31
0.0
  0
LINE
  5
EB
100
AcDbEntity
  8
0
 62
0
370
-1
 48
1.0
  6
BYLAYER
100
AcDbLine
 10
101.8316400000000073
 20
54.7053000000000011
 30
0.0
 11
101.8316250000000025
 21
50.6056000000000026
 31
0.0
  0
LINE
  5
EC
100
AcDbEntity
  8
0
 62
0
370
-1
 48
1.0
  6
BYLAYER
100
AcDbLine
 10
101.8316400000000073
 20
40.7058999999999997
 30
0.0
 11
101.8316250000000025
 21
44.8055999999999983
 31
0.0
  0
LINE
  5
ED
100
AcDbEntity
  8
0
 62
0
370
-1
 48
1.0
  6
BYLAYER
100
AcDbLine
 10
82.7814900000000051
 20
54.7053000000000011
 30
0.0
 11
82.7814750000000004
 21
50.6056000000000026
 31
0.0
  0
LINE
  5
EE
100
AcDbEntity
  8
0
 62
0
370
-1
 48
1.0
  6
BYLAYER
100
AcDbLine
 10
82.7814900000000051
 20
40.7058999999999997
 30
0.0
 11
82.7814750000000004
 21
44.8055999999999983
 31
0.0
  0
LINE
  5
EF
100
AcDbEntity
  8
0
 62
0
370
-1
 48
1.0
  6
BYLAYER
100
AcDbLine
 10
120.8816399999999902
 20
54.7053000000000011
 30
0.0
 11
120.8816249999999854
 21
50.6056000000000026
 31
0.0
  0
LINE
  5
F0
100
AcDbEntity
  8
0
 62
0
370
-1
 48
1.0
  6
BYLAYER
100
AcDbLine
 10
120.8816399999999902
 20
40.7058999999999997
 30
0.0
 11
120.8816249999999854
 21
44.8055999999999983
 31
0.0
  0
LINE
  5
F1
100
AcDbEntity
  8
0
 62
0
370
-1
 48
1.0
  6
BYLAYER
100
AcDbLine
 10
158.9816400000000272
 20
40.7058999999999997
 30
0.0
 11
158.9816250000000082
 21
44.8055999999999983
 31
0.0
  0
LINE
  5
F2
100
AcDbEntity
  8
0
 62
0
370
-1
 48
1.0
  6
BYLAYER
100
AcDbLine
 10
139.9316400000000158
 20
54.7053000000000011
 30
0.0
 11
139.9316249999999968
 21
50.6056000000000026
 31
0.0
  0
LINE
  5
F3
100
AcDbEntity
  8
0
 62
0
370
-1
 48
1.0
  6
BYLAYER
100
AcDbLine
 10
139.9316400000000158
 20
40.7058999999999997
 30
0.0
 11
139.9316249999999968
 21
44.8055999999999983
 31
0.0
  0
LINE
  5
F4
100
AcDbEntity
  8
0
 62
0
370
-1
 48
1.0
  6
BYLAYER
100
AcDbLine
 10
178.0316399999999817
 20
54.7053000000000011
 30
0.0
 11
178.0316249999999911
 21
50.6056000000000026
 31
0.0
  0
LINE
  5
F5
100
AcDbEntity
  8
0
 62
0
370
-1
 48
1.0
  6
BYLAYER
100
AcDbLine
 10
178.0316399999999817
 20
40.7058999999999997
 30
0.0
 11
178.0316249999999911
 21
44.8055999999999983
 31
0.0
  0
LINE
  5
F6
100
AcDbEntity
  8
0
 62
0
370
-1
 48
1.0
  6
BYLAYER
100
AcDbLine
 10
158.9816400000000272
 20
54.7053000000000011
 30
0.0
 11
158.9816250000000082
 21
50.6056000000000026
 31
0.0
  0
LINE
  5
F7
100
AcDbEntity
  8
0
 62
0
370
-1
 48
1.0
  6
BYLAYER
100
AcDbLine
 10
197.0816399999999931
 20
54.7053000000000011
 30
0.0
 11
197.0816250000000025
 21
50.6056000000000026
 31
0.0
  0
LINE
  5
F8
100
AcDbEntity
  8
0
 62
0
370
-1
 48
1.0
  6
BYLAYER
100
AcDbLine
 10
197.0816399999999931
 20
40.7058999999999997
 30
0.0
 11
197.0816250000000025
 21
44.8055999999999983
 31
0.0
  0
LINE
  5
F9
100
AcDbEntity
  8
0
 62
0
370
-1
 48
1.0
  6
BYLAYER
100
AcDbLine
 10
230.4191399999999703
 20
73.7553000000000054
 30
0.0
 11
230.4191249999999798
 21
69.6556000000000068
 31
0.0
  0
LINE
  5
FA
100
AcDbEntity
  8
0
 62
0
370
-1
 48
1.0
  6
BYLAYER
100
AcDbLine
 10
230.4191399999999703
 20
59.755900000000004
 30
0.0
 11
230.4191249999999798
 21
63.8556000000000026
 31
0.0
  0
LINE
  5
FB
100
AcDbEntity
  8
0
 62
0
370
-1
 48
1.0
  6
BYLAYER
100
AcDbLine
 10
223.2751399999999649
 20
54.7053000000000011
 30
0.0
 11
223.2751249999999743
 21
50.6056000000000026
 31
0.0
  0
LINE
  5
FC
100
AcDbEntity
  8
0
 62
0
370
-1
 48
1.0
  6
BYLAYER
100
AcDbLine
 10
223.2751399999999649
 20
40.7058999999999997
 30
0.0
 11
223.2751249999999743
 21
44.8055999999999983
 31
0.0
  0
LINE
  5
FD
100
AcDbEntity
  8
0
 62
0
370
-1
 48
1.0
  6
BYLAYER
100
AcDbLine
 10
211.3691400000000158
 20
73.7553000000000054
 30
0.0
 11
211.3691249999999968
 21
69.6556000000000068
 31
0.0
  0
LINE
  5
FE
100
AcDbEntity
  8
0
 62
0
370
-1
 48
1.0
  6
BYLAYER
100
AcDbLine
 10
211.3691400000000158
 20
59.755900000000004
 30
0.0
 11
211.3691249999999968
 21
63.8556000000000026
 31
0.0
  0
LINE
  5
FF
100
AcDbEntity
  8
0
 62
0
370
-1
 48
1.0
  6
BYLAYER
100
AcDbLine
 10
149.4566399999999931
 20
21.6558999999999955
 30
0.0
 11
149.4566250000000025
 21
25.7555999999999941
 31
0.0
  0
LINE
  5
100
100
AcDbEntity
  8
0
 62
0
370
-1
 48
1.0
  6
BYLAYER
100
AcDbLine
 10
168.5066400000000044
 20
35.6552999999999969
 30
0.0
 11
168.5066249999999854
 21
31.5555999999999983
 31
0.0
  0
LINE
  5
101
100
AcDbEntity
  8
0
 62
0
370
-1
 48
1.0
  6
BYLAYER
100
AcDbLine
 10
168.5066400000000044
 20
21.6558999999999955
 30
0.0
 11
168.5066249999999854
 21
25.7555999999999941
 31
0.0
  0
LINE
  5
102
100
AcDbEntity
  8
0
 62
0
370
-1
 48
1.0
  6
BYLAYER
100
AcDbLine
 10
130.4066399999999817
 20
35.6552999999999969
 30
0.0
 11
130.4066249999999911
 21
31.5555999999999983
 31
0.0
  0
LINE
  5
103
100
AcDbEntity
  8
0
 62
0
370
-1
 48
1.0
  6
BYLAYER
100
AcDbLine
 10
130.4066399999999817
 20
21.6558999999999955
 30
0.0
 11
130.4066249999999911
 21
25.7555999999999941
 31
0.0
  0
LINE
  5
104
100
AcDbEntity
  8
0
 62
0
370
-1
 48
1.0
  6
BYLAYER
100
AcDbLine
 10
149.4566399999999931
 20
35.6552999999999969
 30
0.0
 11
149.4566250000000025
 21
31.5555999999999983
 31
0.0
  0
LINE
  5
105
100
AcDbEntity
  8
0
 62
0
370
-1
 48
1.0
  6
BYLAYER
100
AcDbLine
 10
111.3566399999999987
 20
35.6552999999999969
 30
0.0
 11
111.3566250000000082
 21
31.5555999999999983
 31
0.0
  0
LINE
  5
106
100
AcDbEntity
  8
0
 62
0
370
-1
 48
1.0
  6
BYLAYER
100
AcDbLine
 10
111.3566399999999987
 20
21.6558999999999955
 30
0.0
 11
111.3566250000000082
 21
25.7555999999999941
 31
0.0
  0
LINE
  5
107
100
AcDbEntity
  8
0
 62
0
370
-1
 48
1.0
  6
BYLAYER
100
AcDbLine
 10
73.2564899999999994
 20
35.6552999999999969
 30
0.0
 11
73.2564749999999947
 21
31.5555999999999983
 31
0.0
  0
LINE
  5
108
100
AcDbEntity
  8
0
 62
0
370
-1
 48
1.0
  6
BYLAYER
100
AcDbLine
 10
73.2564899999999994
 20
21.6558999999999955
 30
0.0
 11
73.2564749999999947
 21
25.7555999999999941
 31
0.0
  0
LINE
  5
109
100
AcDbEntity
  8
0
 62
0
370
-1
 48
1.0
  6
BYLAYER
100
AcDbLine
 10
92.3067400000000049
 20
35.6552999999999969
 30
0.0
 11
92.3067250000000001
 21
31.5555999999999983
 31
0.0
  0
LINE
  5
10A
100
AcDbEntity
  8
0
 62
0
370
-1
 48
1.0
  6
BYLAYER
100
AcDbLine
 10
92.3067400000000049
 20
21.6558999999999955
 30
0.0
 11
92.3067250000000001
 21
25.7555999999999941
 31
0.0
  0
LINE
  5
10B
100
AcDbEntity
  8
0
 62
0
370
-1
 48
1.0
  6
BYLAYER
100
AcDbLine
 10
54.2064900000000023
 20
35.6552999999999969
 30
0.0
 11
54.2064750000000046
 21
31.5555999999999983
 31
0.0
  0
LINE
  5
10C
100
AcDbEntity
  8
0
 62
0
370
-1
 48
1.0
  6
BYLAYER
100
AcDbLine
 10
54.2064900000000023
 20
21.6558999999999955
 30
0.0
 11
54.2064750000000046
 21
25.7555999999999941
 31
0.0
  0
LINE
  5
10D
100
AcDbEntity
  8
0
 62
0
370
-1
 48
1.0
  6
BYLAYER
100
AcDbLine
 10
8.9627949999999998
 20
35.6552999999999969
 30
0.0
 11
8.9627800000000022
 21
31.5555999999999983
 31
0.0
  0
LINE
  5
10E
100
AcDbEntity
  8
0
 62
0
370
-1
 48
1.0
  6
BYLAYER
100
AcDbLine
 10
8.9627949999999998
 20
21.6558999999999955
 30
0.0
 11
8.9627800000000022
 21
25.7555999999999941
 31
0.0
  0
LINE
  5
10F
100
AcDbEntity
  8
0
 62
0
370
-1
 48
1.0
  6
BYLAYER
100
AcDbLine
 10
35.1564900000000051
 20
35.6552999999999969
 30
0.0
 11
35.1564750000000075
 21
31.5555999999999983
 31
0.0
  0
LINE
  5
110
100
AcDbEntity
  8
0
 62
0
370
-1
 48
1.0
  6
BYLAYER
100
AcDbLine
 10
35.1564900000000051
 20
21.6558999999999955
 30
0.0
 11
35.1564750000000075
 21
25.7555999999999941
 31
0.0
  0
LINE
  5
111
100
AcDbEntity
  8
0
 62
0
370
-1
 48
1.0
  6
BYLAYER
100
AcDbLine
 10
4.2002950000000023
 20
54.7053000000000011
 30
0.0
 11
4.2002800000000047
 21
50.6056000000000026
 31
0.0
  0
LINE
  5
112
100
AcDbEntity
  8
0
 62
0
370
-1
 48
1.0
  6
BYLAYER
100
AcDbLine
 10
4.2002950000000023
 20
40.7058999999999997
 30
0.0
 11
4.2002800000000047
 21
44.8055999999999983
 31
0.0
  0
LINE
  5
113
100
AcDbEntity
  8
0
 62
0
370
-1
 48
1.0
  6
BYLAYER
100
AcDbLine
 10
44.6814899999999966
 20
54.7053000000000011
 30
0.0
 11
44.6814749999999989
 21
50.6056000000000026
 31
0.0
  0
LINE
  5
114
100
AcDbEntity
  8
0
 62
0
370
-1
 48
1.0
  6
BYLAYER
100
AcDbLine
 10
44.6814899999999966
 20
40.7058999999999997
 30
0.0
 11
44.6814749999999989
 21
44.8055999999999983
 31
0.0
  0
LINE
  5
115
100
AcDbEntity
  8
0
 62
0
370
-1
 48
1.0
  6
BYLAYER
100
AcDbLine
 10
25.6314899999999994
 20
54.7053000000000011
 30
0.0
 11
25.6314750000000018
 21
50.6056000000000026
 31
0.0
  0
LINE
  5
116
100
AcDbEntity
  8
0
 62
0
370
-1
 48
1.0
  6
BYLAYER
100
AcDbLine
 10
25.6314899999999994
 20
40.7058999999999997
 30
0.0
 11
25.6314750000000018
 21
44.8055999999999983
 31
0.0
  0
LINE
  5
117
100
AcDbEntity
  8
0
 62
0
370
-1
 48
1.0
  6
BYLAYER
100
AcDbLine
 10
116.1193850000000225
 20
16.6053149999999974
 30
0.0
 11
116.1193700000000177
 21
12.5056149999999988
 31
0.0
  0
LINE
  5
118
100
AcDbEntity
  8
0
 62
0
370
-1
 48
1.0
  6
BYLAYER
100
AcDbLine
 10
116.1193850000000225
 20
2.605914999999996
 30
0.0
 11
116.1193700000000177
 21
6.7056149999999946
 31
0.0
  0
LINE
  5
119
100
AcDbEntity
  8
0
 62
0
370
-1
 48
1.0
  6
BYLAYER
100
AcDbLine
 10
25.6315850000000012
 20
16.6053150000000009
 30
0.0
 11
25.6315700000000035
 21
12.5056150000000024
 31
0.0
  0
LINE
  5
11A
100
AcDbEntity
  8
0
 62
0
370
-1
 48
1.0
  6
BYLAYER
100
AcDbLine
 10
25.6315850000000012
 20
2.6059149999999995
 30
0.0
 11
25.6315700000000035
 21
6.7056149999999981
 31
0.0
  0
LINE
  5
11B
100
AcDbEntity
  8
0
 62
0
370
-1
 48
1.0
  6
BYLAYER
100
AcDbLine
 10
4.2002949999999997
 20
16.6053150000000009
 30
0.0
 11
4.200280000000002
 21
12.5056150000000024
 31
0.0
  0
LINE
  5
11C
100
AcDbEntity
  8
0
 62
0
370
-1
 48
1.0
  6
BYLAYER
100
AcDbLine
 10
4.2002949999999997
 20
2.6059149999999995
 30
0.0
 11
4.200280000000002
 21
6.7056149999999981
 31
0.0
  0
LINE
  5
11D
100
AcDbEntity
  8
0
 62
0
370
-1
 48
1.0
  6
BYLAYER
100
AcDbLine
 10
89.9253850000000057
 20
16.6053150000000009
 30
0.0
 11
89.9253700000000009
 21
12.5056150000000024
 31
0.0
  0
LINE
  5
11E
100
AcDbEntity
  8
0
 62
0
370
-1
 48
1.0
  6
BYLAYER
100
AcDbLine
 10
89.9253850000000057
 20
2.6059149999999995
 30
0.0
 11
89.9253700000000009
 21
6.7056149999999981
 31
0.0
  0
LINE
  5
11F
100
AcDbEntity
  8
0
 62
0
370
-1
 48
1.0
  6
BYLAYER
100
AcDbLine
 10
168.5063849999999945
 20
16.6053150000000009
 30
0.0
 11
168.506370000000004
 21
12.5056150000000024
 31
0.0
  0
LINE
  5
120
100
AcDbEntity
  8
0
 62
0
370
-1
 48
1.0
  6
BYLAYER
100
AcDbLine
 10
168.5063849999999945
 20
2.6059149999999995
 30
0.0
 11
168.506370000000004
 21
6.7056149999999981
 31
0.0
  0
LINE
  5
121
100
AcDbEntity
  8
0
 62
0
370
-1
 48
1.0
  6
BYLAYER
100
AcDbLine
 10
187.5563850000000059
 20
16.6053150000000009
 30
0.0
 11
187.5563700000000154
 21
12.5056150000000024
 31
0.0
  0
LINE
  5
122
100
AcDbEntity
  8
0
 62
0
370
-1
 48
1.0
  6
BYLAYER
100
AcDbLine
 10
187.5563850000000059
 20
2.6059149999999995
 30
0.0
 11
187.5563700000000154
 21
6.7056149999999981
 31
0.0
  0
LINE
  5
123
100
AcDbEntity
  8
0
 62
0
370
-1
 48
1.0
  6
BYLAYER
100
AcDbLine
 10
208.9873850000000175
 20
35.6552999999999969
 30
0.0
 11
208.9873699999999985
 21
31.5556000000000019
 31
0.0
  0
LINE
  5
124
100
AcDbEntity
  8
0
 62
0
370
-1
 48
1.0
  6
BYLAYER
100
AcDbLine
 10
208.9873850000000175
 20
21.655899999999999
 30
0.0
 11
208.9873699999999985
 21
25.7555999999999976
 31
0.0
  0
LINE
  5
125
100
AcDbEntity
  8
0
 62
0
370
-1
 48
1.0
  6
BYLAYER
100
AcDbLine
 10
187.5566400000000158
 20
35.6552999999999969
 30
0.0
 11
187.5566249999999968
 21
31.5555999999999983
 31
0.0
  0
LINE
  5
126
100
AcDbEntity
  8
0
 62
0
370
-1
 48
1.0
  6
BYLAYER
100
AcDbLine
 10
187.5566400000000158
 20
21.6558999999999955
 30
0.0
 11
187.5566249999999968
 21
25.7555999999999941
 31
0.0
  0
LINE
  5
127
100
AcDbEntity
  8
0
 62
0
370
-1
 48
1.0
  6
BYLAYER
100
AcDbLine
 10
173.2691399999999931
 20
73.7553000000000054
 30
0.0
 11
173.2691250000000025
 21
69.6556000000000068
 31
0.0
  0
LINE
  5
128
100
AcDbEntity
  8
0
 62
0
370
-1
 48
1.0
  6
BYLAYER
100
AcDbLine
 10
173.2691399999999931
 20
59.755900000000004
 30
0.0
 11
173.2691250000000025
 21
63.8556000000000026
 31
0.0
  0
LINE
  5
129
100
AcDbEntity
  8
0
 62
0
370
-1
 48
1.0
  6
BYLAYER
100
AcDbLine
 10
192.3191400000000044
 20
73.7553000000000054
 30
0.0
 11
192.3191250000000139
 21
69.6556000000000068
 31
0.0
  0
LINE
  5
12A
100
AcDbEntity
  8
0
 62
0
370
-1
 48
1.0
  6
BYLAYER
100
AcDbLine
 10
192.3191400000000044
 20
59.755900000000004
 30
0.0
 11
192.3191250000000139
 21
63.8556000000000026
 31
0.0
  0
LINE
  5
12B
100
AcDbEntity
  8
0
 62
0
370
-1
 48
1.0
  6
BYLAYER
100
AcDbLine
 10
154.2191399999999817
 20
73.7553000000000054
 30
0.0
 11
154.2191249999999911
 21
69.6556000000000068
 31
0.0
  0
LINE
  5
12C
100
AcDbEntity
  8
0
 62
0
370
-1
 48
1.0
  6
BYLAYER
100
AcDbLine
 10
154.2191399999999817
 20
59.755900000000004
 30
0.0
 11
154.2191249999999911
 21
63.8556000000000026
 31
0.0
  0
LINE
  5
12D
100
AcDbEntity
  8
0
 62
0
370
-1
 48
1.0
  6
BYLAYER
100
AcDbLine
 10
116.118140000000011
 20
73.7553000000000054
 30
0.0
 11
116.1181250000000205
 21
69.6556000000000068
 31
0.0
  0
LINE
  5
12E
100
AcDbEntity
  8
0
 62
0
370
-1
 48
1.0
  6
BYLAYER
100
AcDbLine
 10
116.118140000000011
 20
59.755900000000004
 30
0.0
 11
116.1181250000000205
 21
63.8556000000000026
 31
0.0
  0
LINE
  5
12F
100
AcDbEntity
  8
0
 62
0
370
-1
 48
1.0
  6
BYLAYER
100
AcDbLine
 10
135.1691399999999703
 20
73.7553000000000054
 30
0.0
 11
135.1691249999999798
 21
69.6556000000000068
 31
0.0
  0
LINE
  5
130
100
AcDbEntity
  8
0
 62
0
370
-1
 48
1.0
  6
BYLAYER
100
AcDbLine
 10
135.1691399999999703
 20
59.755900000000004
 30
0.0
 11
135.1691249999999798
 21
63.8556000000000026
 31
0.0
  0
LINE
  5
131
100
AcDbEntity
  8
0
 62
0
370
-1
 48
1.0
  6
BYLAYER
100
AcDbLine
 10
97.0682900000000046
 20
73.7553000000000054
 30
0.0
 11
97.0682749999999999
 21
69.6556000000000068
 31
0.0
  0
LINE
  5
132
100
AcDbEntity
  8
0
 62
0
370
-1
 48
1.0
  6
BYLAYER
100
AcDbLine
 10
97.0682900000000046
 20
59.755900000000004
 30
0.0
 11
97.0682749999999999
 21
63.8556000000000026
 31
0.0
  0
LINE
  5
133
100
AcDbEntity
  8
0
 62
0
370
-1
 48
1.0
  6
BYLAYER
100
AcDbLine
 10
58.9689900000000051
 20
73.7553000000000054
 30
0.0
 11
58.9689750000000075
 21
69.6556000000000068
 31
0.0
  0
LINE
  5
134
100
AcDbEntity
  8
0
 62
0
370
-1
 48
1.0
  6
BYLAYER
100
AcDbLine
 10
58.9689900000000051
 20
59.755900000000004
 30
0.0
 11
58.9689750000000075
 21
63.8556000000000026
 31
0.0
  0
LINE
  5
135
100
AcDbEntity
  8
0
 62
0
370
-1
 48
1.0
  6
BYLAYER
100
AcDbLine
 10
78.0189900000000023
 20
73.7553000000000054
 30
0.0
 11
78.0189750000000117
 21
69.6556000000000068
 31
0.0
  0
LINE
  5
136
100
AcDbEntity
  8
0
 62
0
370
-1
 48
1.0
  6
BYLAYER
100
AcDbLine
 10
78.0189900000000023
 20
59.755900000000004
 30
0.0
 11
78.0189750000000117
 21
63.8556000000000026
 31
0.0
  0
LINE
  5
137
100
AcDbEntity
  8
0
 62
0
370
-1
 48
1.0
  6
BYLAYER
100
AcDbLine
 10
39.9189750000000103
 20
69.6556000000000068
 30
0.0
 11
40.7196050000000085
 21
69.6556000000000068
 31
0.0
  0
LINE
  5
138
100
AcDbEntity
  8
0
 62
0
370
-1
 48
1.0
  6
BYLAYER
100
AcDbLine
 10
1.8190500000000043
 20
69.6556000000000068
 30
0.0
 11
2.6196800000000025
 21
69.6556000000000068
 31
0.0
  0
LINE
  5
139
100
AcDbEntity
  8
0
 62
0
370
-1
 48
1.0
  6
BYLAYER
100
AcDbLine
 10
20.8689750000000025
 20
69.6556000000000068
 30
0.0
 11
21.6696050000000007
 21
69.6556000000000068
 31
0.0
  0
LINE
  5
13A
100
AcDbEntity
  8
0
 62
0
370
-1
 48
1.0
  6
BYLAYER
100
AcDbLine
 10
63.7314749999999961
 20
50.6056000000000026
 30
0.0
 11
64.5321050000000014
 21
50.6056000000000026
 31
0.0
  0
LINE
  5
13B
100
AcDbEntity
  8
0
 62
0
370
-1
 48
1.0
  6
BYLAYER
100
AcDbLine
 10
101.8316250000000025
 20
50.6056000000000026
 30
0.0
 11
102.6322550000000149
 21
50.6056000000000026
 31
0.0
  0
LINE
  5
13C
100
AcDbEntity
  8
0
 62
0
370
-1
 48
1.0
  6
BYLAYER
100
AcDbLine
 10
82.7814750000000004
 20
50.6056000000000026
 30
0.0
 11
83.5821050000000128
 21
50.6056000000000026
 31
0.0
  0
LINE
  5
13D
100
AcDbEntity
  8
0
 62
0
370
-1
 48
1.0
  6
BYLAYER
100
AcDbLine
 10
120.8816249999999854
 20
50.6056000000000026
 30
0.0
 11
121.6822549999999978
 21
50.6056000000000026
 31
0.0
  0
LINE
  5
13E
100
AcDbEntity
  8
0
 62
0
370
-1
 48
1.0
  6
BYLAYER
100
AcDbLine
 10
158.9816250000000082
 20
50.6056000000000026
 30
0.0
 11
159.7822550000000206
 21
50.6056000000000026
 31
0.0
  0
LINE
  5
13F
100
AcDbEntity
  8
0
 62
0
370
-1
 48
1.0
  6
BYLAYER
100
AcDbLine
 10
139.9316249999999968
 20
50.6056000000000026
 30
0.0
 11
140.7322550000000092
 21
50.6056000000000026
 31
0.0
  0
LINE
  5
140
100
AcDbEntity
  8
0
 62
0
370
-1
 48
1.0
  6
BYLAYER
100
AcDbLine
 10
178.0316249999999911
 20
50.6056000000000026
 30
0.0
 11
178.8322550000000035
 21
50.6056000000000026
 31
0.0
  0
LINE
  5
141
100
AcDbEntity
  8
0
 62
0
370
-1
 48
1.0
  6
BYLAYER
100
AcDbLine
 10
223.2751249999999743
 20
50.6056000000000026
 30
0.0
 11
224.0757549999999867
 21
50.6056000000000026
 31
0.0
  0
LINE
  5
142
100
AcDbEntity
  8
0
 62
0
370
-1
 48
1.0
  6
BYLAYER
100
AcDbLine
 10
197.0816250000000025
 20
50.6056000000000026
 30
0.0
 11
197.8822550000000149
 21
50.6056000000000026
 31
0.0
  0
LINE
  5
143
100
AcDbEntity
  8
0
 62
0
370
-1
 48
1.0
  6
BYLAYER
100
AcDbLine
 10
230.4191249999999798
 20
69.6556000000000068
 30
0.0
 11
231.2197549999999922
 21
69.6556000000000068
 31
0.0
  0
LINE
  5
144
100
AcDbEntity
  8
0
 62
0
370
-1
 48
1.0
  6
BYLAYER
100
AcDbLine
 10
211.3691249999999968
 20
69.6556000000000068
 30
0.0
 11
212.1697550000000092
 21
69.6556000000000068
 31
0.0
  0
LINE
  5
145
100
AcDbEntity
  8
0
 62
0
370
-1
 48
1.0
  6
BYLAYER
100
AcDbLine
 10
149.4566250000000025
 20
31.5555999999999983
 30
0.0
 11
150.2572550000000149
 21
31.5555999999999983
 31
0.0
  0
LINE
  5
146
100
AcDbEntity
  8
0
 62
0
370
-1
 48
1.0
  6
BYLAYER
100
AcDbLine
 10
168.5066249999999854
 20
31.5555999999999983
 30
0.0
 11
169.3072549999999978
 21
31.5555999999999983
 31
0.0
  0
LINE
  5
147
100
AcDbEntity
  8
0
 62
0
370
-1
 48
1.0
  6
BYLAYER
100
AcDbLine
 10
130.4066249999999911
 20
31.5555999999999983
 30
0.0
 11
131.2072550000000035
 21
31.5555999999999983
 31
0.0
  0
LINE
  5
148
100
AcDbEntity
  8
0
 62
0
370
-1
 48
1.0
  6
BYLAYER
100
AcDbLine
 10
92.3067250000000001
 20
31.5555999999999983
 30
0.0
 11
93.1073550000000125
 21
31.5555999999999983
 31
0.0
  0
LINE
  5
149
100
AcDbEntity
  8
0
 62
0
370
-1
 48
1.0
  6
BYLAYER
100
AcDbLine
 10
111.3566250000000082
 20
31.5555999999999983
 30
0.0
 11
112.1572549999999922
 21
31.5555999999999983
 31
0.0
  0
LINE
  5
14A
100
AcDbEntity
  8
0
 62
0
370
-1
 48
1.0
  6
BYLAYER
100
AcDbLine
 10
73.2564749999999947
 20
31.5555999999999983
 30
0.0
 11
74.0571050000000071
 21
31.5555999999999983
 31
0.0
  0
LINE
  5
14B
100
AcDbEntity
  8
0
 62
0
370
-1
 48
1.0
  6
BYLAYER
100
AcDbLine
 10
54.2064750000000046
 20
31.5555999999999983
 30
0.0
 11
55.0071050000000028
 21
31.5555999999999983
 31
0.0
  0
LINE
  5
14C
100
AcDbEntity
  8
0
 62
0
370
-1
 48
1.0
  6
BYLAYER
100
AcDbLine
 10
8.9627800000000022
 20
31.5555999999999983
 30
0.0
 11
9.7634100000000004
 21
31.5555999999999983
 31
0.0
  0
LINE
  5
14D
100
AcDbEntity
  8
0
 62
0
370
-1
 48
1.0
  6
BYLAYER
100
AcDbLine
 10
35.1564750000000075
 20
31.5555999999999983
 30
0.0
 11
35.9571050000000056
 21
31.5555999999999983
 31
0.0
  0
LINE
  5
14E
100
AcDbEntity
  8
0
 62
0
370
-1
 48
1.0
  6
BYLAYER
100
AcDbLine
 10
4.2002800000000047
 20
50.6056000000000026
 30
0.0
 11
5.0009100000000029
 21
50.6056000000000026
 31
0.0
  0
LINE
  5
14F
100
AcDbEntity
  8
0
 62
0
370
-1
 48
1.0
  6
BYLAYER
100
AcDbLine
 10
44.6814749999999989
 20
50.6056000000000026
 30
0.0
 11
45.4821049999999971
 21
50.6056000000000026
 31
0.0
  0
LINE
  5
150
100
AcDbEntity
  8
0
 62
0
370
-1
 48
1.0
  6
BYLAYER
100
AcDbLine
 10
25.6314750000000018
 20
50.6056000000000026
 30
0.0
 11
26.432105
 21
50.6056000000000026
 31
0.0
  0
LINE
  5
151
100
AcDbEntity
  8
0
 62
0
370
-1
 48
1.0
  6
BYLAYER
100
AcDbLine
 10
187.5566249999999968
 20
31.5555999999999983
 30
0.0
 11
188.3572550000000092
 21
31.5555999999999983
 31
0.0
  0
LINE
  5
152
100
AcDbEntity
  8
0
 62
0
370
-1
 48
1.0
  6
BYLAYER
100
AcDbLine
 10
173.2691250000000025
 20
69.6556000000000068
 30
0.0
 11
174.0697550000000149
 21
69.6556000000000068
 31
0.0
  0
LINE
  5
153
100
AcDbEntity
  8
0
 62
0
370
-1
 48
1.0
  6
BYLAYER
100
AcDbLine
 10
192.3191250000000139
 20
69.6556000000000068
 30
0.0
 11
193.1197550000000263
 21
69.6556000000000068
 31
0.0
  0
LINE
  5
154
100
AcDbEntity
  8
0
 62
0
370
-1
 48
1.0
  6
BYLAYER
100
AcDbLine
 10
154.2191249999999911
 20
69.6556000000000068
 30
0.0
 11
155.0197550000000035
 21
69.6556000000000068
 31
0.0
  0
LINE
  5
155
100
AcDbEntity
  8
0
 62
0
370
-1
 48
1.0
  6
BYLAYER
100
AcDbLine
 10
116.1181250000000205
 20
69.6556000000000068
 30
0.0
 11
116.9187550000000044
 21
69.6556000000000068
 31
0.0
  0
LINE
  5
156
100
AcDbEntity
  8
0
 62
0
370
-1
 48
1.0
  6
BYLAYER
100
AcDbLine
 10
135.1691249999999798
 20
69.6556000000000068
 30
0.0
 11
135.9697549999999922
 21
69.6556000000000068
 31
0.0
  0
LINE
  5
157
100
AcDbEntity
  8
0
 62
0
370
-1
 48
1.0
  6
BYLAYER
100
AcDbLine
 10
97.0682749999999999
 20
69.6556000000000068
 30
0.0
 11
97.8689050000000123
 21
69.6556000000000068
 31
0.0
  0
LINE
  5
158
100
AcDbEntity
  8
0
 62
0
370
-1
 48
1.0
  6
BYLAYER
100
AcDbLine
 10
58.9689750000000075
 20
69.6556000000000068
 30
0.0
 11
59.7696050000000056
 21
69.6556000000000068
 31
0.0
  0
LINE
  5
159
100
AcDbEntity
  8
0
 62
0
370
-1
 48
1.0
  6
BYLAYER
100
AcDbLine
 10
78.0189750000000117
 20
69.6556000000000068
 30
0.0
 11
78.8196049999999957
 21
69.6556000000000068
 31
0.0
  0
LINE
  5
15A
100
AcDbEntity
  8
0
 62
0
370
-1
 48
1.0
  6
BYLAYER
100
AcDbLine
 10
78.8196049999999957
 20
69.6556000000000068
 30
0.0
 11
78.8196049999999957
 21
63.8556000000000026
 31
0.0
  0
LINE
  5
15B
100
AcDbEntity
  8
0
 62
0
370
-1
 48
1.0
  6
BYLAYER
100
AcDbLine
 10
40.7196050000000085
 20
69.6556000000000068
 30
0.0
 11
40.7196050000000085
 21
63.8556000000000026
 31
0.0
  0
LINE
  5
15C
100
AcDbEntity
  8
0
 62
0
370
-1
 48
1.0
  6
BYLAYER
100
AcDbLine
 10
2.6196800000000025
 20
69.6556000000000068
 30
0.0
 11
2.6196800000000025
 21
63.8556000000000026
 31
0.0
  0
LINE
  5
15D
100
AcDbEntity
  8
0
 62
0
370
-1
 48
1.0
  6
BYLAYER
100
AcDbLine
 10
21.6696050000000007
 20
69.6556000000000068
 30
0.0
 11
21.6696050000000007
 21
63.8556000000000026
 31
0.0
  0
LINE
  5
15E
100
AcDbEntity
  8
0
 62
0
370
-1
 48
1.0
  6
BYLAYER
100
AcDbLine
 10
64.5321050000000014
 20
50.6056000000000026
 30
0.0
 11
64.5321050000000014
 21
44.8055999999999983
 31
0.0
  0
LINE
  5
15F
100
AcDbEntity
  8
0
 62
0
370
-1
 48
1.0
  6
BYLAYER
100
AcDbLine
 10
102.6322550000000149
 20
50.6056000000000026
 30
0.0
 11
102.6322550000000149
 21
44.8055999999999983
 31
0.0
  0
LINE
  5
160
100
AcDbEntity
  8
0
 62
0
370
-1
 48
1.0
  6
BYLAYER
100
AcDbLine
 10
83.5821050000000128
 20
50.6056000000000026
 30
0.0
 11
83.5821050000000128
 21
44.8055999999999983
 31
0.0
  0
LINE
  5
161
100
AcDbEntity
  8
0
 62
0
370
-1
 48
1.0
  6
BYLAYER
100
AcDbLine
 10
121.6822549999999978
 20
50.6056000000000026
 30
0.0
 11
121.6822549999999978
 21
44.8055999999999983
 31
0.0
  0
LINE
  5
162
100
AcDbEntity
  8
0
 62
0
370
-1
 48
1.0
  6
BYLAYER
100
AcDbLine
 10
159.7822550000000206
 20
50.6056000000000026
 30
0.0
 11
159.7822550000000206
 21
44.8055999999999983
 31
0.0
  0
LINE
  5
163
100
AcDbEntity
  8
0
 62
0
370
-1
 48
1.0
  6
BYLAYER
100
AcDbLine
 10
140.7322550000000092
 20
50.6056000000000026
 30
0.0
 11
140.7322550000000092
 21
44.8055999999999983
 31
0.0
  0
LINE
  5
164
100
AcDbEntity
  8
0
 62
0
370
-1
 48
1.0
  6
BYLAYER
100
AcDbLine
 10
178.8322550000000035
 20
50.6056000000000026
 30
0.0
 11
178.8322550000000035
 21
44.8055999999999983
 31
0.0
  0
LINE
  5
165
100
AcDbEntity
  8
0
 62
0
370
-1
 48
1.0
  6
BYLAYER
100
AcDbLine
 10
224.0757549999999867
 20
50.6056000000000026
 30
0.0
 11
224.0757549999999867
 21
44.8055999999999983
 31
0.0
  0
LINE
  5
166
100
AcDbEntity
  8
0
 62
0
370
-1
 48
1.0
  6
BYLAYER
100
AcDbLine
 10
197.8822550000000149
 20
50.6056000000000026
 30
0.0
 11
197.8822550000000149
 21
44.8055999999999983
 31
0.0
  0
LINE
  5
167
100
AcDbEntity
  8
0
 62
0
370
-1
 48
1.0
  6
BYLAYER
100
AcDbLine
 10
231.2197549999999922
 20
69.6556000000000068
 30
0.0
 11
231.2197549999999922
 21
63.8556000000000026
 31
0.0
  0
LINE
  5
168
100
AcDbEntity
  8
0
 62
0
370
-1
 48
1.0
  6
BYLAYER
100
AcDbLine
 10
193.1197550000000263
 20
69.6556000000000068
 30
0.0
 11
193.1197550000000263
 21
63.8556000000000026
 31
0.0
  0
LINE
  5
169
100
AcDbEntity
  8
0
 62
0
370
-1
 48
1.0
  6
BYLAYER
100
AcDbLine
 10
212.1697550000000092
 20
69.6556000000000068
 30
0.0
 11
212.1697550000000092
 21
63.8556000000000026
 31
0.0
  0
LINE
  5
16A
100
AcDbEntity
  8
0
 62
0
370
-1
 48
1.0
  6
BYLAYER
100
AcDbLine
 10
150.2572550000000149
 20
31.5555999999999983
 30
0.0
 11
150.2572550000000149
 21
25.7555999999999941
 31
0.0
  0
LINE
  5
16B
100
AcDbEntity
  8
0
 62
0
370
-1
 48
1.0
  6
BYLAYER
100
AcDbLine
 10
169.3072549999999978
 20
31.5555999999999983
 30
0.0
 11
169.3072549999999978
 21
25.7555999999999941
 31
0.0
  0
LINE
  5
16C
100
AcDbEntity
  8
0
 62
0
370
-1
 48
1.0
  6
BYLAYER
100
AcDbLine
 10
131.2072550000000035
 20
31.5555999999999983
 30
0.0
 11
131.2072550000000035
 21
25.7555999999999941
 31
0.0
  0
LINE
  5
16D
100
AcDbEntity
  8
0
 62
0
370
-1
 48
1.0
  6
BYLAYER
100
AcDbLine
 10
93.1073550000000125
 20
31.5555999999999983
 30
0.0
 11
93.1073550000000125
 21
25.7555999999999941
 31
0.0
  0
LINE
  5
16E
100
AcDbEntity
  8
0
 62
0
370
-1
 48
1.0
  6
BYLAYER
100
AcDbLine
 10
112.1572549999999922
 20
31.5555999999999983
 30
0.0
 11
112.1572549999999922
 21
25.7555999999999941
 31
0.0
  0
LINE
  5
16F
100
AcDbEntity
  8
0
 62
0
370
-1
 48
1.0
  6
BYLAYER
100
AcDbLine
 10
74.0571050000000071
 20
31.5555999999999983
 30
0.0
 11
74.0571050000000071
 21
25.7555999999999941
 31
0.0
  0
LINE
  5
170
100
AcDbEntity
  8
0
 62
0
370
-1
 48
1.0
  6
BYLAYER
100
AcDbLine
 10
35.9571050000000056
 20
31.5555999999999983
 30
0.0
 11
35.9571050000000056
 21
25.7555999999999941
 31
0.0
  0
LINE
  5
171
100
AcDbEntity
  8
0
 62
0
370
-1
 48
1.0
  6
BYLAYER
100
AcDbLine
 10
55.0071050000000028
 20
31.5555999999999983
 30
0.0
 11
55.0071050000000028
 21
25.7555999999999941
 31
0.0
  0
LINE
  5
172
100
AcDbEntity
  8
0
 62
0
370
-1
 48
1.0
  6
BYLAYER
100
AcDbLine
 10
9.7634100000000004
 20
31.5555999999999983
 30
0.0
 11
9.7634100000000004
 21
25.7555999999999941
 31
0.0
  0
LINE
  5
173
100
AcDbEntity
  8
0
 62
0
370
-1
 48
1.0
  6
BYLAYER
100
AcDbLine
 10
5.0009100000000029
 20
50.6056000000000026
 30
0.0
 11
5.0009100000000029
 21
44.8055999999999983
 31
0.0
  0
LINE
  5
174
100
AcDbEntity
  8
0
 62
0
370
-1
 48
1.0
  6
BYLAYER
100
AcDbLine
 10
45.4821049999999971
 20
50.6056000000000026
 30
0.0
 11
45.4821049999999971
 21
44.8055999999999983
 31
0.0
  0
LINE
  5
175
100
AcDbEntity
  8
0
 62
0
370
-1
 48
1.0
  6
BYLAYER
100
AcDbLine
 10
26.432105
 20
50.6056000000000026
 30
0.0
 11
26.432105
 21
44.8055999999999983
 31
0.0
  0
LINE
  5
176
100
AcDbEntity
  8
0
 62
0
370
-1
 48
1.0
  6
BYLAYER
100
AcDbLine
 10
188.3572550000000092
 20
31.5555999999999983
 30
0.0
 11
188.3572550000000092
 21
25.7555999999999941
 31
0.0
  0
LINE
  5
177
100
AcDbEntity
  8
0
 62
0
370
-1
 48
1.0
  6
BYLAYER
100
AcDbLine
 10
174.0697550000000149
 20
69.6556000000000068
 30
0.0
 11
174.0697550000000149
 21
63.8556000000000026
 31
0.0
  0
LINE
  5
178
100
AcDbEntity
  8
0
 62
0
370
-1
 48
1.0
  6
BYLAYER
100
AcDbLine
 10
155.0197550000000035
 20
69.6556000000000068
 30
0.0
 11
155.0197550000000035
 21
63.8556000000000026
 31
0.0
  0
LINE
  5
179
100
AcDbEntity
  8
0
 62
0
370
-1
 48
1.0
  6
BYLAYER
100
AcDbLine
 10
116.9187550000000044
 20
69.6556000000000068
 30
0.0
 11
116.9187550000000044
 21
63.8556000000000026
 31
0.0
  0
LINE
  5
17A
100
AcDbEntity
  8
0
 62
0
370
-1
 48
1.0
  6
BYLAYER
100
AcDbLine
 10
135.9697549999999922
 20
69.6556000000000068
 30
0.0
 11
135.9697549999999922
 21
63.8556000000000026
 31
0.0
  0
LINE
  5
17B
100
AcDbEntity
  8
0
 62
0
370
-1
 48
1.0
  6
BYLAYER
100
AcDbLine
 10
97.8689050000000123
 20
69.6556000000000068
 30
0.0
 11
97.8689050000000123
 21
63.8556000000000026
 31
0.0
  0
LINE
  5
17C
100
AcDbEntity
  8
0
 62
0
370
-1
 48
1.0
  6
BYLAYER
100
AcDbLine
 10
59.7696050000000056
 20
69.6556000000000068
 30
0.0
 11
59.7696050000000056
 21
63.8556000000000026
 31
0.0
  0
LINE
  5
17D
100
AcDbEntity
  8
0
 62
0
370
-1
 48
1.0
  6
BYLAYER
100
AcDbLine
 10
78.8196049999999957
 20
63.8556000000000026
 30
0.0
 11
78.0189750000000117
 21
63.8556000000000026
 31
0.0
  0
LINE
  5
17E
100
AcDbEntity
  8
0
 62
0
370
-1
 48
1.0
  6
BYLAYER
100
AcDbLine
 10
40.7196050000000085
 20
63.8556000000000026
 30
0.0
 11
39.9189750000000103
 21
63.8556000000000026
 31
0.0
  0
LINE
  5
17F
100
AcDbEntity
  8
0
 62
0
370
-1
 48
1.0
  6
BYLAYER
100
AcDbLine
 10
2.6196800000000025
 20
63.8556000000000026
 30
0.0
 11
1.8190500000000043
 21
63.8556000000000026
 31
0.0
  0
LINE
  5
180
100
AcDbEntity
  8
0
 62
0
370
-1
 48
1.0
  6
BYLAYER
100
AcDbLine
 10
21.6696050000000007
 20
63.8556000000000026
 30
0.0
 11
20.8689750000000025
 21
63.8556000000000026
 31
0.0
  0
LINE
  5
181
100
AcDbEntity
  8
0
 62
0
370
-1
 48
1.0
  6
BYLAYER
100
AcDbLine
 10
64.5321050000000014
 20
44.8055999999999983
 30
0.0
 11
63.7314749999999961
 21
44.8055999999999983
 31
0.0
  0
LINE
  5
182
100
AcDbEntity
  8
0
 62
0
370
-1
 48
1.0
  6
BYLAYER
100
AcDbLine
 10
102.6322550000000149
 20
44.8055999999999983
 30
0.0
 11
101.8316250000000025
 21
44.8055999999999983
 31
0.0
  0
LINE
  5
183
100
AcDbEntity
  8
0
 62
0
370
-1
 48
1.0
  6
BYLAYER
100
AcDbLine
 10
83.5821050000000128
 20
44.8055999999999983
 30
0.0
 11
82.7814750000000004
 21
44.8055999999999983
 31
0.0
  0
LINE
  5
184
100
AcDbEntity
  8
0
 62
0
370
-1
 48
1.0
  6
BYLAYER
100
AcDbLine
 10
121.6822549999999978
 20
44.8055999999999983
 30
0.0
 11
120.8816249999999854
 21
44.8055999999999983
 31
0.0
  0
LINE
  5
185
100
AcDbEntity
  8
0
 62
0
370
-1
 48
1.0
  6
BYLAYER
100
AcDbLine
 10
159.7822550000000206
 20
44.8055999999999983
 30
0.0
 11
158.9816250000000082
 21
44.8055999999999983
 31
0.0
  0
LINE
  5
186
100
AcDbEntity
  8
0
 62
0
370
-1
 48
1.0
  6
BYLAYER
100
AcDbLine
 10
140.7322550000000092
 20
44.8055999999999983
 30
0.0
 11
139.9316249999999968
 21
44.8055999999999983
 31
0.0
  0
LINE
  5
187
100
AcDbEntity
  8
0
 62
0
370
-1
 48
1.0
  6
BYLAYER
100
AcDbLine
 10
178.8322550000000035
 20
44.8055999999999983
 30
0.0
 11
178.0316249999999911
 21
44.8055999999999983
 31
0.0
  0
LINE
  5
188
100
AcDbEntity
  8
0
 62
0
370
-1
 48
1.0
  6
BYLAYER
100
AcDbLine
 10
224.0757549999999867
 20
44.8055999999999983
 30
0.0
 11
223.2751249999999743
 21
44.8055999999999983
 31
0.0
  0
LINE
  5
189
100
AcDbEntity
  8
0
 62
0
370
-1
 48
1.0
  6
BYLAYER
100
AcDbLine
 10
197.8822550000000149
 20
44.8055999999999983
 30
0.0
 11
197.0816250000000025
 21
44.8055999999999983
 31
0.0
  0
LINE
  5
18A
100
AcDbEntity
  8
0
 62
0
370
-1
 48
1.0
  6
BYLAYER
100
AcDbLine
 10
231.2197549999999922
 20
63.8556000000000026
 30
0.0
 11
230.4191249999999798
 21
63.8556000000000026
 31
0.0
  0
LINE
  5
18B
100
AcDbEntity
  8
0
 62
0
370
-1
 48
1.0
  6
BYLAYER
100
AcDbLine
 10
193.1197550000000263
 20
63.8556000000000026
 30
0.0
 11
192.3191250000000139
 21
63.8556000000000026
 31
0.0
  0
LINE
  5
18C
100
AcDbEntity
  8
0
 62
0
370
-1
 48
1.0
  6
BYLAYER
100
AcDbLine
 10
212.1697550000000092
 20
63.8556000000000026
 30
0.0
 11
211.3691249999999968
 21
63.8556000000000026
 31
0.0
  0
LINE
  5
18D
100
AcDbEntity
  8
0
 62
0
370
-1
 48
1.0
  6
BYLAYER
100
AcDbLine
 10
150.2572550000000149
 20
25.7555999999999941
 30
0.0
 11
149.4566250000000025
 21
25.7555999999999941
 31
0.0
  0
LINE
  5
18E
100
AcDbEntity
  8
0
 62
0
370
-1
 48
1.0
  6
BYLAYER
100
AcDbLine
 10
169.3072549999999978
 20
25.7555999999999941
 30
0.0
 11
168.5066249999999854
 21
25.7555999999999941
 31
0.0
  0
LINE
  5
18F
100
AcDbEntity
  8
0
 62
0
370
-1
 48
1.0
  6
BYLAYER
100
AcDbLine
 10
131.2072550000000035
 20
25.7555999999999941
 30
0.0
 11
130.4066249999999911
 21
25.7555999999999941
 31
0.0
  0
LINE
  5
190
100
AcDbEntity
  8
0
 62
0
370
-1
 48
1.0
  6
BYLAYER
100
AcDbLine
 10
93.1073550000000125
 20
25.7555999999999941
 30
0.0
 11
92.3067250000000001
 21
25.7555999999999941
 31
0.0
  0
LINE
  5
191
100
AcDbEntity
  8
0
 62
0
370
-1
 48
1.0
  6
BYLAYER
100
AcDbLine
 10
112.1572549999999922
 20
25.7555999999999941
 30
0.0
 11
111.3566250000000082
 21
25.7555999999999941
 31
0.0
  0
LINE
  5
192
100
AcDbEntity
  8
0
 62
0
370
-1
 48
1.0
  6
BYLAYER
100
AcDbLine
 10
74.0571050000000071
 20
25.7555999999999941
 30
0.0
 11
73.2564749999999947
 21
25.7555999999999941
 31
0.0
  0
LINE
  5
193
100
AcDbEntity
  8
0
 62
0
370
-1
 48
1.0
  6
BYLAYER
100
AcDbLine
 10
35.9571050000000056
 20
25.7555999999999941
 30
0.0
 11
35.1564750000000075
 21
25.7555999999999941
 31
0.0
  0
LINE
  5
194
100
AcDbEntity
  8
0
 62
0
370
-1
 48
1.0
  6
BYLAYER
100
AcDbLine
 10
55.0071050000000028
 20
25.7555999999999941
 30
0.0
 11
54.2064750000000046
 21
25.7555999999999941
 31
0.0
  0
LINE
  5
195
100
AcDbEntity
  8
0
 62
0
370
-1
 48
1.0
  6
BYLAYER
100
AcDbLine
 10
9.7634100000000004
 20
25.7555999999999941
 30
0.0
 11
8.9627800000000022
 21
25.7555999999999941
 31
0.0
  0
LINE
  5
196
100
AcDbEntity
  8
0
 62
0
370
-1
 48
1.0
  6
BYLAYER
100
AcDbLine
 10
26.432105
 20
44.8055999999999983
 30
0.0
 11
25.6314750000000018
 21
44.8055999999999983
 31
0.0
  0
LINE
  5
197
100
AcDbEntity
  8
0
 62
0
370
-1
 48
1.0
  6
BYLAYER
100
AcDbLine
 10
5.0009100000000029
 20
44.8055999999999983
 30
0.0
 11
4.2002800000000047
 21
44.8055999999999983
 31
0.0
  0
LINE
  5
198
100
AcDbEntity
  8
0
 62
0
370
-1
 48
1.0
  6
BYLAYER
100
AcDbLine
 10
45.4821049999999971
 20
44.8055999999999983
 30
0.0
 11
44.6814749999999989
 21
44.8055999999999983
 31
0.0
  0
LINE
  5
199
100
AcDbEntity
  8
0
 62
0
370
-1
 48
1.0
  6
BYLAYER
100
AcDbLine
 10
188.3572550000000092
 20
25.7555999999999941
 30
0.0
 11
187.5566249999999968
 21
25.7555999999999941
 31
0.0
  0
LINE
  5
19A
100
AcDbEntity
  8
0
 62
0
370
-1
 48
1.0
  6
BYLAYER
100
AcDbLine
 10
174.0697550000000149
 20
63.8556000000000026
 30
0.0
 11
173.2691250000000025
 21
63.8556000000000026
 31
0.0
  0
LINE
  5
19B
100
AcDbEntity
  8
0
 62
0
370
-1
 48
1.0
  6
BYLAYER
100
AcDbLine
 10
135.9697549999999922
 20
63.8556000000000026
 30
0.0
 11
135.1691249999999798
 21
63.8556000000000026
 31
0.0
  0
LINE
  5
19C
100
AcDbEntity
  8
0
 62
0
370
-1
 48
1.0
  6
BYLAYER
100
AcDbLine
 10
155.0197550000000035
 20
63.8556000000000026
 30
0.0
 11
154.2191249999999911
 21
63.8556000000000026
 31
0.0
  0
LINE
  5
19D
100
AcDbEntity
  8
0
 62
0
370
-1
 48
1.0
  6
BYLAYER
100
AcDbLine
 10
116.9187550000000044
 20
63.8556000000000026
 30
0.0
 11
116.1181250000000205
 21
63.8556000000000026
 31
0.0
  0
LINE
  5
19E
100
AcDbEntity
  8
0
 62
0
370
-1
 48
1.0
  6
BYLAYER
100
AcDbLine
 10
97.8689050000000123
 20
63.8556000000000026
 30
0.0
 11
97.0682749999999999
 21
63.8556000000000026
 31
0.0
  0
LINE
  5
19F
100
AcDbEntity
  8
0
 62
0
370
-1
 48
1.0
  6
BYLAYER
100
AcDbLine
 10
59.7696050000000056
 20
63.8556000000000026
 30
0.0
 11
58.9689750000000075
 21
63.8556000000000026
 31
0.0
  0
LINE
  5
1A0
100
AcDbEntity
  8
0
 62
0
370
-1
 48
1.0
  6
BYLAYER
100
AcDbLine
 10
55.5196950000000058
 20
63.8556000000000026
 30
0.0
 11
54.71909500000001
 21
63.8556000000000026
 31
0.0
  0
LINE
  5
1A1
100
AcDbEntity
  8
0
 62
0
370
-1
 48
1.0
  6
BYLAYER
100
AcDbLine
 10
17.4197699999999998
 20
63.8556000000000026
 30
0.0
 11
16.619170000000004
 21
63.8556000000000026
 31
0.0
  0
LINE
  5
1A2
100
AcDbEntity
  8
0
 62
0
370
-1
 48
1.0
  6
BYLAYER
100
AcDbLine
 10
36.4696950000000015
 20
63.8556000000000026
 30
0.0
 11
35.6690949999999987
 21
63.8556000000000026
 31
0.0
  0
LINE
  5
1A3
100
AcDbEntity
  8
0
 62
0
370
-1
 48
1.0
  6
BYLAYER
100
AcDbLine
 10
98.3821949999999958
 20
44.8055999999999983
 30
0.0
 11
97.5815950000000072
 21
44.8055999999999983
 31
0.0
  0
LINE
  5
1A4
100
AcDbEntity
  8
0
 62
0
370
-1
 48
1.0
  6
BYLAYER
100
AcDbLine
 10
79.3321949999999845
 20
44.8055999999999983
 30
0.0
 11
78.5315949999999958
 21
44.8055999999999983
 31
0.0
  0
LINE
  5
1A5
100
AcDbEntity
  8
0
 62
0
370
-1
 48
1.0
  6
BYLAYER
100
AcDbLine
 10
117.432344999999998
 20
44.8055999999999983
 30
0.0
 11
116.6317450000000093
 21
44.8055999999999983
 31
0.0
  0
LINE
  5
1A6
100
AcDbEntity
  8
0
 62
0
370
-1
 48
1.0
  6
BYLAYER
100
AcDbLine
 10
136.4823449999999809
 20
44.8055999999999983
 30
0.0
 11
135.6817449999999781
 21
44.8055999999999983
 31
0.0
  0
LINE
  5
1A7
100
AcDbEntity
  8
0
 62
0
370
-1
 48
1.0
  6
BYLAYER
100
AcDbLine
 10
174.5823450000000037
 20
44.8055999999999983
 30
0.0
 11
173.7817450000000008
 21
44.8055999999999983
 31
0.0
  0
LINE
  5
1A8
100
AcDbEntity
  8
0
 62
0
370
-1
 48
1.0
  6
BYLAYER
100
AcDbLine
 10
155.5323449999999923
 20
44.8055999999999983
 30
0.0
 11
154.7317449999999894
 21
44.8055999999999983
 31
0.0
  0
LINE
  5
1A9
100
AcDbEntity
  8
0
 62
0
370
-1
 48
1.0
  6
BYLAYER
100
AcDbLine
 10
193.6323449999999866
 20
44.8055999999999983
 30
0.0
 11
192.8317450000000122
 21
44.8055999999999983
 31
0.0
  0
LINE
  5
1AA
100
AcDbEntity
  8
0
 62
0
370
-1
 48
1.0
  6
BYLAYER
100
AcDbLine
 10
238.8758449999999698
 20
44.8055999999999983
 30
0.0
 11
238.0752449999999953
 21
44.8055999999999983
 31
0.0
  0
LINE
  5
1AB
100
AcDbEntity
  8
0
 62
0
370
-1
 48
1.0
  6
BYLAYER
100
AcDbLine
 10
212.682344999999998
 20
44.8055999999999983
 30
0.0
 11
211.8817450000000235
 21
44.8055999999999983
 31
0.0
  0
LINE
  5
1AC
100
AcDbEntity
  8
0
 62
0
370
-1
 48
1.0
  6
BYLAYER
100
AcDbLine
 10
246.0198449999999752
 20
63.8556000000000026
 30
0.0
 11
245.2192450000000008
 21
63.8556000000000026
 31
0.0
  0
LINE
  5
1AD
100
AcDbEntity
  8
0
 62
0
370
-1
 48
1.0
  6
BYLAYER
100
AcDbLine
 10
207.9198450000000093
 20
63.8556000000000026
 30
0.0
 11
207.1192450000000349
 21
63.8556000000000026
 31
0.0
  0
LINE
  5
1AE
100
AcDbEntity
  8
0
 62
0
370
-1
 48
1.0
  6
BYLAYER
100
AcDbLine
 10
226.9698449999999923
 20
63.8556000000000026
 30
0.0
 11
226.1692449999999894
 21
63.8556000000000026
 31
0.0
  0
LINE
  5
1AF
100
AcDbEntity
  8
0
 62
0
370
-1
 48
1.0
  6
BYLAYER
100
AcDbLine
 10
165.057344999999998
 20
25.7555999999999941
 30
0.0
 11
164.2567450000000235
 21
25.7555999999999941
 31
0.0
  0
LINE
  5
1B0
100
AcDbEntity
  8
0
 62
0
370
-1
 48
1.0
  6
BYLAYER
100
AcDbLine
 10
184.1073449999999809
 20
25.7555999999999941
 30
0.0
 11
183.3067449999999781
 21
25.7555999999999941
 31
0.0
  0
LINE
  5
1B1
100
AcDbEntity
  8
0
 62
0
370
-1
 48
1.0
  6
BYLAYER
100
AcDbLine
 10
146.0073449999999866
 20
25.7555999999999941
 30
0.0
 11
145.2067450000000122
 21
25.7555999999999941
 31
0.0
  0
LINE
  5
1B2
100
AcDbEntity
  8
0
 62
0
370
-1
 48
1.0
  6
BYLAYER
100
AcDbLine
 10
107.9074449999999956
 20
25.7555999999999941
 30
0.0
 11
107.106845000000007
 21
25.7555999999999941
 31
0.0
  0
LINE
  5
1B3
100
AcDbEntity
  8
0
 62
0
370
-1
 48
1.0
  6
BYLAYER
100
AcDbLine
 10
126.9573450000000037
 20
25.7555999999999941
 30
0.0
 11
126.1567450000000008
 21
25.7555999999999941
 31
0.0
  0
LINE
  5
1B4
100
AcDbEntity
  8
0
 62
0
370
-1
 48
1.0
  6
BYLAYER
100
AcDbLine
 10
88.8571949999999902
 20
25.7555999999999941
 30
0.0
 11
88.0565950000000015
 21
25.7555999999999941
 31
0.0
  0
LINE
  5
1B5
100
AcDbEntity
  8
0
 62
0
370
-1
 48
1.0
  6
BYLAYER
100
AcDbLine
 10
50.7571950000000029
 20
25.7555999999999941
 30
0.0
 11
49.9565950000000072
 21
25.7555999999999941
 31
0.0
  0
LINE
  5
1B6
100
AcDbEntity
  8
0
 62
0
370
-1
 48
1.0
  6
BYLAYER
100
AcDbLine
 10
69.8071950000000072
 20
25.7555999999999941
 30
0.0
 11
69.0065950000000043
 21
25.7555999999999941
 31
0.0
  0
LINE
  5
1B7
100
AcDbEntity
  8
0
 62
0
370
-1
 48
1.0
  6
BYLAYER
100
AcDbLine
 10
24.5634999999999977
 20
25.7555999999999941
 30
0.0
 11
23.7629000000000019
 21
25.7555999999999941
 31
0.0
  0
LINE
  5
1B8
100
AcDbEntity
  8
0
 62
0
370
-1
 48
1.0
  6
BYLAYER
100
AcDbLine
 10
41.2321949999999973
 20
44.8055999999999983
 30
0.0
 11
40.4315950000000015
 21
44.8055999999999983
 31
0.0
  0
LINE
  5
1B9
100
AcDbEntity
  8
0
 62
0
370
-1
 48
1.0
  6
BYLAYER
100
AcDbLine
 10
19.8010000000000019
 20
44.8055999999999983
 30
0.0
 11
19.0004000000000062
 21
44.8055999999999983
 31
0.0
  0
LINE
  5
1BA
100
AcDbEntity
  8
0
 62
0
370
-1
 48
1.0
  6
BYLAYER
100
AcDbLine
 10
60.2821949999999944
 20
44.8055999999999983
 30
0.0
 11
59.4815949999999987
 21
44.8055999999999983
 31
0.0
  0
LINE
  5
1BB
100
AcDbEntity
  8
0
 62
0
370
-1
 48
1.0
  6
BYLAYER
100
AcDbLine
 10
203.1573449999999923
 20
25.7555999999999941
 30
0.0
 11
202.3567449999999894
 21
25.7555999999999941
 31
0.0
  0
LINE
  5
1BC
100
AcDbEntity
  8
0
 62
0
370
-1
 48
1.0
  6
BYLAYER
100
AcDbLine
 10
188.869844999999998
 20
63.8556000000000026
 30
0.0
 11
188.0692450000000235
 21
63.8556000000000026
 31
0.0
  0
LINE
  5
1BD
100
AcDbEntity
  8
0
 62
0
370
-1
 48
1.0
  6
BYLAYER
100
AcDbLine
 10
150.7698449999999752
 20
63.8556000000000026
 30
0.0
 11
149.9692450000000008
 21
63.8556000000000026
 31
0.0
  0
LINE
  5
1BE
100
AcDbEntity
  8
0
 62
0
370
-1
 48
1.0
  6
BYLAYER
100
AcDbLine
 10
169.8198449999999866
 20
63.8556000000000026
 30
0.0
 11
169.0192450000000122
 21
63.8556000000000026
 31
0.0
  0
LINE
  5
1BF
100
AcDbEntity
  8
0
 62
0
370
-1
 48
1.0
  6
BYLAYER
100
AcDbLine
 10
131.7188450000000159
 20
63.8556000000000026
 30
0.0
 11
130.9182450000000131
 21
63.8556000000000026
 31
0.0
  0
LINE
  5
1C0
100
AcDbEntity
  8
0
 62
0
370
-1
 48
1.0
  6
BYLAYER
100
AcDbLine
 10
93.6196950000000072
 20
63.8556000000000026
 30
0.0
 11
92.8190950000000043
 21
63.8556000000000026
 31
0.0
  0
LINE
  5
1C1
100
AcDbEntity
  8
0
 62
0
370
-1
 48
1.0
  6
BYLAYER
100
AcDbLine
 10
112.6689949999999953
 20
63.8556000000000026
 30
0.0
 11
111.8683950000000067
 21
63.8556000000000026
 31
0.0
  0
LINE
  5
1C2
100
AcDbEntity
  8
0
 62
0
370
-1
 48
1.0
  6
BYLAYER
100
AcDbLine
 10
74.5696949999999958
 20
63.8556000000000026
 30
0.0
 11
73.7690950000000072
 21
63.8556000000000026
 31
0.0
  0
LINE
  5
1C3
100
AcDbEntity
  8
0
 62
0
370
-1
 48
1.0
  6
BYLAYER
100
AcDbLine
 10
35.6690949999999987
 20
63.8556000000000026
 30
0.0
 11
35.6690949999999987
 21
69.6556000000000068
 31
0.0
  0
LINE
  5
1C4
100
AcDbEntity
  8
0
 62
0
370
-1
 48
1.0
  6
BYLAYER
100
AcDbLine
 10
54.71909500000001
 20
63.8556000000000026
 30
0.0
 11
54.71909500000001
 21
69.6556000000000068
 31
0.0
  0
LINE
  5
1C5
100
AcDbEntity
  8
0
 62
0
370
-1
 48
1.0
  6
BYLAYER
100
AcDbLine
 10
16.619170000000004
 20
63.8556000000000026
 30
0.0
 11
16.619170000000004
 21
69.6556000000000068
 31
0.0
  0
LINE
  5
1C6
100
AcDbEntity
  8
0
 62
0
370
-1
 48
1.0
  6
BYLAYER
100
AcDbLine
 10
97.5815950000000072
 20
44.8055999999999983
 30
0.0
 11
97.5815950000000072
 21
50.6056000000000026
 31
0.0
  0
LINE
  5
1C7
100
AcDbEntity
  8
0
 62
0
370
-1
 48
1.0
  6
BYLAYER
100
AcDbLine
 10
78.5315949999999958
 20
44.8055999999999983
 30
0.0
 11
78.5315949999999958
 21
50.6056000000000026
 31
0.0
  0
LINE
  5
1C8
100
AcDbEntity
  8
0
 62
0
370
-1
 48
1.0
  6
BYLAYER
100
AcDbLine
 10
116.6317450000000093
 20
44.8055999999999983
 30
0.0
 11
116.6317450000000093
 21
50.6056000000000026
 31
0.0
  0
LINE
  5
1C9
100
AcDbEntity
  8
0
 62
0
370
-1
 48
1.0
  6
BYLAYER
100
AcDbLine
 10
154.7317449999999894
 20
44.8055999999999983
 30
0.0
 11
154.7317449999999894
 21
50.6056000000000026
 31
0.0
  0
LINE
  5
1CA
100
AcDbEntity
  8
0
 62
0
370
-1
 48
1.0
  6
BYLAYER
100
AcDbLine
 10
135.6817449999999781
 20
44.8055999999999983
 30
0.0
 11
135.6817449999999781
 21
50.6056000000000026
 31
0.0
  0
LINE
  5
1CB
100
AcDbEntity
  8
0
 62
0
370
-1
 48
1.0
  6
BYLAYER
100
AcDbLine
 10
173.7817450000000008
 20
44.8055999999999983
 30
0.0
 11
173.7817450000000008
 21
50.6056000000000026
 31
0.0
  0
LINE
  5
1CC
100
AcDbEntity
  8
0
 62
0
370
-1
 48
1.0
  6
BYLAYER
100
AcDbLine
 10
192.8317450000000122
 20
44.8055999999999983
 30
0.0
 11
192.8317450000000122
 21
50.6056000000000026
 31
0.0
  0
LINE
  5
1CD
100
AcDbEntity
  8
0
 62
0
370
-1
 48
1.0
  6
BYLAYER
100
AcDbLine
 10
238.0752449999999953
 20
44.8055999999999983
 30
0.0
 11
238.0752449999999953
 21
50.6056000000000026
 31
0.0
  0
LINE
  5
1CE
100
AcDbEntity
  8
0
 62
0
370
-1
 48
1.0
  6
BYLAYER
100
AcDbLine
 10
211.8817450000000235
 20
44.8055999999999983
 30
0.0
 11
211.8817450000000235
 21
50.6056000000000026
 31
0.0
  0
LINE
  5
1CF
100
AcDbEntity
  8
0
 62
0
370
-1
 48
1.0
  6
BYLAYER
100
AcDbLine
 10
245.2192450000000008
 20
63.8556000000000026
 30
0.0
 11
245.2192450000000008
 21
69.6556000000000068
 31
0.0
  0
LINE
  5
1D0
100
AcDbEntity
  8
0
 62
0
370
-1
 48
1.0
  6
BYLAYER
100
AcDbLine
 10
207.1192450000000349
 20
63.8556000000000026
 30
0.0
 11
207.1192450000000349
 21
69.6556000000000068
 31
0.0
  0
LINE
  5
1D1
100
AcDbEntity
  8
0
 62
0
370
-1
 48
1.0
  6
BYLAYER
100
AcDbLine
 10
226.1692449999999894
 20
63.8556000000000026
 30
0.0
 11
226.1692449999999894
 21
69.6556000000000068
 31
0.0
  0
LINE
  5
1D2
100
AcDbEntity
  8
0
 62
0
370
-1
 48
1.0
  6
BYLAYER
100
AcDbLine
 10
164.2567450000000235
 20
25.7555999999999941
 30
0.0
 11
164.2567450000000235
 21
31.5555999999999983
 31
0.0
  0
LINE
  5
1D3
100
AcDbEntity
  8
0
 62
0
370
-1
 48
1.0
  6
BYLAYER
100
AcDbLine
 10
145.2067450000000122
 20
25.7555999999999941
 30
0.0
 11
145.2067450000000122
 21
31.5555999999999983
 31
0.0
  0
LINE
  5
1D4
100
AcDbEntity
  8
0
 62
0
370
-1
 48
1.0
  6
BYLAYER
100
AcDbLine
 10
107.106845000000007
 20
25.7555999999999941
 30
0.0
 11
107.106845000000007
 21
31.5555999999999983
 31
0.0
  0
LINE
  5
1D5
100
AcDbEntity
  8
0
 62
0
370
-1
 48
1.0
  6
BYLAYER
100
AcDbLine
 10
126.1567450000000008
 20
25.7555999999999941
 30
0.0
 11
126.1567450000000008
 21
31.5555999999999983
 31
0.0
  0
LINE
  5
1D6
100
AcDbEntity
  8
0
 62
0
370
-1
 48
1.0
  6
BYLAYER
100
AcDbLine
 10
88.0565950000000015
 20
25.7555999999999941
 30
0.0
 11
88.0565950000000015
 21
31.5555999999999983
 31
0.0
  0
LINE
  5
1D7
100
AcDbEntity
  8
0
 62
0
370
-1
 48
1.0
  6
BYLAYER
100
AcDbLine
 10
49.9565950000000072
 20
25.7555999999999941
 30
0.0
 11
49.9565950000000072
 21
31.5555999999999983
 31
0.0
  0
LINE
  5
1D8
100
AcDbEntity
  8
0
 62
0
370
-1
 48
1.0
  6
BYLAYER
100
AcDbLine
 10
69.0065950000000043
 20
25.7555999999999941
 30
0.0
 11
69.0065950000000043
 21
31.5555999999999983
 31
0.0
  0
LINE
  5
1D9
100
AcDbEntity
  8
0
 62
0
370
-1
 48
1.0
  6
BYLAYER
100
AcDbLine
 10
23.7629000000000019
 20
25.7555999999999941
 30
0.0
 11
23.7629000000000019
 21
31.5555999999999983
 31
0.0
  0
LINE
  5
1DA
100
AcDbEntity
  8
0
 62
0
370
-1
 48
1.0
  6
BYLAYER
100
AcDbLine
 10
40.4315950000000015
 20
44.8055999999999983
 30
0.0
 11
40.4315950000000015
 21
50.6056000000000026
 31
0.0
  0
LINE
  5
1DB
100
AcDbEntity
  8
0
 62
0
370
-1
 48
1.0
  6
BYLAYER
100
AcDbLine
 10
19.0004000000000062
 20
44.8055999999999983
 30
0.0
 11
19.0004000000000062
 21
50.6056000000000026
 31
0.0
  0
LINE
  5
1DC
100
AcDbEntity
  8
0
 62
0
370
-1
 48
1.0
  6
BYLAYER
100
AcDbLine
 10
59.4815949999999987
 20
44.8055999999999983
 30
0.0
 11
59.4815949999999987
 21
50.6056000000000026
 31
0.0
  0
LINE
  5
1DD
100
AcDbEntity
  8
0
 62
0
370
-1
 48
1.0
  6
BYLAYER
100
AcDbLine
 10
183.3067449999999781
 20
25.7555999999999941
 30
0.0
 11
183.3067449999999781
 21
31.5555999999999983
 31
0.0
  0
LINE
  5
1DE
100
AcDbEntity
  8
0
 62
0
370
-1
 48
1.0
  6
BYLAYER
100
AcDbLine
 10
202.3567449999999894
 20
25.7555999999999941
 30
0.0
 11
202.3567449999999894
 21
31.5555999999999983
 31
0.0
  0
LINE
  5
1DF
100
AcDbEntity
  8
0
 62
0
370
-1
 48
1.0
  6
BYLAYER
100
AcDbLine
 10
188.0692450000000235
 20
63.8556000000000026
 30
0.0
 11
188.0692450000000235
 21
69.6556000000000068
 31
0.0
  0
LINE
  5
1E0
100
AcDbEntity
  8
0
 62
0
370
-1
 48
1.0
  6
BYLAYER
100
AcDbLine
 10
149.9692450000000008
 20
63.8556000000000026
 30
0.0
 11
149.9692450000000008
 21
69.6556000000000068
 31
0.0
  0
LINE
  5
1E1
100
AcDbEntity
  8
0
 62
0
370
-1
 48
1.0
  6
BYLAYER
100
AcDbLine
 10
169.0192450000000122
 20
63.8556000000000026
 30
0.0
 11
169.0192450000000122
 21
69.6556000000000068
 31
0.0
  0
LINE
  5
1E2
100
AcDbEntity
  8
0
 62
0
370
-1
 48
1.0
  6
BYLAYER
100
AcDbLine
 10
130.9182450000000131
 20
63.8556000000000026
 30
0.0
 11
130.9182450000000131
 21
69.6556000000000068
 31
0.0
  0
LINE
  5
1E3
100
AcDbEntity
  8
0
 62
0
370
-1
 48
1.0
  6
BYLAYER
100
AcDbLine
 10
92.8190950000000043
 20
63.8556000000000026
 30
0.0
 11
92.8190950000000043
 21
69.6556000000000068
 31
0.0
  0
LINE
  5
1E4
100
AcDbEntity
  8
0
 62
0
370
-1
 48
1.0
  6
BYLAYER
100
AcDbLine
 10
111.8683950000000067
 20
63.8556000000000026
 30
0.0
 11
111.8683950000000067
 21
69.6556000000000068
 31
0.0
  0
LINE
  5
1E5
100
AcDbEntity
  8
0
 62
0
370
-1
 48
1.0
  6
BYLAYER
100
AcDbLine
 10
73.7690950000000072
 20
63.8556000000000026
 30
0.0
 11
73.7690950000000072
 21
69.6556000000000068
 31
0.0
  0
LINE
  5
1E6
100
AcDbEntity
  8
0
 62
0
370
-1
 48
1.0
  6
BYLAYER
100
AcDbLine
 10
35.6690949999999987
 20
69.6556000000000068
 30
0.0
 11
36.4696950000000015
 21
69.6556000000000068
 31
0.0
  0
LINE
  5
1E7
100
AcDbEntity
  8
0
 62
0
370
-1
 48
1.0
  6
BYLAYER
100
AcDbLine
 10
54.71909500000001
 20
69.6556000000000068
 30
0.0
 11
55.5196950000000058
 21
69.6556000000000068
 31
0.0
  0
LINE
  5
1E8
100
AcDbEntity
  8
0
 62
0
370
-1
 48
1.0
  6
BYLAYER
100
AcDbLine
 10
16.619170000000004
 20
69.6556000000000068
 30
0.0
 11
17.4197699999999998
 21
69.6556000000000068
 31
0.0
  0
LINE
  5
1E9
100
AcDbEntity
  8
0
 62
0
370
-1
 48
1.0
  6
BYLAYER
100
AcDbLine
 10
97.5815950000000072
 20
50.6056000000000026
 30
0.0
 11
98.3821949999999958
 21
50.6056000000000026
 31
0.0
  0
LINE
  5
1EA
100
AcDbEntity
  8
0
 62
0
370
-1
 48
1.0
  6
BYLAYER
100
AcDbLine
 10
78.5315949999999958
 20
50.6056000000000026
 30
0.0
 11
79.3321949999999845
 21
50.6056000000000026
 31
0.0
  0
LINE
  5
1EB
100
AcDbEntity
  8
0
 62
0
370
-1
 48
1.0
  6
BYLAYER
100
AcDbLine
 10
116.6317450000000093
 20
50.6056000000000026
 30
0.0
 11
117.432344999999998
 21
50.6056000000000026
 31
0.0
  0
LINE
  5
1EC
100
AcDbEntity
  8
0
 62
0
370
-1
 48
1.0
  6
BYLAYER
100
AcDbLine
 10
154.7317449999999894
 20
50.6056000000000026
 30
0.0
 11
155.5323449999999923
 21
50.6056000000000026
 31
0.0
  0
LINE
  5
1ED
100
AcDbEntity
  8
0
 62
0
370
-1
 48
1.0
  6
BYLAYER
100
AcDbLine
 10
135.6817449999999781
 20
50.6056000000000026
 30
0.0
 11
136.4823449999999809
 21
50.6056000000000026
 31
0.0
  0
LINE
  5
1EE
100
AcDbEntity
  8
0
 62
0
370
-1
 48
1.0
  6
BYLAYER
100
AcDbLine
 10
173.7817450000000008
 20
50.6056000000000026
 30
0.0
 11
174.5823450000000037
 21
50.6056000000000026
 31
0.0
  0
LINE
  5
1EF
100
AcDbEntity
  8
0
 62
0
370
-1
 48
1.0
  6
BYLAYER
100
AcDbLine
 10
211.8817450000000235
 20
50.6056000000000026
 30
0.0
 11
212.682344999999998
 21
50.6056000000000026
 31
0.0
  0
LINE
  5
1F0
100
AcDbEntity
  8
0
 62
0
370
-1
 48
1.0
  6
BYLAYER
100
AcDbLine
 10
192.8317450000000122
 20
50.6056000000000026
 30
0.0
 11
193.6323449999999866
 21
50.6056000000000026
 31
0.0
  0
LINE
  5
1F1
100
AcDbEntity
  8
0
 62
0
370
-1
 48
1.0
  6
BYLAYER
100
AcDbLine
 10
238.0752449999999953
 20
50.6056000000000026
 30
0.0
 11
238.8758449999999698
 21
50.6056000000000026
 31
0.0
  0
LINE
  5
1F2
100
AcDbEntity
  8
0
 62
0
370
-1
 48
1.0
  6
BYLAYER
100
AcDbLine
 10
245.2192450000000008
 20
69.6556000000000068
 30
0.0
 11
246.0198449999999752
 21
69.6556000000000068
 31
0.0
  0
LINE
  5
1F3
100
AcDbEntity
  8
0
 62
0
370
-1
 48
1.0
  6
BYLAYER
100
AcDbLine
 10
207.1192450000000349
 20
69.6556000000000068
 30
0.0
 11
207.9198450000000093
 21
69.6556000000000068
 31
0.0
  0
LINE
  5
1F4
100
AcDbEntity
  8
0
 62
0
370
-1
 48
1.0
  6
BYLAYER
100
AcDbLine
 10
226.1692449999999894
 20
69.6556000000000068
 30
0.0
 11
226.9698449999999923
 21
69.6556000000000068
 31
0.0
  0
LINE
  5
1F5
100
AcDbEntity
  8
0
 62
0
370
-1
 48
1.0
  6
BYLAYER
100
AcDbLine
 10
164.2567450000000235
 20
31.5555999999999983
 30
0.0
 11
165.057344999999998
 21
31.5555999999999983
 31
0.0
  0
LINE
  5
1F6
100
AcDbEntity
  8
0
 62
0
370
-1
 48
1.0
  6
BYLAYER
100
AcDbLine
 10
126.1567450000000008
 20
31.5555999999999983
 30
0.0
 11
126.9573450000000037
 21
31.5555999999999983
 31
0.0
  0
LINE
  5
1F7
100
AcDbEntity
  8
0
 62
0
370
-1
 48
1.0
  6
BYLAYER
100
AcDbLine
 10
145.2067450000000122
 20
31.5555999999999983
 30
0.0
 11
146.0073449999999866
 21
31.5555999999999983
 31
0.0
  0
LINE
  5
1F8
100
AcDbEntity
  8
0
 62
0
370
-1
 48
1.0
  6
BYLAYER
100
AcDbLine
 10
107.106845000000007
 20
31.5555999999999983
 30
0.0
 11
107.9074449999999956
 21
31.5555999999999983
 31
0.0
  0
LINE
  5
1F9
100
AcDbEntity
  8
0
 62
0
370
-1
 48
1.0
  6
BYLAYER
100
AcDbLine
 10
88.0565950000000015
 20
31.5555999999999983
 30
0.0
 11
88.8571949999999902
 21
31.5555999999999983
 31
0.0
  0
LINE
  5
1FA
100
AcDbEntity
  8
0
 62
0
370
-1
 48
1.0
  6
BYLAYER
100
AcDbLine
 10
49.9565950000000072
 20
31.5555999999999983
 30
0.0
 11
50.7571950000000029
 21
31.5555999999999983
 31
0.0
  0
LINE
  5
1FB
100
AcDbEntity
  8
0
 62
0
370
-1
 48
1.0
  6
BYLAYER
100
AcDbLine
 10
69.0065950000000043
 20
31.5555999999999983
 30
0.0
 11
69.8071950000000072
 21
31.5555999999999983
 31
0.0
  0
LINE
  5
1FC
100
AcDbEntity
  8
0
 62
0
370
-1
 48
1.0
  6
BYLAYER
100
AcDbLine
 10
23.7629000000000019
 20
31.5555999999999983
 30
0.0
 11
24.5634999999999977
 21
31.5555999999999983
 31
0.0
  0
LINE
  5
1FD
100
AcDbEntity
  8
0
 62
0
370
-1
 48
1.0
  6
BYLAYER
100
AcDbLine
 10
40.4315950000000015
 20
50.6056000000000026
 30
0.0
 11
41.2321949999999973
 21
50.6056000000000026
 31
0.0
  0
LINE
  5
1FE
100
AcDbEntity
  8
0
 62
0
370
-1
 48
1.0
  6
BYLAYER
100
AcDbLine
 10
19.0004000000000062
 20
50.6056000000000026
 30
0.0
 11
19.8010000000000019
 21
50.6056000000000026
 31
0.0
  0
LINE
  5
1FF
100
AcDbEntity
  8
0
 62
0
370
-1
 48
1.0
  6
BYLAYER
100
AcDbLine
 10
59.4815949999999987
 20
50.6056000000000026
 30
0.0
 11
60.2821949999999944
 21
50.6056000000000026
 31
0.0
  0
LINE
  5
200
100
AcDbEntity
  8
0
 62
0
370
-1
 48
1.0
  6
BYLAYER
100
AcDbLine
 10
183.3067449999999781
 20
31.5555999999999983
 30
0.0
 11
184.1073449999999809
 21
31.5555999999999983
 31
0.0
  0
LINE
  5
201
100
AcDbEntity
  8
0
 62
0
370
-1
 48
1.0
  6
BYLAYER
100
AcDbLine
 10
202.3567449999999894
 20
31.5555999999999983
 30
0.0
 11
203.1573449999999923
 21
31.5555999999999983
 31
0.0
  0
LINE
  5
202
100
AcDbEntity
  8
0
 62
0
370
-1
 48
1.0
  6
BYLAYER
100
AcDbLine
 10
188.0692450000000235
 20
69.6556000000000068
 30
0.0
 11
188.869844999999998
 21
69.6556000000000068
 31
0.0
  0
LINE
  5
203
100
AcDbEntity
  8
0
 62
0
370
-1
 48
1.0
  6
BYLAYER
100
AcDbLine
 10
149.9692450000000008
 20
69.6556000000000068
 30
0.0
 11
150.7698449999999752
 21
69.6556000000000068
 31
0.0
  0
LINE
  5
204
100
AcDbEntity
  8
0
 62
0
370
-1
 48
1.0
  6
BYLAYER
100
AcDbLine
 10
169.0192450000000122
 20
69.6556000000000068
 30
0.0
 11
169.8198449999999866
 21
69.6556000000000068
 31
0.0
  0
LINE
  5
205
100
AcDbEntity
  8
0
 62
0
370
-1
 48
1.0
  6
BYLAYER
100
AcDbLine
 10
130.9182450000000131
 20
69.6556000000000068
 30
0.0
 11
131.7188450000000159
 21
69.6556000000000068
 31
0.0
  0
LINE
  5
206
100
AcDbEntity
  8
0
 62
0
370
-1
 48
1.0
  6
BYLAYER
100
AcDbLine
 10
92.8190950000000043
 20
69.6556000000000068
 30
0.0
 11
93.6196950000000072
 21
69.6556000000000068
 31
0.0
  0
LINE
  5
207
100
AcDbEntity
  8
0
 62
0
370
-1
 48
1.0
  6
BYLAYER
100
AcDbLine
 10
111.8683950000000067
 20
69.6556000000000068
 30
0.0
 11
112.6689949999999953
 21
69.6556000000000068
 31
0.0
  0
LINE
  5
208
100
AcDbEntity
  8
0
 62
0
370
-1
 48
1.0
  6
BYLAYER
100
AcDbLine
 10
73.7690950000000072
 20
69.6556000000000068
 30
0.0
 11
74.5696949999999958
 21
69.6556000000000068
 31
0.0
  0
LINE
  5
209
100
AcDbEntity
  8
0
 62
0
370
-1
 48
1.0
  6
BYLAYER
100
AcDbLine
 10
36.4696950000000015
 20
63.8556000000000026
 30
0.0
 11
36.4697099999999921
 21
59.7558999999999969
 31
0.0
  0
LINE
  5
20A
100
AcDbEntity
  8
0
 62
0
370
-1
 48
1.0
  6
BYLAYER
100
AcDbLine
 10
36.4696950000000015
 20
69.6556000000000068
 30
0.0
 11
36.4697099999999921
 21
73.7553000000000054
 31
0.0
  0
LINE
  5
20B
100
AcDbEntity
  8
0
 62
0
370
-1
 48
1.0
  6
BYLAYER
100
AcDbLine
 10
55.5196950000000058
 20
63.8556000000000026
 30
0.0
 11
55.5197100000000034
 21
59.7558999999999969
 31
0.0
  0
LINE
  5
20C
100
AcDbEntity
  8
0
 62
0
370
-1
 48
1.0
  6
BYLAYER
100
AcDbLine
 10
55.5196950000000058
 20
69.6556000000000068
 30
0.0
 11
55.5197100000000034
 21
73.7553000000000054
 31
0.0
  0
LINE
  5
20D
100
AcDbEntity
  8
0
 62
0
370
-1
 48
1.0
  6
BYLAYER
100
AcDbLine
 10
17.4197699999999998
 20
63.8556000000000026
 30
0.0
 11
17.4197849999999974
 21
59.7558999999999969
 31
0.0
  0
LINE
  5
20E
100
AcDbEntity
  8
0
 62
0
370
-1
 48
1.0
  6
BYLAYER
100
AcDbLine
 10
17.4197699999999998
 20
69.6556000000000068
 30
0.0
 11
17.4197849999999974
 21
73.7553000000000054
 31
0.0
  0
LINE
  5
20F
100
AcDbEntity
  8
0
 62
0
370
-1
 48
1.0
  6
BYLAYER
100
AcDbLine
 10
98.3821949999999958
 20
44.8055999999999983
 30
0.0
 11
98.3822100000000006
 21
40.7058999999999997
 31
0.0
  0
LINE
  5
210
100
AcDbEntity
  8
0
 62
0
370
-1
 48
1.0
  6
BYLAYER
100
AcDbLine
 10
98.3821949999999958
 20
50.6056000000000026
 30
0.0
 11
98.3822100000000006
 21
54.7053000000000011
 31
0.0
  0
LINE
  5
211
100
AcDbEntity
  8
0
 62
0
370
-1
 48
1.0
  6
BYLAYER
100
AcDbLine
 10
79.3321949999999845
 20
44.8055999999999983
 30
0.0
 11
79.3322099999999892
 21
40.7058999999999997
 31
0.0
  0
LINE
  5
212
100
AcDbEntity
  8
0
 62
0
370
-1
 48
1.0
  6
BYLAYER
100
AcDbLine
 10
79.3321949999999845
 20
50.6056000000000026
 30
0.0
 11
79.3322099999999892
 21
54.7053000000000011
 31
0.0
  0
LINE
  5
213
100
AcDbEntity
  8
0
 62
0
370
-1
 48
1.0
  6
BYLAYER
100
AcDbLine
 10
117.432344999999998
 20
44.8055999999999983
 30
0.0
 11
117.4323600000000027
 21
40.7058999999999997
 31
0.0
  0
LINE
  5
214
100
AcDbEntity
  8
0
 62
0
370
-1
 48
1.0
  6
BYLAYER
100
AcDbLine
 10
117.432344999999998
 20
50.6056000000000026
 30
0.0
 11
117.4323600000000027
 21
54.7053000000000011
 31
0.0
  0
LINE
  5
215
100
AcDbEntity
  8
0
 62
0
370
-1
 48
1.0
  6
BYLAYER
100
AcDbLine
 10
155.5323449999999923
 20
44.8055999999999983
 30
0.0
 11
155.5323599999999828
 21
40.7058999999999997
 31
0.0
  0
LINE
  5
216
100
AcDbEntity
  8
0
 62
0
370
-1
 48
1.0
  6
BYLAYER
100
AcDbLine
 10
155.5323449999999923
 20
50.6056000000000026
 30
0.0
 11
155.5323599999999828
 21
54.7053000000000011
 31
0.0
  0
LINE
  5
217
100
AcDbEntity
  8
0
 62
0
370
-1
 48
1.0
  6
BYLAYER
100
AcDbLine
 10
136.4823449999999809
 20
44.8055999999999983
 30
0.0
 11
136.4823599999999715
 21
40.7058999999999997
 31
0.0
  0
LINE
  5
218
100
AcDbEntity
  8
0
 62
0
370
-1
 48
1.0
  6
BYLAYER
100
AcDbLine
 10
136.4823449999999809
 20
50.6056000000000026
 30
0.0
 11
136.4823599999999715
 21
54.7053000000000011
 31
0.0
  0
LINE
  5
219
100
AcDbEntity
  8
0
 62
0
370
-1
 48
1.0
  6
BYLAYER
100
AcDbLine
 10
174.5823450000000037
 20
44.8055999999999983
 30
0.0
 11
174.5823599999999942
 21
40.7058999999999997
 31
0.0
  0
LINE
  5
21A
100
AcDbEntity
  8
0
 62
0
370
-1
 48
1.0
  6
BYLAYER
100
AcDbLine
 10
174.5823450000000037
 20
50.6056000000000026
 30
0.0
 11
174.5823599999999942
 21
54.7053000000000011
 31
0.0
  0
LINE
  5
21B
100
AcDbEntity
  8
0
 62
0
370
-1
 48
1.0
  6
BYLAYER
100
AcDbLine
 10
212.682344999999998
 20
44.8055999999999983
 30
0.0
 11
212.682360000000017
 21
40.7058999999999997
 31
0.0
  0
LINE
  5
21C
100
AcDbEntity
  8
0
 62
0
370
-1
 48
1.0
  6
BYLAYER
100
AcDbLine
 10
212.682344999999998
 20
50.6056000000000026
 30
0.0
 11
212.682360000000017
 21
54.7053000000000011
 31
0.0
  0
LINE
  5
21D
100
AcDbEntity
  8
0
 62
0
370
-1
 48
1.0
  6
BYLAYER
100
AcDbLine
 10
193.6323449999999866
 20
44.8055999999999983
 30
0.0
 11
193.6323600000000056
 21
40.7058999999999997
 31
0.0
  0
LINE
  5
21E
100
AcDbEntity
  8
0
 62
0
370
-1
 48
1.0
  6
BYLAYER
100
AcDbLine
 10
193.6323449999999866
 20
50.6056000000000026
 30
0.0
 11
193.6323600000000056
 21
54.7053000000000011
 31
0.0
  0
LINE
  5
21F
100
AcDbEntity
  8
0
 62
0
370
-1
 48
1.0
  6
BYLAYER
100
AcDbLine
 10
238.8758449999999698
 20
44.8055999999999983
 30
0.0
 11
238.8758599999999888
 21
40.7058999999999997
 31
0.0
  0
LINE
  5
220
100
AcDbEntity
  8
0
 62
0
370
-1
 48
1.0
  6
BYLAYER
100
AcDbLine
 10
238.8758449999999698
 20
50.6056000000000026
 30
0.0
 11
238.8758599999999888
 21
54.7053000000000011
 31
0.0
  0
LINE
  5
221
100
AcDbEntity
  8
0
 62
0
370
-1
 48
1.0
  6
BYLAYER
100
AcDbLine
 10
226.9698449999999923
 20
63.8556000000000026
 30
0.0
 11
226.9698599999999828
 21
59.7558999999999969
 31
0.0
  0
LINE
  5
222
100
AcDbEntity
  8
0
 62
0
370
-1
 48
1.0
  6
BYLAYER
100
AcDbLine
 10
226.9698449999999923
 20
69.6556000000000068
 30
0.0
 11
226.9698599999999828
 21
73.7553000000000054
 31
0.0
  0
LINE
  5
223
100
AcDbEntity
  8
0
 62
0
370
-1
 48
1.0
  6
BYLAYER
100
AcDbLine
 10
246.0198449999999752
 20
63.8556000000000026
 30
0.0
 11
246.0198599999999942
 21
59.7558999999999969
 31
0.0
  0
LINE
  5
224
100
AcDbEntity
  8
0
 62
0
370
-1
 48
1.0
  6
BYLAYER
100
AcDbLine
 10
246.0198449999999752
 20
69.6556000000000068
 30
0.0
 11
246.0198599999999942
 21
73.7553000000000054
 31
0.0
  0
LINE
  5
225
100
AcDbEntity
  8
0
 62
0
370
-1
 48
1.0
  6
BYLAYER
100
AcDbLine
 10
207.9198450000000093
 20
63.8556000000000026
 30
0.0
 11
207.9198600000000283
 21
59.7558999999999969
 31
0.0
  0
LINE
  5
226
100
AcDbEntity
  8
0
 62
0
370
-1
 48
1.0
  6
BYLAYER
100
AcDbLine
 10
207.9198450000000093
 20
69.6556000000000068
 30
0.0
 11
207.9198600000000283
 21
73.7553000000000054
 31
0.0
  0
LINE
  5
227
100
AcDbEntity
  8
0
 62
0
370
-1
 48
1.0
  6
BYLAYER
100
AcDbLine
 10
165.057344999999998
 20
25.7555999999999941
 30
0.0
 11
165.057360000000017
 21
21.6558999999999919
 31
0.0
  0
LINE
  5
228
100
AcDbEntity
  8
0
 62
0
370
-1
 48
1.0
  6
BYLAYER
100
AcDbLine
 10
165.057344999999998
 20
31.5555999999999983
 30
0.0
 11
165.057360000000017
 21
35.6552999999999969
 31
0.0
  0
LINE
  5
229
100
AcDbEntity
  8
0
 62
0
370
-1
 48
1.0
  6
BYLAYER
100
AcDbLine
 10
126.9573450000000037
 20
25.7555999999999941
 30
0.0
 11
126.9573599999999942
 21
21.6558999999999919
 31
0.0
  0
LINE
  5
22A
100
AcDbEntity
  8
0
 62
0
370
-1
 48
1.0
  6
BYLAYER
100
AcDbLine
 10
126.9573450000000037
 20
31.5555999999999983
 30
0.0
 11
126.9573599999999942
 21
35.6552999999999969
 31
0.0
  0
LINE
  5
22B
100
AcDbEntity
  8
0
 62
0
370
-1
 48
1.0
  6
BYLAYER
100
AcDbLine
 10
146.0073449999999866
 20
25.7555999999999941
 30
0.0
 11
146.0073600000000056
 21
21.6558999999999919
 31
0.0
  0
LINE
  5
22C
100
AcDbEntity
  8
0
 62
0
370
-1
 48
1.0
  6
BYLAYER
100
AcDbLine
 10
146.0073449999999866
 20
31.5555999999999983
 30
0.0
 11
146.0073600000000056
 21
35.6552999999999969
 31
0.0
  0
LINE
  5
22D
100
AcDbEntity
  8
0
 62
0
370
-1
 48
1.0
  6
BYLAYER
100
AcDbLine
 10
107.9074449999999956
 20
25.7555999999999941
 30
0.0
 11
107.9074600000000004
 21
21.6558999999999919
 31
0.0
  0
LINE
  5
22E
100
AcDbEntity
  8
0
 62
0
370
-1
 48
1.0
  6
BYLAYER
100
AcDbLine
 10
107.9074449999999956
 20
31.5555999999999983
 30
0.0
 11
107.9074600000000004
 21
35.6552999999999969
 31
0.0
  0
LINE
  5
22F
100
AcDbEntity
  8
0
 62
0
370
-1
 48
1.0
  6
BYLAYER
100
AcDbLine
 10
69.8071950000000072
 20
25.7555999999999941
 30
0.0
 11
69.8072099999999978
 21
21.6558999999999919
 31
0.0
  0
LINE
  5
230
100
AcDbEntity
  8
0
 62
0
370
-1
 48
1.0
  6
BYLAYER
100
AcDbLine
 10
69.8071950000000072
 20
31.5555999999999983
 30
0.0
 11
69.8072099999999978
 21
35.6552999999999969
 31
0.0
  0
LINE
  5
231
100
AcDbEntity
  8
0
 62
0
370
-1
 48
1.0
  6
BYLAYER
100
AcDbLine
 10
88.8571949999999902
 20
25.7555999999999941
 30
0.0
 11
88.8572099999999949
 21
21.6558999999999919
 31
0.0
  0
LINE
  5
232
100
AcDbEntity
  8
0
 62
0
370
-1
 48
1.0
  6
BYLAYER
100
AcDbLine
 10
88.8571949999999902
 20
31.5555999999999983
 30
0.0
 11
88.8572099999999949
 21
35.6552999999999969
 31
0.0
  0
LINE
  5
233
100
AcDbEntity
  8
0
 62
0
370
-1
 48
1.0
  6
BYLAYER
100
AcDbLine
 10
50.7571950000000029
 20
25.7555999999999941
 30
0.0
 11
50.7572100000000006
 21
21.6558999999999919
 31
0.0
  0
LINE
  5
234
100
AcDbEntity
  8
0
 62
0
370
-1
 48
1.0
  6
BYLAYER
100
AcDbLine
 10
50.7571950000000029
 20
31.5555999999999983
 30
0.0
 11
50.7572100000000006
 21
35.6552999999999969
 31
0.0
  0
LINE
  5
235
100
AcDbEntity
  8
0
 62
0
370
-1
 48
1.0
  6
BYLAYER
100
AcDbLine
 10
19.8010000000000019
 20
50.6056000000000026
 30
0.0
 11
19.8010149999999996
 21
54.7053000000000011
 31
0.0
  0
LINE
  5
236
100
AcDbEntity
  8
0
 62
0
370
-1
 48
1.0
  6
BYLAYER
100
AcDbLine
 10
24.5634999999999977
 20
25.7555999999999941
 30
0.0
 11
24.5635149999999953
 21
21.6558999999999919
 31
0.0
  0
LINE
  5
237
100
AcDbEntity
  8
0
 62
0
370
-1
 48
1.0
  6
BYLAYER
100
AcDbLine
 10
24.5634999999999977
 20
31.5555999999999983
 30
0.0
 11
24.5635149999999953
 21
35.6552999999999969
 31
0.0
  0
LINE
  5
238
100
AcDbEntity
  8
0
 62
0
370
-1
 48
1.0
  6
BYLAYER
100
AcDbLine
 10
41.2321949999999973
 20
44.8055999999999983
 30
0.0
 11
41.2322099999999949
 21
40.7058999999999997
 31
0.0
  0
LINE
  5
239
100
AcDbEntity
  8
0
 62
0
370
-1
 48
1.0
  6
BYLAYER
100
AcDbLine
 10
41.2321949999999973
 20
50.6056000000000026
 30
0.0
 11
41.2322099999999949
 21
54.7053000000000011
 31
0.0
  0
LINE
  5
23A
100
AcDbEntity
  8
0
 62
0
370
-1
 48
1.0
  6
BYLAYER
100
AcDbLine
 10
19.8010000000000019
 20
44.8055999999999983
 30
0.0
 11
19.8010149999999996
 21
40.7058999999999997
 31
0.0
  0
LINE
  5
23B
100
AcDbEntity
  8
0
 62
0
370
-1
 48
1.0
  6
BYLAYER
100
AcDbLine
 10
60.2821949999999944
 20
44.8055999999999983
 30
0.0
 11
60.2822099999999921
 21
40.7058999999999997
 31
0.0
  0
LINE
  5
23C
100
AcDbEntity
  8
0
 62
0
370
-1
 48
1.0
  6
BYLAYER
100
AcDbLine
 10
60.2821949999999944
 20
50.6056000000000026
 30
0.0
 11
60.2822099999999921
 21
54.7053000000000011
 31
0.0
  0
LINE
  5
23D
100
AcDbEntity
  8
0
 62
0
370
-1
 48
1.0
  6
BYLAYER
100
AcDbLine
 10
105.5255999999999972
 20
12.5056150000000024
 30
0.0
 11
105.5256149999999877
 21
16.6053150000000009
 31
0.0
  0
LINE
  5
23E
100
AcDbEntity
  8
0
 62
0
370
-1
 48
1.0
  6
BYLAYER
100
AcDbLine
 10
105.5255999999999972
 20
6.7056149999999981
 30
0.0
 11
105.5256149999999877
 21
2.605914999999996
 31
0.0
  0
LINE
  5
23F
100
AcDbEntity
  8
0
 62
0
370
-1
 48
1.0
  6
BYLAYER
100
AcDbLine
 10
246.019599999999997
 20
12.5056150000000024
 30
0.0
 11
246.0196149999999875
 21
16.6053150000000009
 31
0.0
  0
LINE
  5
240
100
AcDbEntity
  8
0
 62
0
370
-1
 48
1.0
  6
BYLAYER
100
AcDbLine
 10
246.019599999999997
 20
6.7056149999999981
 30
0.0
 11
246.0196149999999875
 21
2.605914999999996
 31
0.0
  0
LINE
  5
241
100
AcDbEntity
  8
0
 62
0
370
-1
 48
1.0
  6
BYLAYER
100
AcDbLine
 10
246.019599999999997
 20
31.5556000000000019
 30
0.0
 11
246.0196149999999875
 21
35.6552999999999969
 31
0.0
  0
LINE
  5
242
100
AcDbEntity
  8
0
 62
0
370
-1
 48
1.0
  6
BYLAYER
100
AcDbLine
 10
246.019599999999997
 20
25.7555999999999976
 30
0.0
 11
246.0196149999999875
 21
21.6558999999999955
 31
0.0
  0
LINE
  5
243
100
AcDbEntity
  8
0
 62
0
370
-1
 48
1.0
  6
BYLAYER
100
AcDbLine
 10
148.3886113372472835
 20
3.6069941499784033
 30
0.0
 11
148.3886149999999873
 21
2.605914999999996
 31
0.0
  0
LINE
  5
244
100
AcDbEntity
  8
0
 62
0
370
-1
 48
1.0
  6
BYLAYER
100
AcDbLine
 10
22.1822999999999944
 20
12.5056149999999988
 30
0.0
 11
22.182314999999992
 21
16.6053149999999974
 31
0.0
  0
LINE
  5
245
100
AcDbEntity
  8
0
 62
0
370
-1
 48
1.0
  6
BYLAYER
100
AcDbLine
 10
22.1822999999999944
 20
6.7056149999999946
 30
0.0
 11
22.182314999999992
 21
2.6059149999999924
 31
0.0
  0
LINE
  5
246
100
AcDbEntity
  8
0
 62
0
370
-1
 48
1.0
  6
BYLAYER
100
AcDbLine
 10
184.1073449999999809
 20
25.7555999999999941
 30
0.0
 11
184.1073599999999715
 21
21.6558999999999919
 31
0.0
  0
LINE
  5
247
100
AcDbEntity
  8
0
 62
0
370
-1
 48
1.0
  6
BYLAYER
100
AcDbLine
 10
184.1073449999999809
 20
31.5555999999999983
 30
0.0
 11
184.1073599999999715
 21
35.6552999999999969
 31
0.0
  0
LINE
  5
248
100
AcDbEntity
  8
0
 62
0
370
-1
 48
1.0
  6
BYLAYER
100
AcDbLine
 10
203.1573449999999923
 20
25.7555999999999941
 30
0.0
 11
203.1573599999999828
 21
21.6558999999999919
 31
0.0
  0
LINE
  5
249
100
AcDbEntity
  8
0
 62
0
370
-1
 48
1.0
  6
BYLAYER
100
AcDbLine
 10
203.1573449999999923
 20
31.5555999999999983
 30
0.0
 11
203.1573599999999828
 21
35.6552999999999969
 31
0.0
  0
LINE
  5
24A
100
AcDbEntity
  8
0
 62
0
370
-1
 48
1.0
  6
BYLAYER
100
AcDbLine
 10
184.1076107458315505
 20
3.7686359533111884
 30
0.0
 11
184.1076149999999814
 21
2.605914999999996
 31
0.0
  0
LINE
  5
24B
100
AcDbEntity
  8
0
 62
0
370
-1
 48
1.0
  6
BYLAYER
100
AcDbLine
 10
79.332099999999997
 20
12.5056150000000024
 30
0.0
 11
79.3321000003110015
 21
12.5056999999999992
 31
0.0
  0
LINE
  5
24C
100
AcDbEntity
  8
0
 62
0
370
-1
 48
1.0
  6
BYLAYER
100
AcDbLine
 10
79.332099999999997
 20
6.7056149999999981
 30
0.0
 11
79.3321000003110015
 21
6.7055299999999995
 31
0.0
  0
LINE
  5
24D
100
AcDbEntity
  8
0
 62
0
370
-1
 48
1.0
  6
BYLAYER
100
AcDbLine
 10
79.3321113372258822
 20
3.6069999999991151
 30
0.0
 11
79.3321149999999875
 21
2.605914999999996
 31
0.0
  0
LINE
  5
24E
100
AcDbEntity
  8
0
 62
0
370
-1
 48
1.0
  6
BYLAYER
100
AcDbLine
 10
169.8198449999999866
 20
69.6556000000000068
 30
0.0
 11
169.8198600000000056
 21
73.7553000000000054
 31
0.0
  0
LINE
  5
24F
100
AcDbEntity
  8
0
 62
0
370
-1
 48
1.0
  6
BYLAYER
100
AcDbLine
 10
188.869844999999998
 20
63.8556000000000026
 30
0.0
 11
188.869860000000017
 21
59.7558999999999969
 31
0.0
  0
LINE
  5
250
100
AcDbEntity
  8
0
 62
0
370
-1
 48
1.0
  6
BYLAYER
100
AcDbLine
 10
188.869844999999998
 20
69.6556000000000068
 30
0.0
 11
188.869860000000017
 21
73.7553000000000054
 31
0.0
  0
LINE
  5
251
100
AcDbEntity
  8
0
 62
0
370
-1
 48
1.0
  6
BYLAYER
100
AcDbLine
 10
150.7698449999999752
 20
63.8556000000000026
 30
0.0
 11
150.7698599999999942
 21
59.7558999999999969
 31
0.0
  0
LINE
  5
252
100
AcDbEntity
  8
0
 62
0
370
-1
 48
1.0
  6
BYLAYER
100
AcDbLine
 10
150.7698449999999752
 20
69.6556000000000068
 30
0.0
 11
150.7698599999999942
 21
73.7553000000000054
 31
0.0
  0
LINE
  5
253
100
AcDbEntity
  8
0
 62
0
370
-1
 48
1.0
  6
BYLAYER
100
AcDbLine
 10
169.8198449999999866
 20
63.8556000000000026
 30
0.0
 11
169.8198600000000056
 21
59.7558999999999969
 31
0.0
  0
LINE
  5
254
100
AcDbEntity
  8
0
 62
0
370
-1
 48
1.0
  6
BYLAYER
100
AcDbLine
 10
131.7188450000000159
 20
63.8556000000000026
 30
0.0
 11
131.7188600000000065
 21
59.7558999999999969
 31
0.0
  0
LINE
  5
255
100
AcDbEntity
  8
0
 62
0
370
-1
 48
1.0
  6
BYLAYER
100
AcDbLine
 10
131.7188450000000159
 20
69.6556000000000068
 30
0.0
 11
131.7188600000000065
 21
73.7553000000000054
 31
0.0
  0
LINE
  5
256
100
AcDbEntity
  8
0
 62
0
370
-1
 48
1.0
  6
BYLAYER
100
AcDbLine
 10
93.6196950000000072
 20
63.8556000000000026
 30
0.0
 11
93.6197099999999978
 21
59.7558999999999969
 31
0.0
  0
LINE
  5
257
100
AcDbEntity
  8
0
 62
0
370
-1
 48
1.0
  6
BYLAYER
100
AcDbLine
 10
93.6196950000000072
 20
69.6556000000000068
 30
0.0
 11
93.6197099999999978
 21
73.7553000000000054
 31
0.0
  0
LINE
  5
258
100
AcDbEntity
  8
0
 62
0
370
-1
 48
1.0
  6
BYLAYER
100
AcDbLine
 10
112.6689949999999953
 20
63.8556000000000026
 30
0.0
 11
112.6690100000000001
 21
59.7558999999999969
 31
0.0
  0
LINE
  5
259
100
AcDbEntity
  8
0
 62
0
370
-1
 48
1.0
  6
BYLAYER
100
AcDbLine
 10
112.6689949999999953
 20
69.6556000000000068
 30
0.0
 11
112.6690100000000001
 21
73.7553000000000054
 31
0.0
  0
LINE
  5
25A
100
AcDbEntity
  8
0
 62
0
370
-1
 48
1.0
  6
BYLAYER
100
AcDbLine
 10
74.5696949999999958
 20
63.8556000000000026
 30
0.0
 11
74.5697100000000006
 21
59.7558999999999969
 31
0.0
  0
LINE
  5
25B
100
AcDbEntity
  8
0
 62
0
370
-1
 48
1.0
  6
BYLAYER
100
AcDbLine
 10
74.5696949999999958
 20
69.6556000000000068
 30
0.0
 11
74.5697100000000006
 21
73.7553000000000054
 31
0.0
  0
LINE
  5
25C
100
AcDbEntity
  8
0
 62
256
370
-1
 48
1.0
  6
BYLAYER
100
AcDbLine
 10
69.2693499999999176
 20
18.6069999999990472
 30
0.0
 11
64.2693500000017082
 21
18.6069999999990827
 31
0.0
  0
LINE
  5
25D
100
AcDbEntity
  8
0
 62
256
370
-1
 48
1.0
  6
BYLAYER
100
AcDbLine
 10
83.5622999999999081
 20
18.6069999999990472
 30
0.0
 11
78.5623000000016987
 21
18.6069999999990827
 31
0.0
  0
LINE
  5
25E
100
AcDbEntity
  8
0
 62
256
370
-1
 48
1.0
  6
BYLAYER
100
AcDbLine
 10
154.9874999999999261
 20
18.6069999999990472
 30
0.0
 11
149.9875000000017167
 21
18.6069999999990827
 31
0.0
  0
LINE
  5
25F
100
AcDbEntity
  8
0
 62
256
370
-1
 48
1.0
  6
BYLAYER
100
AcDbLine
 10
131.1874999999999147
 20
18.6069999999990472
 30
0.0
 11
126.1875000000017053
 21
18.6069999999990827
 31
0.0
  0
LINE
  5
260
100
AcDbEntity
  8
0
 62
256
370
-1
 48
1.0
  6
BYLAYER
100
AcDbLine
 10
240.712499999999892
 20
37.6555999999990476
 30
0.0
 11
235.7125000000016826
 21
37.6555999999990831
 31
0.0
  0
LINE
  5
261
100
AcDbEntity
  8
0
 62
256
370
-1
 48
1.0
  6
BYLAYER
100
AcDbLine
 10
183.5624999999999147
 20
18.6069999999990472
 30
0.0
 11
178.5625000000017053
 21
18.6069999999990827
 31
0.0
  0
LINE
  5
262
100
AcDbEntity
  8
0
 62
256
370
-1
 48
1.0
  6
BYLAYER
100
AcDbLine
 10
216.9124999999999091
 20
37.6555999999990476
 30
0.0
 11
211.9125000000016996
 21
37.6555999999990831
 31
0.0
  0
LINE
  5
263
100
AcDbEntity
  8
0
 62
256
370
-1
 48
1.0
  6
BYLAYER
100
AcDbLine
 10
148.9875000000016882
 20
17.6069999999992248
 30
0.0
 11
148.9875000000014893
 21
16.6053150000000009
 31
0.0
  0
LINE
  5
264
100
AcDbEntity
  8
0
 62
256
370
-1
 48
1.0
  6
BYLAYER
100
AcDbLine
 10
177.5625000000016769
 20
17.6069999999992248
 30
0.0
 11
177.5625000000014779
 21
16.6053150000000009
 31
0.0
  0
LINE
  5
265
100
AcDbEntity
  8
0
 62
256
370
-1
 48
1.0
  6
BYLAYER
100
AcDbLine
 10
210.9125000000016712
 20
36.6555999999992252
 30
0.0
 11
210.9125000000014722
 21
35.6552999999999969
 31
0.0
  0
LINE
  5
266
100
AcDbEntity
  8
0
 62
256
370
-1
 48
1.0
  6
BYLAYER
100
AcDbLine
 10
234.7125000000016541
 20
36.6555999999992252
 30
0.0
 11
234.7125000000014552
 21
35.6552999999999969
 31
0.0
  0
LINE
  5
267
100
AcDbEntity
  8
0
 62
256
370
-1
 48
1.0
  6
BYLAYER
100
AcDbLine
 10
63.2693500000016797
 20
17.6069999999992248
 30
0.0
 11
63.2693500000014808
 21
16.6053149999999974
 31
0.0
  0
LINE
  5
268
100
AcDbEntity
  8
0
 62
256
370
-1
 48
1.0
  6
BYLAYER
100
AcDbLine
 10
77.5623000000016702
 20
17.6069999999992248
 30
0.0
 11
77.5623000000014713
 21
16.6053150000000009
 31
0.0
  0
LINE
  5
269
100
AcDbEntity
  8
0
 62
256
370
-1
 48
1.0
  6
BYLAYER
100
AcDbLine
 10
125.1875000000016769
 20
17.6069999999992248
 30
0.0
 11
125.1875000000014779
 21
16.6053149999999974
 31
0.0
  0
LINE
  5
26A
100
AcDbEntity
  8
0
 62
256
370
-1
 48
1.0
  6
BYLAYER
100
AcDbLine
 10
132.1874999999999147
 20
17.6069999999989406
 30
0.0
 11
132.1874999999999147
 21
16.6053149999999938
 31
0.0
  0
LINE
  5
26B
100
AcDbEntity
  8
0
 62
256
370
-1
 48
1.0
  6
BYLAYER
100
AcDbLine
 10
217.9124999999999091
 20
36.655599999998941
 30
0.0
 11
217.9124999999999091
 21
35.6552999999999969
 31
0.0
  0
LINE
  5
26C
100
AcDbEntity
  8
0
 62
256
370
-1
 48
1.0
  6
BYLAYER
100
AcDbLine
 10
241.712499999999892
 20
36.655599999998941
 30
0.0
 11
241.712499999999892
 21
35.655300000000004
 31
0.0
  0
LINE
  5
26D
100
AcDbEntity
  8
0
 62
256
370
-1
 48
1.0
  6
BYLAYER
100
AcDbLine
 10
70.2693499999999176
 20
17.6069999999989406
 30
0.0
 11
70.2693499999999176
 21
16.6053149999999974
 31
0.0
  0
LINE
  5
26E
100
AcDbEntity
  8
0
 62
256
370
-1
 48
1.0
  6
BYLAYER
100
AcDbLine
 10
84.5622999999999081
 20
17.6069999999989406
 30
0.0
 11
84.5622999999999081
 21
4.6069999999991005
 31
0.0
  0
LINE
  5
26F
100
AcDbEntity
  8
0
 62
256
370
-1
 48
1.0
  6
BYLAYER
100
AcDbLine
 10
155.9874999999999261
 20
17.6069999999989406
 30
0.0
 11
155.9874999999999261
 21
4.6069999999991005
 31
0.0
  0
LINE
  5
270
100
AcDbEntity
  8
0
 62
256
370
-1
 48
1.0
  6
BYLAYER
100
AcDbLine
 10
184.5624999999999147
 20
17.6069999999989406
 30
0.0
 11
184.5624999999999147
 21
4.6069999999991005
 31
0.0
  0
ARC
  5
271
100
AcDbEntity
  8
0
 62
256
370
-1
 48
1.0
  6
BYLAYER
100
AcDbCircle
 10
183.5624999999999147
 20
4.606999999999065
 30
0.0
 40
1.0000000000000004
100
AcDbArc
 50
302.9905020026506008
 51
0.0
  0
ARC
  5
272
100
AcDbEntity
  8
0
 62
256
370
-1
 48
1.0
  6
BYLAYER
100
AcDbCircle
 10
83.5622999999999081
 20
4.606999999999065
 30
0.0
 40
1.0000000000000004
100
AcDbArc
 50
270.0
 51
0.0
  0
ARC
  5
273
100
AcDbEntity
  8
0
 62
256
370
-1
 48
1.0
  6
BYLAYER
100
AcDbCircle
 10
154.9874999999999261
 20
4.606999999999065
 30
0.0
 40
1.0000000000000004
100
AcDbArc
 50
270.0
 51
0.0
  0
ARC
  5
274
100
AcDbEntity
  8
0
 62
256
370
-1
 48
1.0
  6
BYLAYER
100
AcDbCircle
 10
83.5622999999999081
 20
17.6069999999989406
 30
0.0
 40
1.0000000000000004
100
AcDbArc
 50
0.0
 51
90.0
  0
ARC
  5
275
100
AcDbEntity
  8
0
 62
256
370
-1
 48
1.0
  6
BYLAYER
100
AcDbCircle
 10
131.1874999999999147
 20
17.6069999999989406
 30
0.0
 40
1.0000000000000004
100
AcDbArc
 50
0.0
 51
90.0
  0
ARC
  5
276
100
AcDbEntity
  8
0
 62
256
370
-1
 48
1.0
  6
BYLAYER
100
AcDbCircle
 10
69.2693499999999176
 20
17.6069999999989406
 30
0.0
 40
1.0000000000000004
100
AcDbArc
 50
0.0
 51
90.0
  0
ARC
  5
277
100
AcDbEntity
  8
0
 62
256
370
-1
 48
1.0
  6
BYLAYER
100
AcDbCircle
 10
183.5624999999999147
 20
17.6069999999989406
 30
0.0
 40
1.0000000000000004
100
AcDbArc
 50
0.0
 51
90.0
  0
ARC
  5
278
100
AcDbEntity
  8
0
 62
256
370
-1
 48
1.0
  6
BYLAYER
100
AcDbCircle
 10
154.9874999999999261
 20
17.6069999999989406
 30
0.0
 40
1.0000000000000004
100
AcDbArc
 50
0.0
 51
90.0
  0
ARC
  5
279
100
AcDbEntity
  8
0
 62
256
370
-1
 48
1.0
  6
BYLAYER
100
AcDbCircle
 10
216.9124999999999091
 20
36.655599999998941
 30
0.0
 40
1.0000000000000004
100
AcDbArc
 50
0.0
 51
90.0
  0
ARC
  5
27A
100
AcDbEntity
  8
0
 62
256
370
-1
 48
1.0
  6
BYLAYER
100
AcDbCircle
 10
240.712499999999892
 20
36.655599999998941
 30
0.0
 40
1.0000000000000004
100
AcDbArc
 50
0.0
 51
90.0
  0
ARC
  5
27B
100
AcDbEntity
  8
0
 62
256
370
-1
 48
1.0
  6
BYLAYER
100
AcDbCircle
 10
78.5623000000016987
 20
17.6069999999988696
 30
0.0
 40
1.0000000000000004
100
AcDbArc
 50
90.0
 51
179.9999999999879776
  0
ARC
  5
27C
100
AcDbEntity
  8
0
 62
256
370
-1
 48
1.0
  6
BYLAYER
100
AcDbCircle
 10
126.1875000000017053
 20
17.6069999999988696
 30
0.0
 40
1.0000000000000004
100
AcDbArc
 50
90.0
 51
179.9999999999879776
  0
ARC
  5
27D
100
AcDbEntity
  8
0
 62
256
370
-1
 48
1.0
  6
BYLAYER
100
AcDbCircle
 10
64.2693500000017082
 20
17.6069999999988696
 30
0.0
 40
1.0000000000000004
100
AcDbArc
 50
90.0
 51
179.9999999999879776
  0
ARC
  5
27E
100
AcDbEntity
  8
0
 62
256
370
-1
 48
1.0
  6
BYLAYER
100
AcDbCircle
 10
178.5625000000017053
 20
17.6069999999988696
 30
0.0
 40
1.0000000000000004
100
AcDbArc
 50
90.0
 51
179.9999999999879776
  0
ARC
  5
27F
100
AcDbEntity
  8
0
 62
256
370
-1
 48
1.0
  6
BYLAYER
100
AcDbCircle
 10
149.9875000000017167
 20
17.6069999999988696
 30
0.0
 40
1.0000000000000004
100
AcDbArc
 50
90.0
 51
179.9999999999879776
  0
ARC
  5
280
100
AcDbEntity
  8
0
 62
256
370
-1
 48
1.0
  6
BYLAYER
100
AcDbCircle
 10
211.9125000000016996
 20
36.65559999999887
 30
0.0
 40
1.0000000000000004
100
AcDbArc
 50
90.0
 51
179.9999999999879776
  0
ARC
  5
281
100
AcDbEntity
  8
0
 62
256
370
-1
 48
1.0
  6
BYLAYER
100
AcDbCircle
 10
235.7125000000016826
 20
36.65559999999887
 30
0.0
 40
1.0000000000000004
100
AcDbArc
 50
90.0
 51
179.9999999999879776
  0
LINE
  5
282
100
AcDbEntity
  8
0
 62
256
370
-1
 48
1.0
  6
BYLAYER
100
AcDbLine
 10
83.5622999999999081
 20
3.6069999999991005
 30
0.0
 11
79.3321113372258964
 21
3.6069999999991156
 31
0.0
  0
LINE
  5
283
100
AcDbEntity
  8
0
 62
256
370
-1
 48
1.0
  6
BYLAYER
100
AcDbLine
 10
154.9874999999999261
 20
3.6069999999991005
 30
0.0
 11
148.3886113372472835
 21
3.6069941499784033
 31
0.0
  0
LINE
  5
284
100
AcDbEntity
  8
0
 62
256
370
-1
 48
1.0
  6
BYLAYER
100
AcDbLine
 10
20.8689900000000002
 20
59.755900000000004
 30
0.0
 11
36.4697099999999921
 21
59.7558999999999969
 31
0.0
  0
LINE
  5
285
100
AcDbEntity
  8
0
 62
256
370
-1
 48
1.0
  6
BYLAYER
100
AcDbLine
 10
39.918990000000008
 20
59.755900000000004
 30
0.0
 11
55.5197100000000034
 21
59.7558999999999969
 31
0.0
  0
LINE
  5
286
100
AcDbEntity
  8
0
 62
256
370
-1
 48
1.0
  6
BYLAYER
100
AcDbLine
 10
1.8190650000000019
 20
59.755900000000004
 30
0.0
 11
17.4197849999999974
 21
59.7558999999999969
 31
0.0
  0
LINE
  5
287
100
AcDbEntity
  8
0
 62
256
370
-1
 48
1.0
  6
BYLAYER
100
AcDbLine
 10
82.7814900000000051
 20
40.7058999999999997
 30
0.0
 11
98.3822100000000006
 21
40.7058999999999997
 31
0.0
  0
LINE
  5
288
100
AcDbEntity
  8
0
 62
256
370
-1
 48
1.0
  6
BYLAYER
100
AcDbLine
 10
101.8316400000000073
 20
40.7058999999999997
 30
0.0
 11
117.4323600000000027
 21
40.7058999999999997
 31
0.0
  0
LINE
  5
289
100
AcDbEntity
  8
0
 62
256
370
-1
 48
1.0
  6
BYLAYER
100
AcDbLine
 10
139.9316400000000158
 20
40.7058999999999997
 30
0.0
 11
155.5323599999999828
 21
40.7058999999999997
 31
0.0
  0
LINE
  5
28A
100
AcDbEntity
  8
0
 62
256
370
-1
 48
1.0
  6
BYLAYER
100
AcDbLine
 10
120.8816399999999902
 20
40.7058999999999997
 30
0.0
 11
136.4823599999999715
 21
40.7058999999999997
 31
0.0
  0
LINE
  5
28B
100
AcDbEntity
  8
0
 62
256
370
-1
 48
1.0
  6
BYLAYER
100
AcDbLine
 10
158.9816400000000272
 20
40.7058999999999997
 30
0.0
 11
174.5823599999999942
 21
40.7058999999999997
 31
0.0
  0
LINE
  5
28C
100
AcDbEntity
  8
0
 62
256
370
-1
 48
1.0
  6
BYLAYER
100
AcDbLine
 10
197.0816399999999931
 20
40.7058999999999997
 30
0.0
 11
212.682360000000017
 21
40.7058999999999997
 31
0.0
  0
LINE
  5
28D
100
AcDbEntity
  8
0
 62
256
370
-1
 48
1.0
  6
BYLAYER
100
AcDbLine
 10
178.0316399999999817
 20
40.7058999999999997
 30
0.0
 11
193.6323600000000056
 21
40.7058999999999997
 31
0.0
  0
LINE
  5
28E
100
AcDbEntity
  8
0
 62
256
370
-1
 48
1.0
  6
BYLAYER
100
AcDbLine
 10
223.2751399999999649
 20
40.7058999999999997
 30
0.0
 11
238.8758599999999888
 21
40.7058999999999997
 31
0.0
  0
LINE
  5
28F
100
AcDbEntity
  8
0
 62
256
370
-1
 48
1.0
  6
BYLAYER
100
AcDbLine
 10
211.3691400000000158
 20
59.755900000000004
 30
0.0
 11
226.9698599999999828
 21
59.7558999999999969
 31
0.0
  0
LINE
  5
290
100
AcDbEntity
  8
0
 62
256
370
-1
 48
1.0
  6
BYLAYER
100
AcDbLine
 10
230.4191399999999703
 20
59.755900000000004
 30
0.0
 11
246.0198599999999942
 21
59.7558999999999969
 31
0.0
  0
LINE
  5
291
100
AcDbEntity
  8
0
 62
256
370
-1
 48
1.0
  6
BYLAYER
100
AcDbLine
 10
192.3191400000000044
 20
59.755900000000004
 30
0.0
 11
207.9198600000000283
 21
59.7558999999999969
 31
0.0
  0
LINE
  5
292
100
AcDbEntity
  8
0
 62
256
370
-1
 48
1.0
  6
BYLAYER
100
AcDbLine
 10
149.4566399999999931
 20
21.6558999999999955
 30
0.0
 11
165.057360000000017
 21
21.6558999999999919
 31
0.0
  0
LINE
  5
293
100
AcDbEntity
  8
0
 62
256
370
-1
 48
1.0
  6
BYLAYER
100
AcDbLine
 10
111.3566399999999987
 20
21.6558999999999955
 30
0.0
 11
126.9573599999999942
 21
21.6558999999999919
 31
0.0
  0
LINE
  5
294
100
AcDbEntity
  8
0
 62
256
370
-1
 48
1.0
  6
BYLAYER
100
AcDbLine
 10
130.4066399999999817
 20
21.6558999999999955
 30
0.0
 11
146.0073600000000056
 21
21.6558999999999919
 31
0.0
  0
LINE
  5
295
100
AcDbEntity
  8
0
 62
256
370
-1
 48
1.0
  6
BYLAYER
100
AcDbLine
 10
92.3067400000000049
 20
21.6558999999999955
 30
0.0
 11
107.9074600000000004
 21
21.6558999999999919
 31
0.0
  0
LINE
  5
296
100
AcDbEntity
  8
0
 62
256
370
-1
 48
1.0
  6
BYLAYER
100
AcDbLine
 10
54.2064900000000023
 20
21.6558999999999955
 30
0.0
 11
69.8072099999999978
 21
21.6558999999999919
 31
0.0
  0
LINE
  5
297
100
AcDbEntity
  8
0
 62
256
370
-1
 48
1.0
  6
BYLAYER
100
AcDbLine
 10
73.2564899999999994
 20
21.6558999999999955
 30
0.0
 11
88.8572099999999949
 21
21.6558999999999919
 31
0.0
  0
LINE
  5
298
100
AcDbEntity
  8
0
 62
256
370
-1
 48
1.0
  6
BYLAYER
100
AcDbLine
 10
35.1564900000000051
 20
21.6558999999999955
 30
0.0
 11
50.7572100000000006
 21
21.6558999999999919
 31
0.0
  0
LINE
  5
299
100
AcDbEntity
  8
0
 62
256
370
-1
 48
1.0
  6
BYLAYER
100
AcDbLine
 10
4.2002950000000023
 20
40.7058999999999997
 30
0.0
 11
19.8010149999999996
 21
40.7058999999999997
 31
0.0
  0
LINE
  5
29A
100
AcDbEntity
  8
0
 62
256
370
-1
 48
1.0
  6
BYLAYER
100
AcDbLine
 10
8.9627949999999998
 20
21.6558999999999955
 30
0.0
 11
24.5635149999999953
 21
21.6558999999999919
 31
0.0
  0
LINE
  5
29B
100
AcDbEntity
  8
0
 62
256
370
-1
 48
1.0
  6
BYLAYER
100
AcDbLine
 10
25.6314899999999994
 20
40.7058999999999997
 30
0.0
 11
41.2322099999999949
 21
40.7058999999999997
 31
0.0
  0
LINE
  5
29C
100
AcDbEntity
  8
0
 62
256
370
-1
 48
1.0
  6
BYLAYER
100
AcDbLine
 10
63.7314899999999938
 20
40.7058999999999997
 30
0.0
 11
79.3322099999999892
 21
40.7058999999999997
 31
0.0
  0
LINE
  5
29D
100
AcDbEntity
  8
0
 62
256
370
-1
 48
1.0
  6
BYLAYER
100
AcDbLine
 10
44.6814899999999966
 20
40.7058999999999997
 30
0.0
 11
60.2822099999999921
 21
40.7058999999999997
 31
0.0
  0
LINE
  5
29E
100
AcDbEntity
  8
0
 62
256
370
-1
 48
1.0
  6
BYLAYER
100
AcDbLine
 10
58.9689900000000051
 20
73.7553000000000054
 30
0.0
 11
74.5697100000000006
 21
73.7553000000000054
 31
0.0
  0
LINE
  5
29F
100
AcDbEntity
  8
0
 62
256
370
-1
 48
1.0
  6
BYLAYER
100
AcDbLine
 10
78.0189900000000023
 20
73.7553000000000054
 30
0.0
 11
93.6197099999999978
 21
73.7553000000000054
 31
0.0
  0
LINE
  5
2A0
100
AcDbEntity
  8
0
 62
256
370
-1
 48
1.0
  6
BYLAYER
100
AcDbLine
 10
97.0682900000000046
 20
73.7553000000000054
 30
0.0
 11
112.6690100000000001
 21
73.7553000000000054
 31
0.0
  0
LINE
  5
2A1
100
AcDbEntity
  8
0
 62
256
370
-1
 48
1.0
  6
BYLAYER
100
AcDbLine
 10
116.118140000000011
 20
73.7553000000000054
 30
0.0
 11
131.7188600000000065
 21
73.7553000000000054
 31
0.0
  0
LINE
  5
2A2
100
AcDbEntity
  8
0
 62
256
370
-1
 48
1.0
  6
BYLAYER
100
AcDbLine
 10
135.1691399999999703
 20
73.7553000000000054
 30
0.0
 11
150.7698599999999942
 21
73.7553000000000054
 31
0.0
  0
LINE
  5
2A3
100
AcDbEntity
  8
0
 62
256
370
-1
 48
1.0
  6
BYLAYER
100
AcDbLine
 10
154.2191399999999817
 20
73.7553000000000054
 30
0.0
 11
169.8198600000000056
 21
73.7553000000000054
 31
0.0
  0
LINE
  5
2A4
100
AcDbEntity
  8
0
 62
256
370
-1
 48
1.0
  6
BYLAYER
100
AcDbLine
 10
168.5066400000000044
 20
35.6552999999999969
 30
0.0
 11
184.1073599999999715
 21
35.6552999999999969
 31
0.0
  0
LINE
  5
2A5
100
AcDbEntity
  8
0
 62
256
370
-1
 48
1.0
  6
BYLAYER
100
AcDbLine
 10
187.5566400000000158
 20
35.6552999999999969
 30
0.0
 11
203.1573599999999828
 21
35.6552999999999969
 31
0.0
  0
LINE
  5
2A6
100
AcDbEntity
  8
0
 62
256
370
-1
 48
1.0
  6
BYLAYER
100
AcDbLine
 10
178.0316399999999817
 20
54.7053000000000011
 30
0.0
 11
193.6323600000000056
 21
54.7053000000000011
 31
0.0
  0
LINE
  5
2A7
100
AcDbEntity
  8
0
 62
256
370
-1
 48
1.0
  6
BYLAYER
100
AcDbLine
 10
197.0816399999999931
 20
54.7053000000000011
 30
0.0
 11
212.682360000000017
 21
54.7053000000000011
 31
0.0
  0
LINE
  5
2A8
100
AcDbEntity
  8
0
 62
256
370
-1
 48
1.0
  6
BYLAYER
100
AcDbLine
 10
223.2751399999999649
 20
54.7053000000000011
 30
0.0
 11
238.8758599999999888
 21
54.7053000000000011
 31
0.0
  0
LINE
  5
2A9
100
AcDbEntity
  8
0
 62
256
370
-1
 48
1.0
  6
BYLAYER
100
AcDbLine
 10
230.4191399999999703
 20
73.7553000000000054
 30
0.0
 11
246.0198599999999942
 21
73.7553000000000054
 31
0.0
  0
LINE
  5
2AA
100
AcDbEntity
  8
0
 62
256
370
-1
 48
1.0
  6
BYLAYER
100
AcDbLine
 10
211.3691400000000158
 20
73.7553000000000054
 30
0.0
 11
226.9698599999999828
 21
73.7553000000000054
 31
0.0
  0
LINE
  5
2AB
100
AcDbEntity
  8
0
 62
256
370
-1
 48
1.0
  6
BYLAYER
100
AcDbLine
 10
192.3191400000000044
 20
73.7553000000000054
 30
0.0
 11
207.9198600000000283
 21
73.7553000000000054
 31
0.0
  0
LINE
  5
2AC
100
AcDbEntity
  8
0
 62
256
370
-1
 48
1.0
  6
BYLAYER
100
AcDbLine
 10
173.2691399999999931
 20
73.7553000000000054
 30
0.0
 11
188.869860000000017
 21
73.7553000000000054
 31
0.0
  0
LINE
  5
2AD
100
AcDbEntity
  8
0
 62
256
370
-1
 48
1.0
  6
BYLAYER
100
AcDbLine
 10
92.3067400000000049
 20
35.6552999999999969
 30
0.0
 11
107.9074600000000004
 21
35.6552999999999969
 31
0.0
  0
LINE
  5
2AE
100
AcDbEntity
  8
0
 62
256
370
-1
 48
1.0
  6
BYLAYER
100
AcDbLine
 10
111.3566399999999987
 20
35.6552999999999969
 30
0.0
 11
126.9573599999999942
 21
35.6552999999999969
 31
0.0
  0
LINE
  5
2AF
100
AcDbEntity
  8
0
 62
256
370
-1
 48
1.0
  6
BYLAYER
100
AcDbLine
 10
130.4066399999999817
 20
35.6552999999999969
 30
0.0
 11
146.0073600000000056
 21
35.6552999999999969
 31
0.0
  0
LINE
  5
2B0
100
AcDbEntity
  8
0
 62
256
370
-1
 48
1.0
  6
BYLAYER
100
AcDbLine
 10
149.4566399999999931
 20
35.6552999999999969
 30
0.0
 11
165.057360000000017
 21
35.6552999999999969
 31
0.0
  0
LINE
  5
2B1
100
AcDbEntity
  8
0
 62
256
370
-1
 48
1.0
  6
BYLAYER
100
AcDbLine
 10
158.9816400000000272
 20
54.7053000000000011
 30
0.0
 11
174.5823599999999942
 21
54.7053000000000011
 31
0.0
  0
LINE
  5
2B2
100
AcDbEntity
  8
0
 62
256
370
-1
 48
1.0
  6
BYLAYER
100
AcDbLine
 10
139.9316400000000158
 20
54.7053000000000011
 30
0.0
 11
155.5323599999999828
 21
54.7053000000000011
 31
0.0
  0
LINE
  5
2B3
100
AcDbEntity
  8
0
 62
256
370
-1
 48
1.0
  6
BYLAYER
100
AcDbLine
 10
120.8816399999999902
 20
54.7053000000000011
 30
0.0
 11
136.4823599999999715
 21
54.7053000000000011
 31
0.0
  0
LINE
  5
2B4
100
AcDbEntity
  8
0
 62
256
370
-1
 48
1.0
  6
BYLAYER
100
AcDbLine
 10
101.8316400000000073
 20
54.7053000000000011
 30
0.0
 11
117.4323600000000027
 21
54.7053000000000011
 31
0.0
  0
LINE
  5
2B5
100
AcDbEntity
  8
0
 62
256
370
-1
 48
1.0
  6
BYLAYER
100
AcDbLine
 10
82.7814900000000051
 20
54.7053000000000011
 30
0.0
 11
98.3822100000000006
 21
54.7053000000000011
 31
0.0
  0
LINE
  5
2B6
100
AcDbEntity
  8
0
 62
256
370
-1
 48
1.0
  6
BYLAYER
100
AcDbLine
 10
63.7314899999999938
 20
54.7053000000000011
 30
0.0
 11
79.3322099999999892
 21
54.7053000000000011
 31
0.0
  0
LINE
  5
2B7
100
AcDbEntity
  8
0
 62
256
370
-1
 48
1.0
  6
BYLAYER
100
AcDbLine
 10
44.6814899999999966
 20
54.7053000000000011
 30
0.0
 11
60.2822099999999921
 21
54.7053000000000011
 31
0.0
  0
LINE
  5
2B8
100
AcDbEntity
  8
0
 62
256
370
-1
 48
1.0
  6
BYLAYER
100
AcDbLine
 10
25.6314899999999994
 20
54.7053000000000011
 30
0.0
 11
41.2322099999999949
 21
54.7053000000000011
 31
0.0
  0
LINE
  5
2B9
100
AcDbEntity
  8
0
 62
256
370
-1
 48
1.0
  6
BYLAYER
100
AcDbLine
 10
4.2002950000000041
 20
54.7053000000000011
 30
0.0
 11
19.8010149999999996
 21
54.7053000000000011
 31
0.0
  0
LINE
  5
2BA
100
AcDbEntity
  8
0
 62
256
370
-1
 48
1.0
  6
BYLAYER
100
AcDbLine
 10
1.8190650000000019
 20
73.7553000000000054
 30
0.0
 11
17.4197849999999974
 21
73.7553000000000054
 31
0.0
  0
LINE
  5
2BB
100
AcDbEntity
  8
0
 62
256
370
-1
 48
1.0
  6
BYLAYER
100
AcDbLine
 10
20.8689899999999966
 20
73.7553000000000054
 30
0.0
 11
36.4697099999999921
 21
73.7553000000000054
 31
0.0
  0
LINE
  5
2BC
100
AcDbEntity
  8
0
 62
256
370
-1
 48
1.0
  6
BYLAYER
100
AcDbLine
 10
39.918990000000008
 20
73.7553000000000054
 30
0.0
 11
55.5197100000000034
 21
73.7553000000000054
 31
0.0
  0
LINE
  5
2BD
100
AcDbEntity
  8
0
 62
256
370
-1
 48
1.0
  6
BYLAYER
100
AcDbLine
 10
8.9627949999999998
 20
35.6552999999999969
 30
0.0
 11
24.5635149999999953
 21
35.6552999999999969
 31
0.0
  0
LINE
  5
2BE
100
AcDbEntity
  8
0
 62
256
370
-1
 48
1.0
  6
BYLAYER
100
AcDbLine
 10
35.1564900000000051
 20
35.6552999999999969
 30
0.0
 11
50.7572100000000006
 21
35.6552999999999969
 31
0.0
  0
LINE
  5
2BF
100
AcDbEntity
  8
0
 62
256
370
-1
 48
1.0
  6
BYLAYER
100
AcDbLine
 10
54.2064900000000023
 20
35.6552999999999969
 30
0.0
 11
69.8072099999999978
 21
35.6552999999999969
 31
0.0
  0
LINE
  5
2C0
100
AcDbEntity
  8
0
 62
256
370
-1
 48
1.0
  6
BYLAYER
100
AcDbLine
 10
73.2564899999999994
 20
35.6552999999999969
 30
0.0
 11
88.8572099999999949
 21
35.6552999999999969
 31
0.0
  0
LINE
  5
2C1
100
AcDbEntity
  8
0
 62
256
370
-1
 48
1.0
  6
BYLAYER
100
AcDbLine
 10
168.5066400000000044
 20
21.6558999999999955
 30
0.0
 11
184.1073599999999715
 21
21.6558999999999919
 31
0.0
  0
LINE
  5
2C2
100
AcDbEntity
  8
0
 62
256
370
-1
 48
1.0
  6
BYLAYER
100
AcDbLine
 10
187.5566400000000158
 20
21.6558999999999955
 30
0.0
 11
203.1573599999999828
 21
21.6558999999999919
 31
0.0
  0
LINE
  5
2C3
100
AcDbEntity
  8
0
 62
256
370
-1
 48
1.0
  6
BYLAYER
100
AcDbLine
 10
154.2191399999999817
 20
59.755900000000004
 30
0.0
 11
169.8198600000000056
 21
59.7558999999999969
 31
0.0
  0
LINE
  5
2C4
100
AcDbEntity
  8
0
 62
256
370
-1
 48
1.0
  6
BYLAYER
100
AcDbLine
 10
173.2691399999999931
 20
59.755900000000004
 30
0.0
 11
188.869860000000017
 21
59.7558999999999969
 31
0.0
  0
LINE
  5
2C5
100
AcDbEntity
  8
0
 62
256
370
-1
 48
1.0
  6
BYLAYER
100
AcDbLine
 10
135.1691399999999703
 20
59.755900000000004
 30
0.0
 11
150.7698599999999942
 21
59.7558999999999969
 31
0.0
  0
LINE
  5
2C6
100
AcDbEntity
  8
0
 62
256
370
-1
 48
1.0
  6
BYLAYER
100
AcDbLine
 10
97.0682900000000046
 20
59.755900000000004
 30
0.0
 11
112.6690100000000001
 21
59.7558999999999969
 31
0.0
  0
LINE
  5
2C7
100
AcDbEntity
  8
0
 62
256
370
-1
 48
1.0
  6
BYLAYER
100
AcDbLine
 10
116.118140000000011
 20
59.755900000000004
 30
0.0
 11
131.7188600000000065
 21
59.7558999999999969
 31
0.0
  0
LINE
  5
2C8
100
AcDbEntity
  8
0
 62
256
370
-1
 48
1.0
  6
BYLAYER
100
AcDbLine
 10
78.0189900000000023
 20
59.755900000000004
 30
0.0
 11
93.6197099999999978
 21
59.7558999999999969
 31
0.0
  0
LINE
  5
2C9
100
AcDbEntity
  8
0
 62
256
370
-1
 48
1.0
  6
BYLAYER
100
AcDbLine
 10
58.9689900000000051
 20
59.755900000000004
 30
0.0
 11
74.5697100000000006
 21
59.7558999999999969
 31
0.0
  0
CIRCLE
  5
2CA
100
AcDbEntity
  8
0
 62
256
370
-1
 48
1.0
  6
BYLAYER
100
AcDbCircle
 10
128.6819999999999879
 20
38.1799949999999981
 30
0.0
 40
2.0
  0
CIRCLE
  5
2CB
100
AcDbEntity
  8
0
 62
256
370
-1
 48
1.0
  6
BYLAYER
100
AcDbCircle
 10
23.9068499999999915
 20
57.2299950000000024
 30
0.0
 40
2.0
  0
CIRCLE
  5
2CC
100
AcDbEntity
  8
0
 62
256
370
-1
 48
1.0
  6
BYLAYER
100
AcDbCircle
 10
214.4069999999999823
 20
57.2299950000000024
 30
0.0
 40
2.0
  0
CIRCLE
  5
2CD
100
AcDbEntity
  8
0
 62
256
370
-1
 48
1.0
  6
BYLAYER
100
AcDbCircle
 10
23.9068499999999915
 20
19.1299949999999939
 30
0.0
 40
2.0
  0
CIRCLE
  5
2CE
100
AcDbEntity
  8
0
 62
256
370
-1
 48
1.0
  6
BYLAYER
100
AcDbCircle
 10
223.9320000000000164
 20
19.1300100000000022
 30
0.0
 40
2.0
  0
ENDSEC
  0
SECTION
  2
OBJECTS
  0
DICTIONARY
  5
C
100
AcDbDictionary
280
0
281
1
  3
ACAD_GROUP
350
D
  3
ACAD_LAYOUT
350
1A
  3
ACAD_MLINESTYLE
350
17
  3
ACAD_PLOTSETTINGS
350
19
  3
ACAD_PLOTSTYLENAME
350
E
  3
AcDbVariableDictionary
350
2CF
  3
QCAD_OBJECTS
350
2D0
  0
DICTIONARY
  5
D
100
AcDbDictionary
280
0
281
1
  0
ACDBDICTIONARYWDFLT
  5
E
100
AcDbDictionary
281
1
  3
Normal
350
F
100
AcDbDictionaryWithDefault
340
F
  0
ACDBPLACEHOLDER
  5
F
  0
DICTIONARY
  5
17
100
AcDbDictionary
280
0
281
1
  3
Standard
350
18
  0
MLINESTYLE
  5
18
100
AcDbMlineStyle
  2
STANDARD
 70
0
  3

 62
256
 51
90.0
 52
90.0
 71
2
 49
0.5
 62
256
  6
BYLAYER
 49
-0.5
 62
256
  6
BYLAYER
  0
DICTIONARY
  5
19
100
AcDbDictionary
280
0
281
1
  0
DICTIONARY
  5
1A
100
AcDbDictionary
281
1
  3
Layout1
350
1E
  3
Layout2
350
26
  3
Model
350
22
  0
LAYOUT
  5
1E
100
AcDbPlotSettings
  1

  2
none_device
  4

  6

 40
0.0
 41
0.0
 42
0.0
 43
0.0
 44
0.0
 45
0.0
 46
0.0
 47
0.0
 48
0.0
 49
0.0
140
0.0
141
0.0
142
1.0
143
1.0
 70
688
 72
0
 73
0
 74
5
  7

 75
16
147
1.0
148
0.0
149
0.0
100
AcDbLayout
  1
Layout1
 70
1
 71
1
 10
0.0
 20
0.0
 11
420.0
 21
297.0
 12
0.0
 22
0.0
 32
0.0
 14
100000000000000000000.0
 24
100000000000000000000.0
 34
100000000000000000000.0
 15
-100000000000000000000.0
 25
-100000000000000000000.0
 35
-100000000000000000000.0
146
0.0
 13
0.0
 23
0.0
 33
0.0
 16
1.0
 26
0.0
 36
0.0
 17
0.0
 27
1.0
 37
0.0
 76
0
330
1B
  0
LAYOUT
  5
22
100
AcDbPlotSettings
  1

  2
none_device
  4

  6

 40
0.0
 41
0.0
 42
0.0
 43
0.0
 44
0.0
 45
0.0
 46
0.0
 47
0.0
 48
0.0
 49
0.0
140
0.0
141
0.0
142
1.0
143
1.0
 70
1712
 72
0
 73
0
 74
0
  7

 75
0
147
1.0
148
0.0
149
0.0
100
AcDbLayout
  1
Model
 70
1
 71
0
 10
0.0
 20
0.0
 11
12.0
 21
9.0
 12
0.0
 22
0.0
 32
0.0
 14
0.0
 24
0.0
 34
0.0
 15
0.0
 25
0.0
 35
0.0
146
0.0
 13
0.0
 23
0.0
 33
0.0
 16
1.0
 26
0.0
 36
0.0
 17
0.0
 27
1.0
 37
0.0
 76
0
330
1F
  0
LAYOUT
  5
26
100
AcDbPlotSettings
  1

  2
none_device
  4

  6

 40
0.0
 41
0.0
 42
0.0
 43
0.0
 44
0.0
 45
0.0
 46
0.0
 47
0.0
 48
0.0
 49
0.0
140
0.0
141
0.0
142
1.0
143
1.0
 70
688
 72
0
 73
0
 74
5
  7

 75
16
147
1.0
148
0.0
149
0.0
100
AcDbLayout
  1
Layout2
 70
1
 71
2
 10
0.0
 20
0.0
 11
12.0
 21
9.0
 12
0.0
 22
0.0
 32
0.0
 14
0.0
 24
0.0
 34
0.0
 15
0.0
 25
0.0
 35
0.0
146
0.0
 13
0.0
 23
0.0
 33
0.0
 16
1.0
 26
0.0
 36
0.0
 17
0.0
 27
1.0
 37
0.0
 76
0
330
23
  0
DICTIONARY
  5
2CF
100
AcDbDictionary
281
1
  3
DIMASSOC
350
2D2
  3
HIDETEXT
350
2D1
  0
DICTIONARYVAR
  5
2D1
100
DictionaryVariables
280
0
  1
2
  0
DICTIONARYVAR
  5
2D2
100
DictionaryVariables
280
0
  1
1
  0
DICTIONARY
  5
2D0
100
AcDbDictionary
281
1
  3
ColorSettings/BackgroundColor
350
2D3
  3
ColorSettings/ColorMode
350
2D4
  3
Grid/DisplayGrid00
350
2D5
  3
Grid/DisplayGrid01
350
2D6
  3
Grid/DisplayGrid02
350
2D7
  3
Grid/DisplayGrid03
350
2D8
  3
Grid/GridSpacingX00
350
2D9
  3
Grid/GridSpacingX01
350
2DA
  3
Grid/GridSpacingX02
350
2DB
  3
Grid/GridSpacingX03
350
2DC
  3
Grid/GridSpacingY00
350
2DD
  3
Grid/GridSpacingY01
350
2DE
  3
Grid/GridSpacingY02
350
2DF
  3
Grid/GridSpacingY03
350
2E0
  3
Grid/IsometricGrid00
350
2E1
  3
Grid/IsometricGrid01
350
2E2
  3
Grid/IsometricGrid02
350
2E3
  3
Grid/IsometricGrid03
350
2E4
  3
Grid/IsometricProjection00
350
2E5
  3
Grid/IsometricProjection01
350
2E6
  3
Grid/IsometricProjection02
350
2E7
  3
Grid/IsometricProjection03
350
2E8
  3
Grid/MetaGridSpacingX00
350
2E9
  3
Grid/MetaGridSpacingX01
350
2EA
  3
Grid/MetaGridSpacingX02
350
2EB
  3
Grid/MetaGridSpacingX03
350
2EC
  3
Grid/MetaGridSpacingY00
350
2ED
  3
Grid/MetaGridSpacingY01
350
2EE
  3
Grid/MetaGridSpacingY02
350
2EF
  3
Grid/MetaGridSpacingY03
350
2F0
  3
MultiPageSettings/Columns
350
2F1
  3
MultiPageSettings/GlueMarginsBottom
350
2F2
  3
MultiPageSettings/GlueMarginsLeft
350
2F3
  3
MultiPageSettings/GlueMarginsRight
350
2F4
  3
MultiPageSettings/GlueMarginsTop
350
2F5
  3
MultiPageSettings/PrintCropMarks
350
2F6
  3
MultiPageSettings/Rows
350
2F7
  3
PageSettings/OffsetX
350
2F8
  3
PageSettings/OffsetY
350
2F9
  3
PageSettings/PageOrientation
350
2FA
  3
PageSettings/PaperHeight
350
2FB
  3
PageSettings/PaperWidth
350
2FC
  3
PageSettings/Scale
350
2FD
  3
PageSettings/ShowPaperBorders
350
2FE
  3
QCADVersion
350
2FF
  3
UnitSettings/PaperUnit
350
300
  3
ViewportCenter
350
301
  3
ViewportHeight
350
302
  3
ViewportWidth
350
303
  0
XRECORD
  5
2D3
330
2D0
100
AcDbXrecord
280
1
1000
White
  0
XRECORD
  5
2D4
330
2D0
100
AcDbXrecord
280
1
1000
FullColor
  0
XRECORD
  5
2D5
330
2D0
100
AcDbXrecord
280
1
290
1
  0
XRECORD
  5
2D6
330
2D0
100
AcDbXrecord
280
1
290
1
  0
XRECORD
  5
2D7
330
2D0
100
AcDbXrecord
280
1
290
1
  0
XRECORD
  5
2D8
330
2D0
100
AcDbXrecord
280
1
290
1
  0
XRECORD
  5
2D9
330
2D0
100
AcDbXrecord
280
1
1000
auto
  0
XRECORD
  5
2DA
330
2D0
100
AcDbXrecord
280
1
1000
auto
  0
XRECORD
  5
2DB
330
2D0
100
AcDbXrecord
280
1
1000
auto
  0
XRECORD
  5
2DC
330
2D0
100
AcDbXrecord
280
1
1000
auto
  0
XRECORD
  5
2DD
330
2D0
100
AcDbXrecord
280
1
1000
auto
  0
XRECORD
  5
2DE
330
2D0
100
AcDbXrecord
280
1
1000
auto
  0
XRECORD
  5
2DF
330
2D0
100
AcDbXrecord
280
1
1000
auto
  0
XRECORD
  5
2E0
330
2D0
100
AcDbXrecord
280
1
1000
auto
  0
XRECORD
  5
2E1
330
2D0
100
AcDbXrecord
280
1
290
0
  0
XRECORD
  5
2E2
330
2D0
100
AcDbXrecord
280
1
290
0
  0
XRECORD
  5
2E3
330
2D0
100
AcDbXrecord
280
1
290
0
  0
XRECORD
  5
2E4
330
2D0
100
AcDbXrecord
280
1
290
0
  0
XRECORD
  5
2E5
330
2D0
100
AcDbXrecord
280
1
 90
65537
  0
XRECORD
  5
2E6
330
2D0
100
AcDbXrecord
280
1
 90
65537
  0
XRECORD
  5
2E7
330
2D0
100
AcDbXrecord
280
1
 90
65537
  0
XRECORD
  5
2E8
330
2D0
100
AcDbXrecord
280
1
 90
65537
  0
XRECORD
  5
2E9
330
2D0
100
AcDbXrecord
280
1
1000
auto
  0
XRECORD
  5
2EA
330
2D0
100
AcDbXrecord
280
1
1000
auto
  0
XRECORD
  5
2EB
330
2D0
100
AcDbXrecord
280
1
1000
auto
  0
XRECORD
  5
2EC
330
2D0
100
AcDbXrecord
280
1
1000
auto
  0
XRECORD
  5
2ED
330
2D0
100
AcDbXrecord
280
1
1000
auto
  0
XRECORD
  5
2EE
330
2D0
100
AcDbXrecord
280
1
1000
auto
  0
XRECORD
  5
2EF
330
2D0
100
AcDbXrecord
280
1
1000
auto
  0
XRECORD
  5
2F0
330
2D0
100
AcDbXrecord
280
1
1000
auto
  0
XRECORD
  5
2F1
330
2D0
100
AcDbXrecord
280
1
 90
1
  0
XRECORD
  5
2F2
330
2D0
100
AcDbXrecord
280
1
 40
10.0
  0
XRECORD
  5
2F3
330
2D0
100
AcDbXrecord
280
1
 40
10.0
  0
XRECORD
  5
2F4
330
2D0
100
AcDbXrecord
280
1
 40
10.0
  0
XRECORD
  5
2F5
330
2D0
100
AcDbXrecord
280
1
 40
10.0
  0
XRECORD
  5
2F6
330
2D0
100
AcDbXrecord
280
1
290
0
  0
XRECORD
  5
2F7
330
2D0
100
AcDbXrecord
280
1
 90
1
  0
XRECORD
  5
2F8
330
2D0
100
AcDbXrecord
280
1
 40
0.0
  0
XRECORD
  5
2F9
330
2D0
100
AcDbXrecord
280
1
 40
0.0
  0
XRECORD
  5
2FA
330
2D0
100
AcDbXrecord
280
1
1000
Portrait
  0
XRECORD
  5
2FB
330
2D0
100
AcDbXrecord
280
1
 40
279.3999999999999773
  0
XRECORD
  5
2FC
330
2D0
100
AcDbXrecord
280
1
 40
215.9000000000000057
  0
XRECORD
  5
2FD
330
2D0
100
AcDbXrecord
280
1
1000
1:1
  0
XRECORD
  5
2FE
330
2D0
100
AcDbXrecord
280
1
290
1
  0
XRECORD
  5
2FF
330
2D0
100
AcDbXrecord
280
1
1000
3.17.3
  0
XRECORD
  5
300
330
2D0
100
AcDbXrecord
280
1
 90
4
  0
XRECORD
  5
302
330
2D0
100
AcDbXrecord
280
1
 40
125.0932953290969465
  0
XRECORD
  5
303
330
2D0
100
AcDbXrecord
280
1
 40
253.6186678242712844
  0
ENDSEC
  0
EOF
